<?xml version="1.0" encoding="UTF-8"?>
<svg id="Layer_1" xmlns="http://www.w3.org/2000/svg" version="1.1" viewBox="0 0 235 235">
  <!-- Generator: Adobe Illustrator 29.4.0, SVG Export Plug-In . SVG Version: 2.1.0 Build 152)  -->
  <defs>
    <style>
      .st0 {
        fill: none;
        stroke: #000;
        stroke-miterlimit: 10;
      }
    </style>
  </defs>
  <path class="st0" d="M95.7,45.2c17.1-2.7,53.6-.3,68.6,8.9,1.9,1.1,14.7,13.8,15.5,15.5,3.2,6.2-.2,20.4,1.3,27.7l15.7,10.3c1.5,2.2,5.8,20.5,6.1,23.9s.5,19.2-.5,21.5-15.8,16.3-17.5,17.5c-4.5,3-37,14.7-42.5,15.5-9.9,1.3-40.9,1.3-50.8,0s-36.4-11.7-41.3-14.7-18.2-16.9-18.8-18.2c-1.5-13.8-.3-30.2,4.7-43.2s12.4-7.3,16.6-12.4c1-7.3-.7-15.7.1-22.9s12.8-17.9,17.5-20.5,21.1-8.1,25.3-8.7Z"/>
</svg>