<?xml version="1.0" encoding="UTF-8"?>
<svg
  xmlns="http://www.w3.org/2000/svg"
  width="640"
  height="320"
>
  <defs>
    <symbol id="avatar__collision" viewBox="0 0 320 320">
      <path d="M149.891 262.762C149.295 262.229 148.851 262.398 148.354 262.967C147.412 264.051 146.417 265.09 145.413 266.121C144.338 267.223 143.36 267.276 142.428 266.352C141.539 265.463 141.557 264.379 142.605 263.331C143.325 262.611 144.178 262.007 144.969 261.358C144.889 261.207 144.818 261.056 144.738 260.914C143.689 260.523 142.65 260.114 141.592 259.732C122.633 252.925 104.135 245.026 86.019 236.211C82.0298 234.274 78.0406 232.346 74.5401 229.582C70.7908 226.614 68.0188 222.98 67.2369 218.137C66.5617 213.961 67.3879 209.918 68.9783 206.097C71.466 200.117 74.1669 194.234 76.7879 188.308C80.1641 180.657 83.5846 173.033 86.8986 165.355C87.5561 163.836 89.0132 163.552 90.1593 162.876C90.639 162.592 91.8296 163.232 92.5492 163.685C99.5326 168.146 106.498 172.642 113.437 177.165C114.13 177.618 114.539 177.6 115.241 177.12C119.612 174.143 124.25 174.375 128.656 176.747C132.246 178.684 135.578 181.119 138.892 183.518C153.205 193.906 167.473 204.355 181.76 214.787C183.688 216.2 183.83 216.822 182.542 218.848C172.884 234.096 163.218 249.344 153.56 264.602C152.92 265.606 152.254 266.441 150.904 266.05C149.491 265.641 149.144 264.486 149.891 262.771V262.762ZM90.5058 167.097C90.2659 167.577 90.0704 167.941 89.9105 168.305C85.2905 178.764 80.6172 189.205 76.0771 199.699C74.4068 203.565 72.7276 207.465 71.5726 211.5C70.1155 216.609 71.2705 221.318 75.4197 224.917C77.3032 226.543 79.2845 228.178 81.479 229.298C88.4801 232.879 95.5523 236.344 102.696 239.641C117.142 246.306 131.944 252.126 146.932 257.448C147.598 257.688 148.025 257.626 148.487 257.049C150.317 254.783 152.29 252.632 154.04 250.304C158.9 243.835 162.471 236.815 162.933 228.543C163.289 222.127 161.814 216.218 157.221 211.562C154.653 208.949 151.756 206.568 148.682 204.569C131.695 193.515 114.619 182.603 97.5691 171.647C95.2324 170.145 92.8869 168.634 90.5058 167.097ZM118.066 180.017C118.279 180.213 118.359 180.301 118.457 180.364C125.973 185.206 133.525 190.005 141.006 194.91C146.079 198.233 151.232 201.494 156.048 205.164C165.048 212.015 168.309 221.283 166.532 232.364C166.194 234.487 165.572 236.567 165.075 238.673C165.119 238.699 165.163 238.726 165.208 238.761C169.695 231.679 174.181 224.606 178.704 217.471C178.242 217.124 177.86 216.822 177.46 216.538C173.746 213.828 170.041 211.109 166.327 208.407C154.653 199.895 142.987 191.382 131.304 182.887C129.003 181.217 126.551 179.804 123.717 179.208C121.797 178.809 119.896 178.809 118.057 180.008L118.066 180.017Z" fill="black"/>
<path d="M115.747 223.993C112.762 223.682 109.51 223.06 106.48 221.603C103.788 220.306 102.473 218.191 102.669 215.72C102.864 213.295 104.792 210.887 107.484 210.273C109.412 209.838 111.456 209.873 113.446 209.74C113.739 209.722 114.112 209.882 114.343 210.078C115.951 211.509 117.622 212.895 119.079 214.467C119.86 215.312 120.438 216.431 120.82 217.533C122.099 221.203 119.958 224.055 115.738 224.002L115.747 223.993ZM110.771 215.809C110.434 215.596 110.052 215.365 109.679 215.125C110.123 214.974 110.558 214.707 111.011 214.699C111.767 214.681 112.531 214.823 113.428 214.912C111.695 213.401 109.43 213.232 107.751 214.37C106.347 215.321 106.187 216.751 107.537 217.551C110.238 219.141 113.259 219.746 116.351 219.977C117.177 220.039 117.524 219.532 117.071 218.795C116.333 217.604 115.507 216.467 114.716 215.303C114.627 215.392 114.539 215.48 114.45 215.569C114.059 215.729 113.668 215.889 113.206 216.067C113.792 216.52 114.334 216.884 114.814 217.329C115.009 217.515 115.063 217.853 115.187 218.12C114.867 218.111 114.476 218.208 114.228 218.057C113.615 217.693 113.055 217.213 112.566 216.84C112.3 217.284 112.086 217.631 111.873 217.986C111.616 217.613 111.358 217.231 111.074 216.831C110.78 217.089 110.496 217.4 110.158 217.613C109.954 217.737 109.652 217.72 109.394 217.764C109.439 217.48 109.377 217.107 109.537 216.92C109.927 216.467 110.416 216.094 110.763 215.783L110.771 215.809Z" fill="black"/>
<path d="M120.367 207.083C120.367 208.176 119.781 208.852 118.75 209.1C117.373 209.438 115.969 210.709 114.592 209.154C113.748 208.203 114.059 206.719 115.25 206.159C116.165 205.733 117.151 205.404 118.146 205.191C119.275 204.951 120.341 205.928 120.367 207.083Z" fill="black"/>
<path d="M187.739 60.449C193.096 61.7019 198.516 62.857 203.695 64.7675C208.387 66.5002 212.891 69.1393 216.8 72.4182C221.154 76.0703 224.921 79.9534 227.613 84.8762C230.145 89.4968 231.86 94.5351 233.113 99.6445C234.347 104.674 235.112 109.685 235.218 114.857C235.245 115.959 235.236 117.061 235.183 118.163C235.156 118.696 235.12 119.229 235.076 119.762C235.058 119.984 235.032 120.197 235.014 120.42C234.996 120.544 234.898 121.308 234.961 120.882C234.667 122.925 234.134 124.934 233.184 126.773C232.162 128.763 230.838 130.114 229.141 131.207C227.169 132.487 225.072 133.535 223.188 134.948C217.707 139.044 213.673 144.989 211.292 151.369C209.417 156.407 208.68 161.774 205.961 166.484C203.251 171.184 198.88 173.904 193.638 174.934C188.334 175.974 182.461 175.583 177.237 174.579C171.657 173.513 166.247 171.593 161.156 169.105C150.832 164.049 140.899 156.621 134.724 146.766C131.223 141.177 129.198 134.637 127.918 128.186C126.55 121.273 126.408 114.075 127.572 107.126C128.736 100.178 130.957 92.6513 134.6 86.4045C137.994 80.5843 142.791 75.6704 148.042 71.503C152.662 67.8331 157.593 64.9541 163.217 63.1414C168.805 61.3375 174.678 60.2446 180.551 60.058C181.83 60.0224 183.101 60.0224 184.38 60.0935C185.66 60.1646 186.673 60.2623 187.748 60.4578C188.929 60.6622 190.138 60.1379 190.484 58.9028C190.777 57.8276 190.12 56.3792 188.929 56.166C183.065 55.1263 177.015 55.6062 171.178 56.6191C165.118 57.6677 159.015 59.4448 153.586 62.3861C150.663 63.9677 147.944 65.976 145.323 68.0197C142.507 70.2234 139.85 72.6226 137.425 75.2528C134.999 77.883 132.849 80.6643 131.028 83.6944C129.038 87.0088 127.59 90.6253 126.319 94.2685C123.76 101.582 122.303 109.321 122.348 117.079C122.392 124.836 123.938 132.549 126.568 139.835C128.7 145.735 131.748 150.951 135.879 155.688C140.01 160.424 145.012 164.565 150.308 168.039C160.605 174.801 172.466 179.324 184.833 179.857C190.688 180.106 196.863 179.555 202.052 176.596C207.489 173.486 210.741 168.039 212.66 162.228C213.531 159.606 214.135 156.896 214.988 154.266C215.992 151.174 217.413 148.286 219.226 145.584C221.038 142.883 223.304 140.279 226.014 138.36C227.951 136.992 230.101 135.961 232.037 134.601C240.7 128.515 240.282 116.483 239.03 107.126C238.266 101.457 236.96 95.8502 234.969 90.4831C232.979 85.1161 230.634 80.3888 227.071 76.2302C223.046 71.5207 218.089 67.2644 212.731 64.1366C207.996 61.382 202.789 59.6048 197.503 58.2364C194.66 57.4988 191.79 56.8413 188.929 56.1749C186.068 55.5084 184.958 59.8092 187.748 60.4578L187.739 60.449Z" fill="black"/>
<path d="M211.665 120.713C206.468 123.245 202.523 128.008 199.787 133.002C197.121 137.871 195.229 143.407 194.936 148.988C194.802 151.485 195.078 154.026 196.18 156.292C196.704 157.367 198.241 157.66 199.218 157.092C200.32 156.443 200.542 155.137 200.018 154.053C199.973 153.964 199.92 153.866 199.884 153.777C199.884 153.777 200.044 154.177 199.956 153.937C199.893 153.759 199.822 153.573 199.769 153.395C199.645 152.977 199.556 152.551 199.467 152.115C199.36 151.556 199.467 152.284 199.431 151.876C199.414 151.644 199.387 151.422 199.378 151.191C199.342 150.676 199.342 150.161 199.351 149.645C199.405 147.335 199.76 145.469 200.426 143.087C201.786 138.227 204.14 133.428 207.472 129.625C209.364 127.466 211.328 125.804 213.904 124.552C214.979 124.027 215.273 122.49 214.704 121.513C214.064 120.411 212.749 120.189 211.665 120.713Z" fill="black"/>
<path d="M174.465 104.505C174.243 111.525 174.012 118.536 173.808 125.556C173.719 128.71 173.79 132.104 175.469 134.895C176.962 137.383 179.503 139.16 182.462 139.195C185.42 139.231 185.322 134.788 182.462 134.752C180.56 134.726 179.228 132.975 178.712 131.296C177.904 128.639 178.259 125.698 178.339 122.961L178.917 104.505C179.005 101.644 174.563 101.644 174.474 104.505H174.465Z" fill="black"/>
<path d="M196.126 112.271C199.315 111.809 202.514 111.338 205.703 110.876L203.989 106.815C203.749 106.993 203.509 107.171 203.26 107.357C202.78 107.713 202.407 108.086 202.238 108.681C202.096 109.215 202.159 109.925 202.461 110.396C203.056 111.32 204.504 111.934 205.499 111.196C205.739 111.018 205.979 110.841 206.228 110.654C207.125 109.988 207.596 108.975 207.134 107.882C206.672 106.789 205.632 106.433 204.513 106.593C201.323 107.055 198.125 107.526 194.935 107.988C194.42 108.059 193.86 108.584 193.611 109.01C193.336 109.49 193.212 110.192 193.389 110.725C193.567 111.258 193.896 111.783 194.411 112.049C194.971 112.351 195.495 112.36 196.126 112.271Z" fill="black"/>
<path d="M201.928 110.734L202.505 114.199C202.576 114.493 202.71 114.742 202.905 114.955C203.065 115.195 203.269 115.39 203.527 115.523L204.06 115.746C204.353 115.834 204.646 115.852 204.948 115.781C205.153 115.781 205.339 115.728 205.508 115.63C205.784 115.541 206.023 115.39 206.219 115.168C206.61 114.742 206.885 114.191 206.868 113.595C206.841 112.671 206.823 111.747 206.796 110.823C206.779 110.245 206.557 109.668 206.148 109.25C205.766 108.868 205.126 108.575 204.575 108.601C204.024 108.628 203.403 108.815 203.003 109.25C202.603 109.685 202.345 110.219 202.354 110.823C202.354 111.667 202.372 112.511 202.381 113.355C202.381 113.924 202.621 114.519 203.029 114.928C203.411 115.31 204.051 115.603 204.602 115.577C205.153 115.55 205.775 115.364 206.174 114.928C206.574 114.493 206.823 113.96 206.823 113.355C206.823 112.716 206.832 112.076 206.841 111.436L202.701 112.556L202.718 112.6L202.496 112.067C202.532 112.165 202.558 112.262 202.576 112.369L202.496 111.783C202.505 111.889 202.496 111.987 202.496 112.094L202.576 111.507C202.558 111.614 202.532 111.711 202.487 111.809L202.71 111.276C202.665 111.374 202.612 111.463 202.55 111.543L202.896 111.089C202.843 111.161 202.781 111.223 202.71 111.276L203.163 110.929C203.1 110.974 203.038 111.009 202.976 111.045C202.496 111.294 202.096 111.863 201.954 112.369C201.812 112.875 201.874 113.613 202.176 114.084C202.478 114.555 202.94 114.973 203.5 115.106C204.104 115.239 204.664 115.168 205.215 114.884C206.006 114.475 206.512 113.711 206.796 112.893C206.85 112.724 206.868 112.556 206.885 112.378C206.903 112.2 206.947 112.031 206.939 111.863C206.912 111.24 206.788 110.867 206.53 110.316L206.183 109.863C205.979 109.65 205.748 109.49 205.473 109.401C205.304 109.303 205.108 109.25 204.913 109.25C204.62 109.188 204.327 109.197 204.024 109.286C203.66 109.401 203.331 109.597 203.047 109.854C202.638 110.236 202.399 110.876 202.399 111.427C202.399 112.067 202.39 112.707 202.381 113.346H206.823C206.823 112.502 206.805 111.658 206.796 110.814H202.354C202.381 111.738 202.399 112.662 202.425 113.586L206.788 113L206.21 109.534C206.139 109.241 206.006 108.992 205.81 108.779C205.65 108.539 205.446 108.344 205.188 108.21C204.709 107.935 204.007 107.811 203.474 107.988C202.941 108.166 202.416 108.495 202.15 109.01L201.928 109.543C201.821 109.934 201.821 110.334 201.928 110.725V110.734Z" fill="black"/>
<path d="M148.789 111.365L158.109 109.526L155.301 107.384L155.47 110.965L159.61 109.845C159.335 109.206 159.05 108.557 158.775 107.917C158.499 107.277 157.771 106.94 157.149 106.86C156.42 106.762 155.834 106.993 155.283 107.473C154.448 108.193 153.986 109.419 154.057 110.512C154.137 111.863 154.768 112.947 155.878 113.72C156.651 114.262 157.949 114.057 158.571 113.373C159.299 112.582 159.326 111.631 158.917 110.681C158.659 110.085 158.411 109.499 158.153 108.904C157.957 108.45 157.291 107.988 156.829 107.882C156.332 107.766 155.852 107.793 155.381 107.997C154.404 108.406 153.755 109.552 154.093 110.618C154.333 111.374 154.572 112.138 154.821 112.893C155.159 113.951 156.145 114.635 157.256 114.484C158.366 114.333 159.175 113.418 159.184 112.298C159.184 111.614 159.192 110.929 159.201 110.245L154.839 110.832C154.972 111.232 155.114 111.631 155.248 112.022C155.621 113.115 156.794 113.96 157.984 113.577C159.068 113.222 159.939 112.022 159.539 110.841C159.406 110.441 159.264 110.041 159.13 109.65C158.766 108.593 157.824 107.908 156.696 108.059C155.568 108.21 154.777 109.126 154.768 110.245C154.768 110.929 154.759 111.614 154.75 112.298L159.113 111.711C158.873 110.956 158.633 110.192 158.384 109.437L154.324 111.152C154.581 111.747 154.83 112.333 155.088 112.929L158.126 109.89C158.402 110.121 158.482 110.174 158.357 110.059C158.233 109.934 158.295 110.014 158.517 110.299C158.508 110.263 158.428 110.13 158.402 110.103C158.535 110.45 158.571 110.539 158.517 110.37C158.499 110.316 158.482 110.263 158.473 110.21C158.357 109.854 158.517 110.672 158.499 110.405C158.482 110.13 158.642 110.245 158.455 110.601C158.491 110.53 158.624 110.183 158.437 110.539C158.242 110.929 158.473 110.565 158.482 110.503C158.464 110.663 158.109 110.912 158.437 110.618L154.946 110.165C155.221 110.805 155.505 111.454 155.781 112.094C156.154 112.947 157.442 113.391 158.286 113.115C159.184 112.822 159.965 111.969 159.921 110.974L159.752 107.393C159.681 105.873 158.402 104.967 156.945 105.251L147.625 107.091C146.479 107.313 145.723 108.744 146.07 109.828C146.461 111.045 147.58 111.623 148.806 111.383L148.789 111.365Z" fill="black"/>
<path d="M146.727 93.5932C150.725 94.3929 154.732 95.2015 158.73 96.0013C159.868 96.2323 161.183 95.6725 161.467 94.4462C161.716 93.3444 161.138 91.9582 159.912 91.7094C155.914 90.9097 151.907 90.1011 147.909 89.3013C146.772 89.0703 145.457 89.6301 145.172 90.8563C144.924 91.9582 145.501 93.3444 146.727 93.5932Z" fill="black"/>
<path d="M194.18 101.413C197.894 99.9466 201.608 98.4715 205.321 97.0054C206.396 96.5788 207.267 95.5037 206.876 94.2685C206.539 93.2289 205.304 92.2603 204.14 92.7135C200.426 94.1797 196.712 95.6547 192.998 97.1209C191.923 97.5474 191.053 98.6226 191.444 99.8577C191.781 100.897 193.016 101.866 194.18 101.413Z" fill="black"/>
<path d="M184.718 147.37C182.612 147.468 180.427 148.81 180.036 151.031C179.645 153.253 180.791 155.394 182.772 156.345C183.536 156.718 184.345 156.949 185.144 157.225C185.651 157.403 184.896 157.056 185.198 157.251C185.242 157.278 185.322 157.331 185.375 157.349C185.633 157.438 185.047 157.047 185.242 157.234C185.26 157.251 185.358 157.367 185.375 157.367C185.375 157.367 185.091 156.985 185.216 157.171C185.349 157.385 185.136 156.896 185.118 156.869C185.1 156.718 185.091 156.709 185.091 156.843C185.091 156.967 185.091 156.958 185.1 156.816C185.144 156.523 185.082 156.834 185.073 156.878C185.047 156.994 185.011 157.118 184.993 157.234C184.931 157.545 184.878 157.865 184.851 158.184C184.798 158.709 184.869 159.277 185.038 159.775C185.429 160.904 186.157 161.801 187.144 162.467C188.236 163.205 189.578 163.356 190.848 163.152C192.119 162.947 193.132 162.174 193.896 161.161C194.598 160.228 194.074 158.638 193.096 158.122C191.932 157.509 190.804 157.918 190.058 158.922C190.253 158.673 190.271 158.638 190.111 158.807C190.369 158.62 190.395 158.602 190.191 158.735C190.013 158.824 190.004 158.833 190.173 158.762C190.342 158.7 190.333 158.7 190.147 158.762C190.04 158.798 189.942 158.824 189.836 158.842C190.155 158.806 190.191 158.798 189.933 158.815H189.764C189.516 158.798 189.542 158.807 189.853 158.833C189.747 158.807 189.631 158.78 189.525 158.744C189.791 158.869 189.818 158.878 189.596 158.762L189.454 158.673C189.249 158.531 189.267 158.549 189.507 158.718C189.427 158.647 189.347 158.567 189.276 158.487C189.436 158.709 189.471 158.753 189.374 158.62C189.329 158.558 189.285 158.487 189.249 158.416C189.143 158.193 189.151 158.229 189.285 158.513C189.178 158.495 189.205 157.953 189.258 158.513C189.267 158.291 189.258 158.318 189.223 158.593C189.249 158.469 189.276 158.353 189.302 158.238C189.427 157.696 189.551 157.136 189.516 156.576C189.418 155.305 188.778 154.275 187.721 153.582C187.064 153.146 186.273 152.906 185.527 152.666C185.331 152.604 185.144 152.533 184.949 152.471C184.531 152.338 185.331 152.702 184.931 152.471C184.869 152.435 184.363 152.107 184.611 152.302C184.86 152.498 184.389 152.089 184.363 152.027C184.54 152.266 184.567 152.284 184.434 152.089L184.354 151.956C184.469 152.249 184.478 152.284 184.398 152.062C184.363 151.964 184.345 151.867 184.318 151.769C184.354 152.115 184.363 152.16 184.354 151.911V151.76C184.3 152.107 184.3 152.16 184.354 151.92C184.434 151.689 184.416 151.733 184.3 152.044C184.487 151.653 183.981 152.311 184.3 152.018C184.372 151.947 184.443 151.876 184.523 151.813C184.274 152 184.247 152.027 184.451 151.893C184.825 151.68 184.034 151.964 184.496 151.867C184.594 151.831 184.7 151.804 184.807 151.787C184.487 151.822 184.451 151.831 184.7 151.813C185.855 151.76 186.975 150.836 186.921 149.592C186.868 148.437 185.944 147.308 184.7 147.37H184.718Z" fill="black"/>
<path d="M157.807 145.638C158.02 145.211 158.233 144.767 158.5 144.376C158.553 144.296 159.086 143.763 159.104 143.727C159.104 143.709 159.264 143.692 159.264 143.674C159.033 143.612 158.882 143.461 158.811 143.221C158.793 142.945 158.882 142.696 159.077 142.457C157.505 144.251 159.548 147.424 161.769 145.949C163.466 144.82 165.154 143.701 166.851 142.572L163.591 141.248C163.875 142.083 164.15 142.919 164.435 143.754C164.843 144.962 166.478 146.002 167.695 145.078C169.152 143.967 170.618 142.856 172.075 141.755L168.735 139.835C168.85 140.946 168.975 142.057 169.09 143.167C169.303 145.184 171.32 145.966 172.884 144.74C174.217 143.692 175.558 142.634 176.891 141.586L173.177 140.608C173.435 141.87 173.684 143.132 173.941 144.394C174.288 146.117 176.509 146.428 177.655 145.371C178.579 144.527 179.503 143.674 180.427 142.83L176.713 141.852C176.989 143.007 177.264 144.154 177.54 145.309C177.966 147.086 180.018 147.264 181.253 146.286C182.488 145.309 183.697 144.358 184.914 143.39L181.422 142.936C181.893 143.816 182.364 144.696 182.835 145.575C183.714 147.219 186.486 146.899 186.895 145.042C186.922 144.927 187.002 144.722 186.895 144.927C187.153 144.465 186.806 144.945 187.028 144.767C187.295 144.554 186.815 144.873 187.126 144.714C187.437 144.554 186.726 144.785 187.339 144.634C187.499 144.598 187.677 144.598 187.526 144.58C187.712 144.607 187.881 144.74 187.686 144.491C188.245 145.211 188.93 145.7 189.898 145.549C190.724 145.424 191.559 144.82 191.746 143.958C191.826 143.567 191.808 143.718 191.702 143.843C191.844 143.674 191.888 143.665 192.013 143.612C192.164 143.549 192.146 143.594 192.252 143.585C192.483 143.585 192.252 143.585 192.146 143.496C192.723 143.967 193.541 144.367 194.305 144.065C194.847 143.852 195.38 143.638 195.922 143.425C198.25 142.51 197.912 139.275 195.335 139.062C192.608 138.831 191.213 142.581 193.301 144.251C194.252 145.007 195.584 145.025 196.615 144.403C197.788 143.692 198.187 142.394 197.93 141.097C197.69 139.924 196.295 139.24 195.193 139.542C193.967 139.88 193.407 141.097 193.638 142.279L193.683 142.501V141.319L194.847 140.395L195.966 140.697L195.771 140.582L196.57 141.381L196.473 142.901L195.495 143.469L195.344 143.496L194.758 139.133C194.216 139.346 193.683 139.56 193.141 139.773L195.3 140.342C192.688 138.191 188.228 139.178 187.473 142.768L191.533 142.234C190.253 140.582 188.468 139.871 186.389 140.288C184.603 140.653 183.021 142.039 182.622 143.843L186.682 143.31C186.211 142.43 185.74 141.55 185.269 140.67C184.532 139.284 182.844 139.382 181.777 140.217C180.56 141.186 179.334 142.146 178.117 143.114L181.831 144.092C181.555 142.936 181.28 141.79 181.005 140.635C180.596 138.938 178.472 138.565 177.291 139.657C176.367 140.502 175.443 141.355 174.519 142.199L178.232 143.176C177.975 141.914 177.726 140.653 177.468 139.391C177.104 137.578 174.945 137.472 173.755 138.413C172.422 139.462 171.08 140.519 169.748 141.568L173.541 143.141C173.426 142.03 173.302 140.919 173.186 139.809C173.026 138.351 171.338 136.761 169.845 137.889C168.353 139.018 166.922 140.111 165.465 141.212L168.726 142.536C168.442 141.701 168.166 140.866 167.882 140.031C167.447 138.751 165.883 137.863 164.621 138.707C162.924 139.835 161.236 140.955 159.539 142.083L162.231 145.575C164.097 143.443 163.137 140.013 160.303 139.338C157.318 138.627 155.195 140.99 153.977 143.381C152.68 145.922 156.51 148.17 157.816 145.62L157.807 145.638Z" fill="black"/>
<path d="M126.435 94.3396C123.174 90.6164 117.568 91.6561 114.227 94.6151C110.62 97.7962 108.479 102.994 107.235 107.535C105.894 112.431 105.618 117.558 106.373 122.579C107.084 127.306 109.305 132.184 113.916 134.21C116.449 135.33 119.283 135.374 121.735 134.024C124.063 132.744 125.52 130.461 125.733 127.83C125.831 126.631 124.64 125.609 123.512 125.609C122.233 125.609 121.388 126.631 121.291 127.83C121.06 130.647 117.373 131.083 115.391 130.007C112.22 128.292 111.082 124.569 110.629 121.21C109.652 113.862 111.358 105.776 115.649 99.68C117.239 97.423 120.909 94.7572 123.299 97.4852C124.089 98.3915 125.635 98.2938 126.444 97.4852C127.341 96.5877 127.235 95.246 126.444 94.3396H126.435Z" fill="black"/>
<path d="M236.32 128.23C239.305 127.457 241.873 130.523 242.424 133.206C243.277 137.356 241.109 141.79 239.465 145.478C237.822 149.165 235.876 153.004 232.864 155.847C230.341 158.229 226.751 160.059 223.198 159.606C219.644 159.153 216.534 156.167 216.721 152.542C216.872 149.681 212.429 149.69 212.278 152.542C212.03 157.42 215.539 161.561 219.892 163.294C224.575 165.151 230.003 163.605 233.912 160.717C238.115 157.607 240.834 153.102 242.975 148.419C245.276 143.39 247.844 137.836 246.733 132.176C245.711 127.004 240.523 122.543 235.139 123.947C232.375 124.667 233.548 128.95 236.32 128.23Z" fill="black"/>
<path d="M123.237 86.6533C125.964 75.4216 135.044 66.3314 144.533 60.2979C154.022 54.2644 165.19 50.7367 176.482 50.4524C199.218 49.8926 221.163 62.5904 232.002 82.5747C238.177 93.9753 240.665 107.189 239.101 120.046C238.959 121.237 240.23 122.268 241.322 122.268C242.646 122.268 243.401 121.246 243.544 120.046C245.027 107.837 242.877 95.3526 237.768 84.192C232.695 73.1202 224.486 63.6923 214.322 57.0012C204.158 50.3102 192.537 46.5604 180.587 46.0539C168.637 45.5474 156.145 48.6308 145.519 54.5487C134.893 60.4667 124.942 69.628 120.349 81.1086C119.78 82.5303 119.318 83.9965 118.954 85.4804C118.279 88.2617 122.561 89.4435 123.237 86.6622V86.6533Z" fill="black"/>
<path d="M128.416 102.932C132.015 102.133 134.636 99.3601 136.493 96.3212C138.349 93.2822 139.282 89.9411 141.459 87.2487C143.636 84.5563 146.976 83.6855 150.353 83.3833C154.733 82.9924 159.139 82.8324 163.52 82.5659C172.591 82.0238 181.671 81.4818 190.742 80.9397C195.22 80.6732 199.707 80.2733 204.193 80.1756C207.916 80.0956 211.203 80.8153 213.993 83.4011C219.866 88.8304 222.789 97.7074 231.318 99.7866L232.5 95.5037C232.02 95.4148 231.54 95.3259 231.052 95.2371C229.87 95.0238 228.653 95.557 228.315 96.7921C228.022 97.8673 228.68 99.3068 229.87 99.529C230.35 99.6178 230.83 99.7067 231.318 99.7955C232.5 100.009 233.717 99.4756 234.055 98.2405C234.366 97.1031 233.673 95.7969 232.5 95.5037C225.517 93.7976 222.496 85.6759 217.867 80.9664C214.979 78.0252 211.514 76.2658 207.41 75.8393C203.092 75.395 198.596 76.0348 194.278 76.2924C185.127 76.8434 175.976 77.3854 166.834 77.9363C162.187 78.2118 157.54 78.4872 152.885 78.7716C149.091 79.0026 145.111 79.2781 141.734 81.2152C137.985 83.3656 136.084 87.2398 134.28 90.9808C132.779 94.0997 130.904 97.8406 127.226 98.6581C124.436 99.2802 125.618 103.563 128.408 102.941L128.416 102.932Z" fill="black"/>
<path d="M213.487 150.658C216.223 154.603 218.96 158.558 221.696 162.503C222.692 163.943 225.455 163.107 224.744 161.223C222.994 156.567 221.243 151.92 219.493 147.264L216.712 148.881C220.017 152.915 223.322 156.949 226.627 160.984C227.152 161.623 228.218 161.579 228.813 161.117C229.515 160.575 229.577 159.74 229.239 158.966C226.814 153.386 224.388 147.806 221.963 142.217L219.351 144.234C223.269 148.81 227.196 153.386 231.114 157.962C231.701 158.647 232.864 158.558 233.469 157.962C234.17 157.278 234.028 156.31 233.469 155.608C229.675 150.854 227.178 145.184 226.059 139.213L223.011 140.493C226.032 144.714 229.053 148.934 232.065 153.155C233.291 154.87 236.116 153.306 234.943 151.476C231.629 146.331 229.47 140.617 228.52 134.575L225.472 135.854C228.387 140.644 231.31 145.442 234.224 150.232C235.166 151.778 237.955 150.783 237.271 148.952C235.397 143.949 233.522 138.947 231.647 133.944L228.6 135.223C230.972 138.911 233.344 142.608 235.716 146.295C236.703 147.832 239.341 146.882 238.764 145.016C237.28 140.235 235.805 135.454 234.322 130.674L231.274 131.953C233.451 135.677 235.628 139.4 237.804 143.114C238.755 144.74 241.358 143.665 240.852 141.835C239.892 138.36 238.933 134.877 237.982 131.403L234.935 132.682C236.507 134.788 238.08 136.885 239.652 138.991C240.736 140.439 243.171 139.657 242.7 137.711C241.873 134.317 241.056 130.932 240.23 127.537L237.182 128.817C238.515 130.94 239.839 133.073 241.172 135.197C242.176 136.805 244.654 135.765 244.219 133.917C243.668 131.589 243.117 129.252 242.566 126.924L239.519 128.204C240.461 129.723 241.394 131.243 242.335 132.753C243.464 134.575 246.342 132.904 245.214 131.074C244.272 129.554 243.339 128.035 242.398 126.524C241.403 124.907 238.915 125.964 239.35 127.804C239.901 130.132 240.452 132.469 241.003 134.797L244.05 133.517C242.717 131.394 241.394 129.261 240.061 127.137C239.057 125.538 236.569 126.569 237.014 128.417C237.84 131.811 238.657 135.197 239.483 138.591L242.531 137.312C240.958 135.206 239.386 133.109 237.813 131.003C236.747 129.581 234.233 130.336 234.766 132.282C235.725 135.757 236.685 139.24 237.635 142.714L240.683 141.435C238.506 137.711 236.329 133.988 234.153 130.274C233.211 128.675 230.537 129.723 231.105 131.554C232.589 136.334 234.064 141.115 235.548 145.895L238.595 144.616C236.223 140.928 233.851 137.232 231.478 133.544C230.51 132.042 227.738 132.975 228.431 134.824C230.306 139.826 232.18 144.829 234.055 149.832L237.102 148.552C234.188 143.763 231.265 138.964 228.351 134.175C227.312 132.469 225.019 133.66 225.304 135.454C226.299 141.746 228.618 147.788 232.065 153.146L234.943 151.467C231.923 147.246 228.902 143.025 225.89 138.804C224.788 137.258 222.487 138.191 222.843 140.084C224.069 146.651 226.947 152.737 231.105 157.945L233.46 155.59C229.542 151.014 225.615 146.437 221.696 141.861C221.154 141.23 220.124 141.257 219.511 141.728C218.809 142.27 218.747 143.105 219.084 143.878C221.51 149.459 223.935 155.039 226.361 160.628L228.973 158.611C225.668 154.577 222.363 150.543 219.058 146.508C218.018 145.238 215.699 146.606 216.277 148.126C218.027 152.782 219.777 157.429 221.528 162.085L224.575 160.806C221.839 156.86 219.102 152.906 216.366 148.961C215.148 147.21 212.261 148.872 213.487 150.64V150.658Z" fill="black"/>
<path d="M108.266 124.409C111.899 127.226 115.524 130.043 119.158 132.86C119.824 133.375 120.633 133.544 121.344 132.993C121.957 132.522 122.25 131.527 121.77 130.843C118.536 126.258 115.231 121.708 112.05 117.079C111.935 116.91 111.811 116.625 111.668 116.501C111.429 116.297 111.615 116.199 111.109 116.572C110.7 116.625 110.611 116.723 110.842 116.892C110.984 117.034 111.126 117.185 111.26 117.336C111.455 117.549 111.651 117.763 111.846 117.976C112.779 118.989 113.712 120.002 114.636 121.015C116.546 123.094 118.456 125.174 120.366 127.244L122.721 124.889C118.332 120.473 115.151 115.035 113.445 109.046L110.664 110.663C114.289 115.07 117.905 119.487 121.53 123.894L123.885 121.539C119.505 116.323 116.2 110.254 114.147 103.759L111.366 105.376C114.716 108.868 117.452 112.831 119.558 117.185L122.437 115.506C119.274 110.725 117.221 105.385 116.324 99.7244L113.277 101.004C115.924 105.163 118.572 109.33 121.219 113.489C122.401 115.355 124.906 113.737 124.098 111.809C121.903 106.602 119.7 101.395 117.506 96.179L114.627 97.8584C116.937 101.048 119.247 104.247 121.557 107.437C122.792 109.143 125.537 107.651 124.436 105.758C122.499 102.444 121.282 98.7648 120.944 94.9438L117.843 95.788C119.398 98.3027 120.953 100.817 122.517 103.332C123.503 104.932 126.035 103.901 125.564 102.053C124.986 99.8133 124.418 97.5741 123.84 95.3348L120.793 96.6144L121.806 98.3471C122.89 100.195 125.768 98.5248 124.684 96.6677L123.672 94.935C122.712 93.3 120.153 94.384 120.624 96.2145C121.202 98.4538 121.77 100.693 122.348 102.932L125.395 101.653C123.84 99.138 122.286 96.6233 120.722 94.1086C119.913 92.8024 117.461 93.22 117.621 94.9527C118.012 99.3779 119.327 103.608 121.566 107.455L124.445 105.776C122.134 102.586 119.824 99.3868 117.514 96.1967C116.235 94.4285 113.81 95.9124 114.636 97.8762C116.83 103.083 119.034 108.29 121.228 113.506L124.107 111.827L116.164 99.3423C115.098 97.6718 112.832 98.8092 113.117 100.622C114.049 106.531 116.262 112.2 119.567 117.194C120.757 118.998 123.378 117.443 122.445 115.515C120.224 110.921 117.266 106.709 113.73 103.03C112.592 101.848 110.442 103.057 110.949 104.647C113.179 111.711 116.786 118.225 121.548 123.894C122.934 125.547 125.253 123.174 123.903 121.539C120.278 117.132 116.662 112.716 113.037 108.308C111.944 106.984 109.82 108.415 110.256 109.925C112.113 116.456 115.595 122.428 120.384 127.244C121.903 128.772 124.187 126.462 122.739 124.889C120.384 122.33 118.039 119.78 115.684 117.221C114.645 116.083 113.57 114.475 112.201 113.737C110.744 112.955 108.994 113.631 108.434 115.177C107.875 116.723 108.692 118.074 109.58 119.327C110.602 120.775 111.624 122.223 112.646 123.672C114.734 126.631 116.821 129.59 118.909 132.549L121.521 130.532C117.888 127.715 114.263 124.898 110.629 122.081C109.909 121.521 108.976 121.397 108.274 122.081C107.697 122.65 107.564 123.885 108.274 124.436L108.266 124.409Z" fill="black"/>
<path d="M127.039 94.2063L129.864 95.8324C131.304 96.6588 133.24 95.6192 133.205 93.9131C133.169 91.8427 133.125 89.7812 133.089 87.7108L129.296 89.2836C130.317 90.4476 131.339 91.6205 132.352 92.7846C133.64 94.2508 136.172 93.06 136.146 91.2118C136.101 88.0751 136.066 84.9473 136.021 81.8106L131.881 82.9302C132.752 84.2097 133.614 85.4893 134.484 86.7689C135.728 88.6082 138.491 87.8974 138.625 85.6492C138.767 83.1701 138.909 80.6909 139.051 78.2029L134.911 79.3225C135.861 80.9931 136.812 82.6636 137.772 84.3252C138.731 85.9869 141.423 85.6937 141.832 83.7921C142.445 80.922 143.049 78.0518 143.662 75.1817L139.602 75.7149C140.606 77.963 141.619 80.22 142.623 82.4681C143.627 84.7162 146.692 83.3656 146.763 81.3485C146.869 78.3184 146.985 75.2972 147.092 72.2671L142.951 73.3868C144.017 75.5638 145.084 77.7408 146.15 79.909C147.216 82.0771 151.09 80.5665 150.21 78.194C149.331 75.8215 149.259 73.3601 150.272 71.0942H146.434C147.838 73.9643 149.242 76.8345 150.645 79.7046C151.578 81.6151 155.034 80.7709 154.786 78.585C154.421 75.3416 154.057 72.1072 153.684 68.8639L149.544 69.9835C151.596 73.2002 153.648 76.4257 155.701 79.6424C156.776 81.3307 160.108 80.8598 159.841 78.5228C159.335 74.0532 158.828 69.5747 158.322 65.1051L154.182 66.2248C156.909 70.6855 159.637 75.1373 162.355 79.598C163.653 81.7128 167.118 80.3622 166.416 77.883C164.976 72.8358 163.546 67.7887 162.107 62.7415L158.046 64.4565C160.836 68.6506 163.626 72.8447 166.416 77.0477C167.988 79.4114 171.755 77.2699 170.254 74.8085C168.033 71.1653 167.126 67.0423 167.526 62.7948L163.386 63.9144C166.194 68.5173 169.001 73.1202 171.809 77.7231C173.115 79.8557 176.526 78.4784 175.869 76.0081C174.527 70.9787 173.195 65.9493 171.853 60.911L167.793 62.626C171.284 68.2152 174.767 73.7955 178.259 79.3847C179.769 81.8017 183.501 79.6424 182.097 77.1455C179.103 71.8228 178.019 65.736 178.81 59.6937L174.669 60.8133C177.966 66.598 181.262 72.3827 184.558 78.1585C185.989 80.6643 189.658 78.4606 188.396 75.9192C185.775 70.6499 184.185 64.883 183.741 59.0183L179.6 60.138C182.612 65.9582 185.624 71.7695 188.636 77.5898C189.791 79.8201 193.434 78.2829 192.696 75.8748C191.053 70.4989 189.409 65.1229 187.774 59.747L183.714 61.4619C186.77 67.0156 189.818 72.5693 192.874 78.1229C193.452 79.1715 194.9 79.518 195.913 78.9226C197.041 78.2562 197.192 76.9855 196.712 75.8837C194.687 71.263 194.047 66.1714 194.598 61.1865L190.458 62.3061C192.945 67.5932 196.037 72.5071 199.618 77.1188C200.213 77.883 201.537 77.9185 202.31 77.4654C203.216 76.9411 203.5 75.937 203.331 74.9596C202.558 70.5522 201.785 66.1537 201.012 61.7463L196.952 63.4613C199.333 67.8775 201.714 72.2849 204.095 76.7012C205.348 79.0204 208.627 77.3587 208.156 74.9862C207.383 71.112 206.619 67.2289 205.846 63.3546L201.785 65.0696C203.953 70.019 206.121 74.9684 208.298 79.9179C208.689 80.8064 209.942 81.1797 210.803 80.9397C211.781 80.6732 212.376 79.7757 212.438 78.7982C212.634 75.6082 212.829 72.4271 213.016 69.2371L208.653 69.8235C210.741 75.2261 212.82 80.6376 214.908 86.0402C215.308 87.071 216.187 87.8085 217.342 87.6308C218.355 87.4797 219.359 86.5645 219.27 85.4449C218.906 80.8242 218.542 76.2036 218.178 71.5829L214.037 72.7026C216.418 78.0785 218.808 83.4544 221.189 88.8215C221.58 89.7012 222.824 90.0833 223.695 89.8434C224.69 89.5679 225.241 88.6882 225.33 87.7019C225.632 84.3075 225.934 80.9131 226.227 77.5187L221.865 78.1051C223.615 83.5344 225.374 88.9637 227.124 94.3929C227.773 96.41 230.847 96.6055 231.407 94.3929C231.842 92.6868 232.278 90.9808 232.704 89.2747L228.342 88.6882C228.528 90.5276 228.706 92.3669 228.892 94.2063C229.008 95.397 229.825 96.4278 231.114 96.4278C232.224 96.4278 233.45 95.4059 233.335 94.2063C233.148 92.3669 232.971 90.5276 232.784 88.6882C232.677 87.5864 232.02 86.6445 230.856 86.5023C229.79 86.3779 228.697 86.9999 228.422 88.0928C227.986 89.7989 227.551 91.505 227.124 93.2111H231.407C229.657 87.7818 227.897 82.3526 226.147 76.9233C225.356 74.462 222.007 75.0395 221.785 77.5098C221.483 80.9042 221.181 84.2986 220.887 87.693L225.028 86.5734C222.647 81.1974 220.257 75.8215 217.876 70.4544C216.987 68.4551 213.566 69.4414 213.735 71.5741C214.1 76.1947 214.464 80.8153 214.828 85.436L219.19 84.8495C217.103 79.4469 215.024 74.0354 212.936 68.6328C212.047 66.3225 208.733 66.6246 208.573 69.2193C208.378 72.4093 208.182 75.5905 207.996 78.7805L212.136 77.6609C209.968 72.7114 207.8 67.762 205.624 62.8126C205.188 61.8174 203.758 61.5064 202.852 61.9062C201.794 62.3683 201.341 63.4079 201.563 64.5276C202.336 68.4018 203.1 72.2849 203.873 76.1591L207.934 74.4442C205.553 70.0279 203.171 65.6205 200.79 61.2043C200.266 60.2446 198.987 59.8714 198.018 60.2979C196.943 60.7688 196.535 61.7996 196.73 62.9192C197.503 67.3266 198.276 71.7251 199.049 76.1325L202.763 73.9732C199.431 69.6814 196.615 64.9807 194.296 60.0669C193.878 59.1872 192.67 58.8051 191.79 59.045C190.777 59.3205 190.271 60.2002 190.155 61.1865C189.507 66.9978 190.529 72.7914 192.874 78.1318L196.712 75.8926C193.656 70.3389 190.609 64.7853 187.552 59.2316C186.344 57.0368 182.755 58.5207 183.492 60.9466C185.136 66.3225 186.779 71.6984 188.414 77.0744L192.474 75.3594C189.462 69.5392 186.451 63.7278 183.439 57.9076C182.452 55.9971 179.13 56.8324 179.298 59.0272C179.805 65.7183 181.582 72.1694 184.558 78.1762L188.396 75.937C185.1 70.1523 181.804 64.3676 178.508 58.5918C178.019 57.7388 176.935 57.3122 176.002 57.5699C174.98 57.8543 174.501 58.7251 174.367 59.7114C173.479 66.4913 174.918 73.449 178.259 79.4025L182.097 77.1633C178.605 71.5741 175.123 65.9937 171.631 60.4045C170.307 58.2897 166.913 59.6403 167.571 62.1195C168.912 67.1489 170.245 72.1783 171.587 77.2166L175.647 75.5016C172.839 70.8987 170.032 66.2958 167.224 61.693C166.007 59.7025 163.279 60.6889 163.084 62.8126C162.622 67.7798 163.83 72.8181 166.425 77.0655L170.263 74.8263C167.473 70.6321 164.683 66.438 161.893 62.235C160.543 60.2002 157.113 61.4264 157.833 63.95C159.272 68.9971 160.703 74.0443 162.142 79.0915L166.202 77.3765C163.475 72.9158 160.747 68.464 158.029 64.0033C156.971 62.2706 153.631 62.8126 153.888 65.1229C154.395 69.5925 154.901 74.071 155.408 78.5406L159.548 77.4209C157.495 74.2043 155.443 70.9787 153.391 67.762C152.316 66.0737 148.984 66.5446 149.251 68.8816C149.615 72.125 149.979 75.3594 150.352 78.6028L154.492 77.4831C153.089 74.613 151.685 71.7429 150.281 68.8727C149.588 67.4599 147.109 67.3799 146.443 68.8727C144.95 72.2227 144.648 75.9281 145.937 79.4025L149.997 77.6875C148.931 75.5105 147.865 73.3334 146.798 71.1653C145.732 68.9971 142.738 70.2234 142.658 72.2849C142.552 75.315 142.436 78.3362 142.329 81.3663L146.47 80.2466C145.466 77.9985 144.453 75.7415 143.449 73.4934C142.667 71.7518 139.771 72.2405 139.389 74.0265C138.776 76.8967 138.171 79.7668 137.558 82.6369L141.619 82.1038C140.668 80.4332 139.717 78.7627 138.758 77.1011C137.621 75.1017 134.742 76.097 134.618 78.2207C134.475 80.6998 134.333 83.179 134.191 85.667L138.331 84.5474C137.461 83.2678 136.599 81.9883 135.728 80.7087C134.546 78.9671 131.561 79.5091 131.588 81.8283C131.632 84.965 131.668 88.0929 131.712 91.2296L135.506 89.6568C134.484 88.4927 133.463 87.3198 132.45 86.1557C131.17 84.6896 128.62 85.8714 128.656 87.7285C128.691 89.7989 128.736 91.8605 128.771 93.9309L132.112 92.0115L129.287 90.3854C126.799 88.9637 124.56 92.7935 127.048 94.2241L127.039 94.2063Z" fill="black"/>
<path d="M128.781 118.838C128.603 122.792 128.425 126.737 128.239 130.692C128.15 132.735 130.673 133.464 132.032 132.264L139.424 125.742L135.631 124.169C135.382 130.265 135.142 136.37 134.893 142.465C134.822 144.278 137.461 145.549 138.687 144.038C140.233 142.146 141.77 140.244 143.316 138.351L139.602 137.374C141.104 142.927 142.614 148.49 144.116 154.044C144.604 155.839 147.27 156.283 148.176 154.577C149.313 152.435 150.45 150.303 151.588 148.161L147.527 147.628C149.455 153.431 151.383 159.224 153.32 165.027C153.871 166.679 156.51 167.399 157.38 165.56C158.42 163.356 159.468 161.152 160.508 158.94L156.447 158.407C158.073 162.272 159.699 166.137 161.334 170.012C162.054 171.718 164.31 172.304 165.394 170.545C166.887 168.119 168.38 165.702 169.872 163.276H166.034C168.255 166.937 170.467 170.589 172.689 174.25C173.373 175.379 175.23 175.823 176.18 174.703C177.575 173.042 178.961 171.389 180.356 169.727H177.211C179.539 172.5 181.875 175.272 184.203 178.053C185.092 179.111 187.091 178.817 187.695 177.6L190.813 171.344L187.322 171.798C189.098 173.708 190.884 175.619 192.661 177.529C194.154 179.128 197.059 177.476 196.375 175.37C196.126 174.606 195.833 173.806 195.735 173.006C195.655 172.411 195.78 171.691 196.029 171.504C196.171 171.389 196.633 171.193 196.997 171.158C197.379 171.122 197.654 171.22 197.788 171.344C199.085 172.544 200.915 171.94 201.501 170.367C202.461 167.772 203.412 165.187 204.371 162.592L201.111 163.916C202.55 164.982 203.989 166.048 205.428 167.115C206.441 167.861 207.845 167.221 208.467 166.315C209.809 164.36 211.15 162.414 212.483 160.459C213.158 159.473 212.669 157.998 211.683 157.42C210.582 156.781 209.329 157.225 208.645 158.22C207.303 160.175 205.962 162.121 204.629 164.076L207.667 163.276C206.228 162.21 204.789 161.143 203.349 160.077C202.097 159.153 200.533 160.202 200.089 161.401C199.129 163.996 198.179 166.582 197.219 169.176L200.933 168.199C198.872 166.279 195.629 166.297 193.408 167.959C190.609 170.056 191.151 173.637 192.102 176.56L195.815 174.401C194.038 172.491 192.253 170.58 190.476 168.67C189.543 167.675 187.615 167.861 186.984 169.123C185.944 171.211 184.905 173.29 183.865 175.379L187.357 174.925C185.029 172.153 182.693 169.381 180.365 166.599C179.636 165.737 177.948 165.737 177.22 166.599C175.825 168.261 174.439 169.914 173.044 171.575L176.536 172.029C174.314 168.368 172.102 164.716 169.881 161.055C169.001 159.606 166.922 159.624 166.043 161.055C164.55 163.48 163.058 165.897 161.565 168.323L165.625 168.856C163.999 164.991 162.374 161.126 160.739 157.251C160.383 156.416 159.859 155.776 158.891 155.661C158.073 155.563 157.06 155.919 156.678 156.718C155.639 158.922 154.591 161.126 153.551 163.338L157.611 163.871C155.683 158.069 153.755 152.275 151.819 146.473C151.25 144.758 148.7 144.171 147.758 145.94C146.621 148.081 145.484 150.214 144.347 152.355L148.407 152.889C146.905 147.335 145.395 141.772 143.893 136.219C143.494 134.726 141.264 133.908 140.18 135.241C138.634 137.134 137.097 139.035 135.551 140.928L139.345 142.501C139.593 136.405 139.833 130.301 140.082 124.205C140.162 122.161 137.656 121.433 136.288 122.632C133.827 124.809 131.357 126.977 128.896 129.154L132.69 130.727C132.868 126.773 133.045 122.828 133.232 118.873C133.365 116.012 128.923 116.021 128.79 118.873L128.781 118.838Z" fill="black"/>
<path d="M225.187 133.091C226.6 133.562 228.013 134.024 229.425 134.495C230.474 134.841 231.638 134.175 232.046 133.206C232.482 132.176 232.082 131.02 231.14 130.434C230.918 130.301 230.705 130.158 230.483 130.016C230.367 129.936 230.243 129.856 230.127 129.776C229.861 129.59 230.083 129.812 230.172 129.812C230.012 129.812 229.736 129.385 229.612 129.288C229.399 129.101 229.79 129.581 229.648 129.35C229.576 129.234 229.505 129.119 229.434 129.003C229.257 128.719 229.408 129.057 229.461 129.083C229.372 129.039 229.399 128.532 229.39 128.906C229.372 129.225 229.408 128.879 229.39 128.808C229.39 128.639 229.381 128.701 229.345 129.003L229.381 128.843C229.559 128.523 229.265 128.897 229.319 128.95C229.301 128.932 229.496 128.657 229.505 128.63C229.541 128.577 229.745 128.292 229.55 128.55C229.337 128.835 229.639 128.452 229.665 128.426C230.563 127.342 231.202 126.258 231.238 124.8C231.273 123.343 230.731 122.135 230.198 120.899C229.736 119.824 228.084 119.504 227.16 120.1C226.049 120.819 225.872 121.992 226.36 123.139C226.245 122.863 226.289 122.961 226.378 123.183C226.431 123.325 226.485 123.459 226.538 123.601C226.627 123.85 226.707 124.107 226.769 124.365C226.787 124.418 226.796 124.48 226.804 124.534C226.831 124.703 226.831 124.649 226.787 124.374C226.804 124.374 226.804 124.685 226.804 124.711C226.84 125.191 226.902 124.463 226.831 124.711C226.76 124.96 226.813 125.014 226.875 124.747C226.849 124.854 226.751 124.978 226.698 125.076C226.662 125.138 226.449 125.396 226.653 125.156C226.875 124.889 226.591 125.227 226.547 125.28C226.467 125.378 226.387 125.476 226.307 125.573C225.818 126.178 225.41 126.755 225.161 127.502C224.725 128.834 225.045 130.443 225.827 131.58C226.609 132.718 227.728 133.535 228.91 134.264L230.625 130.203L226.387 128.799C225.285 128.435 223.908 129.225 223.65 130.354C223.375 131.58 224.024 132.691 225.205 133.091H225.187Z" fill="black"/>
    </symbol>
    <symbol id="avatar__sleep" viewBox="0 0 320 320">
      <path d="M124.643 132.138C119.556 136.096 111.972 132.527 110.35 125.665C109.602 122.527 109.823 119.399 110.333 116.27C111.343 110.143 112.829 104.171 115.759 98.657C117.441 95.5025 119.793 93.1172 123.394 92.4776C125.687 92.0714 127.7 92.7715 129.144 94.8284C131.259 90.6108 133.823 86.7045 136.838 83.1092C143.777 74.8297 152.304 68.6936 161.926 64.0612C167.684 61.2956 173.68 59.1955 179.871 57.6744C180.873 57.4325 181.799 57.3287 182.563 58.2621C182.724 58.4523 183.115 58.5214 183.395 58.5214C200.627 58.5646 213.468 66.8182 223.09 80.793C225.545 84.3624 227.286 88.4329 229.426 92.2356C230.173 93.5666 231.073 94.8284 232.016 96.021C232.789 96.9976 233.171 97.8964 232.356 99.0286C232.211 99.236 232.194 99.6422 232.279 99.9015C234.216 106.21 235.523 112.64 236.008 119.235C236.008 119.347 236.084 119.451 236.169 119.649C239.141 118.725 241.791 119.459 244.194 121.343C247.09 123.616 248.534 126.762 248.798 130.323C249.384 138.352 248.781 146.303 245.893 153.874C243.872 159.171 240.381 163.277 235.031 165.334C231.277 166.777 227.489 166.604 223.846 164.763C223.302 164.487 222.92 164.288 222.343 164.901C215.905 171.686 208.016 175.774 198.988 177.658C186.622 180.242 174.784 178.254 163.403 173.094C151.115 167.52 140.66 159.474 132.6 148.412C129.135 143.667 126.52 138.464 124.915 132.76C124.855 132.544 124.736 132.337 124.643 132.112V132.138ZM222.462 126.736C222.283 126.589 222.164 126.486 222.046 126.382C221.043 125.475 220.899 124.403 221.638 123.435C222.309 122.545 223.184 122.51 224.322 123.314C224.704 123.59 225.094 123.858 225.477 124.135C226.988 125.224 227.158 125.907 226.351 127.566C226.147 127.989 225.952 128.422 225.723 128.906C226.564 129.493 227.379 130.038 228.169 130.625C229.621 131.714 229.545 133.244 228.007 134.186C227.039 134.774 226.063 135.344 225.035 135.958C225.731 137.496 225.774 138.939 225.035 140.4C224.823 140.815 224.789 141.42 224.891 141.887C225.103 142.863 224.959 143.632 224.075 144.142C221.986 145.344 220.907 147.141 220.823 149.596C220.789 150.65 219.948 151.497 218.98 151.393C217.714 151.255 217.757 152.076 217.944 152.785C218.198 153.735 218.648 154.643 219.082 155.533C220.177 157.797 220.262 160.044 219.082 162.309C219.022 162.43 219.005 162.577 218.963 162.715C219.056 162.758 219.158 162.81 219.251 162.853C219.574 162.231 219.837 161.565 220.237 160.995C220.644 160.407 221.145 159.889 221.655 159.388C221.893 159.154 222.326 159.111 222.521 158.852C224.593 156.181 226.3 153.295 227.659 150.218C226.012 148.55 225.978 147.824 227.787 146.432C229.349 145.231 230.258 143.762 230.589 141.817C230.869 140.167 231.337 138.551 231.591 136.9C231.693 136.217 231.379 135.474 231.362 134.757C231.345 134.16 231.421 133.538 231.566 132.95C231.77 132.129 232.271 131.351 232.313 130.539C232.993 118.932 231.184 107.714 227.124 96.8594C226.903 96.2803 226.572 95.7099 226.164 95.2432C222.453 90.9566 218.699 86.7131 215.014 82.4092C214.36 81.6486 213.723 81.3289 212.712 81.3289C197.085 81.3548 181.459 81.3202 165.832 81.3375C160.338 81.3375 154.843 81.3807 149.348 81.5622C146.053 81.6659 143.48 83.2907 141.891 86.2551C140.677 88.528 139.641 90.9047 138.571 93.2468C137.407 95.779 136.21 98.294 134.299 100.368C132.847 101.941 132.482 102.053 130.545 101.293C130.52 101.319 130.477 101.336 130.46 101.371C130.401 101.474 130.35 101.578 130.307 101.69C124.592 117.428 125.883 132.328 135.581 146.156C141.62 154.764 149.543 161.246 158.529 166.379C169.586 172.706 181.349 176.111 194.164 174.581C201.739 173.673 208.695 171.055 214.895 166.466C215.048 166.353 215.2 166.224 215.124 166.284C212.967 166.647 210.674 167.269 208.364 167.373C205.646 167.486 203.2 168.004 201.043 169.802C199.778 170.856 198.249 170.173 197.952 168.54C197.824 167.857 197.756 167.166 197.654 166.397C194.478 167.632 191.404 168.842 188.338 170.026C185.136 171.262 184.932 171.159 184.007 167.797C181.238 169.733 178.317 171.089 175.03 169.318C171.675 167.511 170.801 164.642 172.278 160.935C170.546 161.151 170.062 162.326 169.561 163.432C169.094 164.452 168.457 165.092 167.276 164.789C166.147 164.504 165.73 163.648 165.722 162.551C165.713 161.773 165.722 160.986 165.722 159.967C164.363 160.796 163.166 161.401 162.113 162.196C160.185 163.666 158.715 162.144 158.622 160.373C158.571 159.474 158.393 158.575 158.257 157.581C156.592 158.178 155.021 158.229 153.501 157.434C151.981 156.639 151.182 155.248 150.622 153.718C148.473 154.055 147.768 153.476 147.539 151.324C147.369 149.76 147.157 148.196 146.962 146.562C146.69 146.683 146.528 146.718 146.418 146.813C144.813 148.299 142.843 146.83 143.004 144.842C143.114 143.563 142.902 142.258 142.817 140.763C142.401 141.152 142.129 141.368 141.908 141.627C141.144 142.509 140.303 143.036 139.123 142.448C137.917 141.852 138.138 140.806 138.257 139.752C138.477 137.755 138.647 135.759 138.86 133.529C138.554 133.789 138.418 133.866 138.333 133.979C137.628 134.921 136.821 135.526 135.624 134.869C134.656 134.333 134.435 133.443 134.851 131.948C135.369 130.081 135.887 128.214 136.397 126.347C136.32 126.287 136.244 126.235 136.167 126.175C135.564 126.849 134.961 127.523 134.341 128.18C133.594 128.966 132.728 129.173 131.794 128.569C130.97 128.033 130.741 127.255 131.012 126.287C132.278 121.758 133.509 117.23 134.783 112.701C135.157 111.387 136.015 110.903 137.17 111.232C138.325 111.56 138.775 112.442 138.426 113.747C137.874 115.821 137.305 117.886 136.745 119.952C136.838 120.03 136.923 120.099 137.017 120.177C137.688 119.408 138.316 118.604 139.029 117.886C139.981 116.927 141.433 117.109 141.993 118.31C142.231 118.828 142.214 119.563 142.078 120.133C141.628 122.018 141.068 123.876 140.541 125.777C142.86 125.768 143.437 126.468 143.174 128.707C142.928 130.859 142.741 133.028 142.503 135.491C142.911 135.119 143.08 134.964 143.25 134.817C144.601 133.711 146.214 134.342 146.469 136.096C146.562 136.727 146.562 137.367 146.571 138.006C146.588 139.259 146.571 140.512 146.571 141.895C149.161 140.728 150.078 141.238 150.435 143.797C150.673 145.482 150.868 147.176 151.089 148.939C151.42 148.818 151.65 148.757 151.853 148.662C152.686 148.256 153.475 148.334 154.146 148.956C154.843 149.596 154.86 150.391 154.537 151.264C154.053 152.569 154.393 153.467 155.463 153.951C156.49 154.409 157.127 154.116 157.9 152.819C158.503 151.808 159.556 151.307 160.355 151.895C160.915 152.309 161.365 153.096 161.544 153.796C161.849 154.971 161.892 156.216 162.07 157.59C163.319 156.821 164.423 156.147 165.518 155.472C167.998 153.951 169.077 154.47 169.433 157.348C169.433 157.417 169.51 157.478 169.501 157.46C170.393 157.348 171.259 157.071 172.083 157.149C175.319 157.46 176.839 160.338 175.65 162.845C174.86 164.504 175.701 165.774 177.51 166.155C178.775 166.422 179.973 166.12 180.958 165.334C182.13 164.409 183.217 163.363 184.278 162.3C184.932 161.643 185.731 161.202 186.47 161.704C187.064 162.11 187.506 162.931 187.735 163.657C187.947 164.322 187.777 165.117 187.777 166.042C191.251 164.685 194.461 163.441 197.671 162.188C200.168 161.211 200.899 161.635 201.281 164.314C201.298 164.461 201.374 164.599 201.493 164.936C204.321 163.251 207.455 163.709 210.453 163.251C211.812 163.043 213.205 162.542 214.385 161.833C216.169 160.753 216.483 159.215 215.651 157.279C215.226 156.294 214.725 155.334 214.368 154.323C213.451 151.687 214.351 149.181 216.678 147.694C216.899 147.556 217.145 147.375 217.247 147.158C217.986 145.603 218.691 144.039 219.43 142.414C218.631 141.93 218.113 141.109 218.513 139.994C218.886 138.948 219.702 138.62 220.78 138.741C221.069 138.775 221.392 138.395 221.706 138.205C221.527 137.937 221.417 137.583 221.171 137.401C219.413 136.113 219.447 134.722 221.307 133.616C222.054 133.166 222.81 132.726 223.6 132.259C221.856 130.801 221.457 128.957 222.402 126.728L222.462 126.736ZM237.782 148.075C239.965 148.049 241.604 145.3 244.127 147.504C244.5 143.676 244.848 140.115 245.205 136.554C245.103 136.52 245.001 136.485 244.891 136.45C243.88 137.341 242.87 138.239 242.114 138.905C242.836 139.544 243.685 140.011 244.084 140.737C244.619 141.705 243.812 142.414 243.124 143.045C241.366 144.678 239.625 146.337 237.782 148.075ZM115.224 111.353C114.341 115.181 113.331 118.967 113.713 122.925C113.891 124.792 114.392 126.589 115.861 128.024C116.159 127.402 116.413 126.875 116.677 126.33C114.418 125.76 114.163 125.224 114.953 122.968C114.995 122.839 115.004 122.64 114.936 122.545C114.214 121.508 114.817 120.756 115.42 119.978C115.827 119.451 116.201 118.898 116.6 118.344C114.486 117.325 114.222 116.149 115.632 114.291C116.133 113.634 116.626 112.986 117.11 112.355C116.481 112.018 115.904 111.707 115.233 111.344L115.224 111.353ZM171.735 64.0699C172.66 65.7551 174.189 65.8589 175.276 64.5971C175.599 64.2254 176.457 64.3032 177.077 64.2254C177.357 64.1909 177.79 64.4501 177.909 64.3378C178.784 63.413 179.726 63.655 180.661 64.0612C181.102 63.5686 181.51 63.1106 181.892 62.6871C181.289 62.5402 180.669 62.3759 180.049 62.2377C179.591 62.134 179.089 61.9006 178.682 62.013C176.389 62.6439 174.113 63.3525 171.735 64.0612V64.0699ZM121.416 122.043C121.679 122.597 122.163 123.124 122.07 123.495C121.755 124.74 121.237 125.933 120.864 126.952C121.823 127.583 122.774 128.197 123.675 128.793C123.445 124.515 123.216 120.367 122.995 116.175C122.596 116.702 122.163 117.29 121.73 117.861C123.258 119.615 123.258 119.693 121.416 122.043ZM225.511 161.246C228.441 162.991 233.451 162.689 235.294 160.926C234.538 160.52 233.697 160.07 232.61 159.483C232.075 159.699 231.201 160.036 230.351 160.425C228.959 161.064 227.583 161.747 226.504 159.863C226.105 160.416 225.833 160.805 225.511 161.254V161.246ZM205.74 68.7109C203.107 67.3972 200.525 66.1095 197.952 64.8218L197.671 65.2798C197.918 65.4786 198.139 65.7984 198.402 65.8502C199.625 66.0836 199.981 66.87 199.88 68.0195C199.846 68.3911 199.88 68.7627 199.88 69.2035C201.663 67.6997 202.877 67.9849 203.727 69.9208C204.321 69.5665 204.924 69.1948 205.748 68.7022L205.74 68.7109ZM182.894 62.4624C182.852 62.5834 182.818 62.6957 182.775 62.8167C184.525 63.4822 186.283 64.1476 188.066 64.8304C189.034 62.7648 190.334 62.9377 191.786 63.9143C191.625 62.8686 186.852 62.1772 182.886 62.471L182.894 62.4624ZM236.245 127.868C237.689 126.278 238.904 124.921 240.126 123.573C240.05 123.426 239.974 123.279 239.906 123.132C238.674 123.297 237.451 123.452 236.245 123.608V127.868ZM195.226 77.4311C195.294 76.6101 195.353 75.8322 195.412 75.0458C195.107 75.1322 195.013 75.2532 194.92 75.3742C193.765 76.9212 193.17 77.0508 191.446 76.2125C190.903 75.9532 190.317 75.7804 189.722 75.5557C189.391 76.1952 189.094 76.7743 188.754 77.4225H195.226V77.4311ZM244.925 129.925C243.931 131.092 243.022 132.146 242.207 133.106H245.188C245.103 132.06 245.018 131.014 244.933 129.925H244.925ZM127.904 97.4384C127.369 97.3779 126.919 97.3347 126.622 97.3001C126.384 98.052 126.171 98.7348 125.942 99.4521C126.231 99.5299 126.588 99.6249 126.961 99.7286C127.284 98.9335 127.581 98.2162 127.895 97.4384H127.904ZM243.558 126.209C242.895 126.71 242.258 127.194 241.732 127.592C242.632 127.756 243.515 127.929 244.5 128.11C244.135 127.367 243.778 126.65 243.566 126.209H243.558ZM243.133 150.503C243.065 150.46 242.997 150.417 242.929 150.373C242.19 150.935 241.46 151.506 240.695 152.093C241.18 152.465 241.613 152.793 242.131 153.2C242.487 152.24 242.81 151.376 243.124 150.512L243.133 150.503ZM119.148 100.143C119.25 100.239 119.36 100.334 119.462 100.429C120.566 99.2274 121.67 98.0261 122.774 96.8248C122.647 96.7124 122.52 96.5914 122.401 96.4791C121.314 97.6977 120.235 98.9249 119.148 100.143Z" fill="black"/>
<path d="M175.038 49.3285C187.675 48.9136 200.363 51.0915 212.041 57.4783C228.729 66.6047 239.285 80.5536 242.903 99.6275C243.897 104.83 243.854 110.119 243.099 115.374C242.886 116.861 242.215 117.526 241.12 117.379C239.846 117.215 239.192 116.264 239.353 114.778C241.46 96.1446 234.886 80.9253 221.408 68.6616C212.907 60.918 202.682 56.5276 191.506 54.4621C178.469 52.0508 165.628 52.8632 153.102 57.3746C144.201 60.5809 136.634 65.7318 131.241 73.8039C128.057 78.5832 126.086 83.8205 125.789 89.6369C125.772 89.9912 125.738 90.3628 125.653 90.7085C125.407 91.7024 124.405 92.3592 123.394 92.1691C122.324 91.979 121.874 91.2617 121.933 90.1986C122.154 86.0157 122.995 81.9797 124.651 78.1338C129.415 67.0887 137.721 59.8031 148.422 55.1103C156.736 51.4631 165.484 49.7865 175.021 49.3285H175.038Z" fill="black"/>
<path d="M186.274 132.38C186.86 132.354 187.446 132.328 188.041 132.294C189.026 132.224 189.748 132.553 189.943 133.624C190.156 134.774 189.603 135.923 188.559 136.044C185.264 136.416 181.935 136.554 178.996 134.601C176.754 133.106 175.658 130.798 175.811 128.154C176.015 124.584 176.542 121.024 177.009 117.472C177.569 113.168 178.223 108.872 178.818 104.569C179.039 103.004 179.794 102.226 181.017 102.365C182.181 102.503 182.784 103.531 182.563 105.122C181.833 110.411 181.068 115.7 180.338 120.989C180.049 123.081 179.701 125.172 179.591 127.281C179.412 130.513 180.864 132.086 184.049 132.337C184.788 132.397 185.535 132.337 186.283 132.337V132.389L186.274 132.38Z" fill="black"/>
<path d="M197.476 118.518C199.548 121.154 203.115 122.683 206.419 122.268C209.723 121.854 212.941 119.788 214.513 116.634C215.014 115.622 214.81 114.248 213.748 113.678C212.78 113.159 211.379 113.375 210.844 114.456C210.708 114.732 210.563 115 210.402 115.251C210.309 115.389 210.215 115.536 210.122 115.674C210.258 115.493 210.173 115.605 210.079 115.717C209.85 115.968 209.629 116.219 209.383 116.452C209.281 116.547 209.179 116.634 209.077 116.72C209.298 116.53 209.052 116.737 208.95 116.815C208.704 116.988 208.449 117.152 208.186 117.299C208.041 117.377 207.888 117.455 207.735 117.532C207.43 117.688 208.007 117.429 207.693 117.558C207.413 117.671 207.124 117.766 206.835 117.844C206.674 117.887 206.512 117.921 206.351 117.956C206.266 117.973 205.825 118.025 206.224 117.982C205.918 118.008 205.612 118.025 205.298 118.025C205.162 118.025 205.026 118.025 204.89 118.008C204.746 117.999 204.432 117.956 204.738 118.008C204.135 117.913 203.532 117.748 202.963 117.506C203.285 117.645 202.869 117.455 202.818 117.429C202.665 117.351 202.512 117.264 202.368 117.178C202.249 117.109 202.13 117.031 202.02 116.962C201.977 116.936 201.553 116.634 201.731 116.772C201.875 116.884 201.57 116.642 201.544 116.616C201.417 116.504 201.289 116.383 201.171 116.262C200.924 116.02 200.703 115.752 200.491 115.484C199.778 114.568 198.232 114.724 197.485 115.484C196.602 116.383 196.763 117.627 197.485 118.544L197.476 118.518Z" fill="black"/>
<path d="M151.08 122.225C154.223 123.616 157.458 124.904 160.932 124.049C163.802 123.34 166.401 121.283 167.726 118.595C168.227 117.584 168.023 116.21 166.962 115.639C166.002 115.121 164.592 115.337 164.057 116.417C163.938 116.659 163.811 116.901 163.675 117.126C163.607 117.238 163.531 117.351 163.454 117.463C163.114 117.982 163.59 117.316 163.361 117.593C163.021 118.007 162.639 118.388 162.231 118.733C161.968 118.949 162.461 118.569 162.18 118.768C162.044 118.863 161.909 118.958 161.764 119.053C161.535 119.2 161.306 119.33 161.068 119.451C160.949 119.511 160.83 119.572 160.703 119.624C160.906 119.537 160.796 119.58 160.652 119.632C160.371 119.727 160.083 119.822 159.794 119.892C159.666 119.926 159.539 119.952 159.403 119.978C159.361 119.978 158.962 120.038 159.191 120.012C159.42 119.987 159.021 120.013 158.979 120.021C158.843 120.021 158.715 120.03 158.579 120.038C157.824 120.038 157.526 119.995 156.864 119.84C155.556 119.529 154.299 118.993 153.212 118.509C152.193 118.059 150.885 118.172 150.307 119.287C149.823 120.22 149.985 121.758 151.072 122.242L151.08 122.225Z" fill="black"/>
<path d="M199.379 105.649C201.553 105.321 203.727 104.992 205.901 104.664C206.393 104.586 206.929 104.085 207.166 103.67C207.43 103.203 207.548 102.52 207.379 102.002C207.209 101.483 206.895 100.973 206.402 100.714C205.867 100.429 205.366 100.403 204.763 100.498C202.589 100.826 200.415 101.155 198.24 101.483C197.748 101.561 197.213 102.062 196.975 102.477C196.712 102.944 196.593 103.627 196.763 104.145C196.933 104.664 197.247 105.174 197.739 105.433C198.274 105.718 198.776 105.744 199.379 105.649Z" fill="black"/>
<path d="M154.062 109.728L160.584 108.752C161.077 108.683 161.612 108.173 161.849 107.758C162.113 107.291 162.232 106.608 162.062 106.09C161.892 105.571 161.578 105.061 161.085 104.802C160.55 104.508 160.049 104.491 159.446 104.586C157.272 104.914 155.098 105.234 152.924 105.563C152.431 105.632 151.896 106.142 151.658 106.556C151.395 107.023 151.276 107.706 151.446 108.224C151.616 108.743 151.93 109.253 152.422 109.512C152.958 109.806 153.459 109.823 154.062 109.728Z" fill="black"/>
<path d="M199.795 156.337L200.33 156.008C200.576 155.87 200.78 155.689 200.924 155.455C201.111 155.248 201.238 155.006 201.306 154.721C201.391 154.435 201.408 154.15 201.34 153.856C201.323 153.571 201.247 153.303 201.085 153.053L200.754 152.612C200.491 152.344 200.177 152.162 199.82 152.059L199.26 151.981C198.877 151.981 198.521 152.085 198.189 152.275L197.654 152.603C197.408 152.741 197.204 152.923 197.06 153.156C196.873 153.364 196.746 153.606 196.678 153.891C196.593 154.176 196.576 154.461 196.644 154.755C196.661 155.04 196.737 155.308 196.899 155.559L197.23 156C197.493 156.268 197.807 156.449 198.164 156.553L198.724 156.631C199.107 156.631 199.463 156.527 199.795 156.337Z" fill="black"/>
<path d="M176.907 149.803C176.499 150.002 176.049 150.114 175.726 150.382C174.087 151.739 172.304 151.221 170.512 150.918C170.266 150.875 170.002 150.97 169.748 151.031C169.374 151.117 168.992 151.212 168.627 151.333C168.244 151.454 167.794 151.523 167.505 151.765C166.775 152.379 166.045 152.552 165.212 152.05C164.389 151.558 164.278 150.815 164.491 149.933C164.694 149.112 164.83 148.274 165.026 147.444C165.331 146.13 166.478 145.508 167.684 146.044C168.61 146.45 169.374 146.519 170.24 145.767C170.597 145.456 171.412 145.646 172.015 145.69C172.44 145.724 172.839 145.906 173.264 145.992C173.51 146.044 173.858 145.923 174.002 146.061C174.979 146.977 175.777 146.286 176.601 145.811C177.077 145.543 177.544 145.249 178.028 145.015C178.283 144.894 178.639 144.713 178.835 144.808C179.743 145.24 180.652 145.197 181.595 145.024C182.096 144.938 182.605 144.92 183.115 144.869C183.183 144.869 183.268 144.799 183.327 144.817C184.686 145.344 186.096 145.102 187.489 145.076C187.905 145.067 188.372 145.05 188.729 144.869C189.332 144.549 189.85 143.797 190.436 143.762C191.854 143.676 193.553 143.391 194.648 143.952C195.837 144.557 196.72 144.652 197.858 144.324C198.045 144.272 198.351 144.289 198.478 144.41C199.345 145.214 200.296 144.791 201.238 144.687C201.774 144.627 202.334 144.557 202.861 144.652C204.72 144.964 206.58 145.309 208.423 145.698C209.561 145.94 210.113 146.917 209.867 148.032C209.646 149.008 208.967 149.389 207.752 149.181C206.861 149.026 205.96 148.861 205.086 148.645C203.064 148.135 201.086 148.179 199.064 148.766C198.453 148.948 197.705 148.602 197.018 148.542C196.61 148.507 196.177 148.49 195.786 148.576C194.657 148.809 193.536 149.639 192.432 148.498C192.364 148.429 192.092 148.498 191.947 148.576C191.251 148.913 190.606 149.207 189.773 148.879C189.493 148.766 188.941 149.198 188.593 149.475C187.837 150.08 187.073 150.452 186.087 150.08C185.884 150.002 185.535 150.14 185.323 150.287C184.907 150.581 184.55 150.953 184.143 151.273C183.149 152.05 182.019 151.903 181.298 150.866C180.797 150.14 180.338 149.829 179.455 150.408C178.537 151.005 177.646 150.642 176.915 149.812L176.907 149.803Z" fill="black"/>
<path d="M129.475 40.3979C132.872 38.7731 136.269 37.1483 139.666 35.5149L136.55 33.0777C135.106 37.2434 133.662 41.409 132.218 45.5747C131.938 46.3785 132.346 47.3637 132.983 47.8477C133.721 48.4094 134.52 48.3835 135.344 48.0205C138.418 46.6464 141.501 45.2722 144.575 43.8894C145.628 43.4227 145.866 41.8584 145.34 40.9337C144.703 39.8275 143.488 39.6892 142.435 40.1559C139.361 41.53 136.278 42.9042 133.203 44.287L136.32 46.7242C137.764 42.5585 139.208 38.3928 140.652 34.2272C140.932 33.4234 140.524 32.4382 139.887 31.9542C139.165 31.4011 138.333 31.4011 137.526 31.7813C134.129 33.4061 130.732 35.0309 127.335 36.6643C126.299 37.1569 126.027 38.678 126.571 39.62C127.191 40.7004 128.431 40.8905 129.475 40.3979Z" fill="black"/>
<path d="M149.068 33.2765C152.575 31.0209 156.083 28.7565 159.59 26.5009L156.473 24.0637C155.505 27.9614 154.546 31.8592 153.577 35.7569C153.136 37.5459 155.081 39.1966 156.694 38.1941C160.89 35.61 165.085 33.0346 169.28 30.4505C171.616 29.0158 169.484 25.2736 167.14 26.7169C162.945 29.301 158.75 31.8765 154.554 34.4606L157.671 36.8977C158.639 33 159.599 29.1022 160.567 25.2045C161 23.4414 159.064 21.7302 157.45 22.7673C153.943 25.023 150.435 27.2873 146.928 29.543C144.626 31.0295 146.749 34.763 149.068 33.2765Z" fill="black"/>
<path d="M160.261 13.7534C164.125 11.8261 167.989 9.89023 171.853 7.96296L168.737 5.52579C167.539 9.28526 167.853 14.0645 172.049 15.6375C176.244 17.2104 179.845 14.1682 182.512 11.3076C184.389 9.28526 181.391 6.22583 179.505 8.24816C178.087 9.76924 176.074 12.1978 173.73 11.6447C171.582 11.1347 172.354 8.17038 172.83 6.66659C173.442 4.74797 171.267 3.4516 169.713 4.22942C165.849 6.15669 161.985 8.0926 158.121 10.0199C157.093 10.5298 156.813 12.0249 157.356 12.9756C157.968 14.0473 159.225 14.2633 160.261 13.7534Z" fill="black"/>
<path d="M186.036 21.4973L185.128 22.4393C183.667 23.9517 185.128 26.6655 187.191 26.0519C190.053 25.1962 192.924 24.3493 195.786 23.4937L193.17 20.8318C191.82 26.3975 190.469 31.9546 189.119 37.5204C188.644 39.4909 190.588 40.7095 192.236 39.9576C196.635 37.9698 201.026 35.9734 205.425 33.9856C206.47 33.5103 206.724 31.9547 206.189 31.0299C205.561 29.9323 204.338 29.7768 203.285 30.2521C198.886 32.2399 194.495 34.2363 190.096 36.224L193.213 38.6612C194.563 33.0955 195.913 27.5384 197.264 21.9726C197.646 20.4083 196.244 18.844 194.648 19.3107C191.786 20.1663 188.915 21.0133 186.053 21.8689L188.117 25.4814L189.026 24.5394C190.937 22.5517 187.939 19.4922 186.019 21.48L186.036 21.4973Z" fill="black"/>
<path d="M108.914 168.877C109.441 166.846 111.054 165.342 112.795 164.236C114.791 162.965 117.263 161.764 119.624 161.479C121.73 161.228 123.726 162.931 125.11 164.391C126.639 166.008 127.692 167.987 128.668 169.974C129.823 172.325 131.641 174.192 133.645 175.817C135.649 177.441 137.679 178.911 139.802 180.276C143.768 182.834 148.159 183.595 152.618 184.788C154.868 185.384 157.093 185.963 159.378 186.412C161.365 186.801 163.386 187.173 165.28 187.907C166.656 188.435 167.93 189.308 168.558 190.63C169.391 192.376 168.83 194.882 168.023 196.801C166.868 199.549 165.11 202.003 163.709 204.613C162.427 206.99 161.323 209.462 160.304 211.959C158.384 216.661 156.626 221.362 154.078 225.761C153.238 227.213 152.584 228.613 152.083 230.23C151.887 230.869 151.7 231.509 151.497 232.14C151.403 232.442 151.301 232.745 151.199 233.047C151.131 233.229 151.072 233.41 151.004 233.592C150.979 233.669 150.673 234.395 150.851 233.989C150.163 235.571 149.603 236.504 148.439 237.558C148.032 237.921 147.344 238.388 146.605 238.734C145.866 239.079 144.711 239.399 143.751 239.555C143.038 239.667 141.9 239.702 141.458 239.65C140.804 239.572 140.244 239.356 139.641 238.993C138.367 238.224 137.093 236.651 136.048 235.19C134.053 232.408 132.354 229.581 129.917 227.17C124.609 221.933 118.443 217.499 112.294 213.36C106.044 209.151 99.5213 205.089 92.5403 202.245C91.3514 201.761 90.1284 201.312 88.88 201.001C88.2261 200.837 87.5466 200.759 86.9012 200.551C86.2558 200.344 85.6613 199.929 85.1177 199.333C84.7186 198.892 84.2939 198.218 83.9712 197.457C84.1071 197.786 83.8353 197.077 83.8523 197.103C83.8014 196.956 83.7589 196.809 83.7079 196.662C83.5551 196.144 83.4362 195.617 83.3513 195.081C83.3258 194.899 83.2833 194.562 83.2578 194.087C83.2408 193.733 83.2324 193.37 83.2408 193.015C83.2408 192.808 83.2578 192.609 83.2748 192.402C83.2748 192.332 83.3513 191.684 83.2748 192.211C83.3258 191.831 83.3937 191.434 83.5126 191.071C84.0901 189.273 86.0349 188.357 87.674 187.726C90.0435 186.81 92.5319 186.188 94.7315 184.857C96.3451 183.871 97.6954 182.549 98.9948 181.175C100.821 179.23 102.766 177.433 104.642 175.549C106.519 173.665 108.235 171.539 108.923 168.885C109.611 166.232 105.526 165.048 104.829 167.736C104.133 170.424 101.916 172.256 100.031 174.054C98.2474 175.756 96.5914 177.588 94.8334 179.326C93.483 180.665 91.9713 181.633 90.001 182.359C87.5806 183.249 84.9818 183.889 82.8417 185.401C80.8374 186.827 79.5126 188.772 79.1559 191.252C78.8756 193.214 78.9775 195.21 79.4276 197.138C79.8777 199.065 80.8289 201.096 82.2642 202.556C83.6995 204.017 85.5339 204.657 87.5382 205.123C88.7951 205.417 90.0265 205.858 91.224 206.342C91.3938 206.411 91.5722 206.48 91.742 206.558C92.328 206.8 91.3514 206.385 91.9459 206.644C92.311 206.809 92.6847 206.973 93.0499 207.137C93.8992 207.526 94.74 207.941 95.5722 208.364C99.1052 210.17 102.536 212.193 105.891 214.319C112.727 218.649 119.318 223.255 125.237 228.648C126.333 229.651 127.411 230.679 128.405 231.794C128.753 232.183 129.093 232.589 129.416 232.995C128.991 232.459 129.501 233.116 129.585 233.254C130.053 233.946 130.503 234.655 130.97 235.355C133.339 238.881 136.091 243.167 140.592 243.859C144.796 244.507 149.671 242.899 152.439 239.546C154.596 236.928 155.369 233.721 156.431 230.567C156.533 230.264 156.643 229.962 156.754 229.668C156.533 230.247 156.89 229.409 156.966 229.262C157.696 227.896 158.529 226.582 159.242 225.2C160.499 222.763 161.569 220.239 162.58 217.698C163.522 215.339 164.406 212.953 165.459 210.637C166.699 207.915 168.176 205.357 169.688 202.79C172.431 198.132 175.115 191.9 171.293 187.026C168.567 183.552 163.701 182.878 159.692 182.091C157.348 181.633 155.089 180.95 152.771 180.371C150.452 179.792 148.176 179.377 145.959 178.591C143.743 177.804 141.789 176.465 139.853 175.117C137.789 173.673 135.717 172.204 134.01 170.329C132.303 168.453 131.598 166.085 130.239 164.054C128.813 161.928 127.072 160.087 124.915 158.731C123.683 157.953 122.392 157.322 120.94 157.175C119.394 157.019 117.798 157.382 116.337 157.866C113.687 158.756 111.114 160.01 108.906 161.764C106.986 163.302 105.432 165.299 104.804 167.736C104.107 170.424 108.201 171.573 108.897 168.885L108.914 168.877Z" fill="black"/>
<path d="M143.182 229.858C139.794 226.22 138.18 219.798 139.063 214.898C139.607 211.873 141.322 209.142 143.14 206.74C145.288 203.905 147.845 201.407 150.384 198.936C152.923 196.464 156.116 193.154 159.93 194.329L158.664 191.157C155.947 195.487 153.552 199.981 151.378 204.614C149.985 207.587 148.516 210.568 147.369 213.654C146.358 216.367 145.687 219.193 144.796 221.95C143.836 224.923 142.52 227.672 140.218 229.806L143.225 232.866C143.496 232.598 143.76 232.313 144.031 232.045C145.993 230.109 142.995 227.049 141.025 228.985C140.753 229.253 140.49 229.538 140.218 229.806C138.248 231.751 141.212 234.733 143.225 232.866C147.726 228.692 148.932 222.668 150.715 217.007C151.675 213.956 153.059 211.078 154.401 208.183C155.556 205.694 156.736 203.214 158.019 200.785C159.301 198.356 160.813 195.772 162.333 193.335C163.089 192.125 162.333 190.552 161.068 190.163C156.762 188.832 152.685 191.054 149.509 193.88C146.537 196.524 143.649 199.411 141.11 202.479C138.571 205.547 136.201 208.874 135.207 212.677C134.35 215.978 134.537 219.539 135.25 222.849C136.04 226.514 137.628 230.161 140.184 232.909C142.07 234.931 145.067 231.872 143.191 229.85L143.182 229.858Z" fill="black"/>
<path d="M130.435 178.038C127.055 181.02 125.135 185.73 125.45 190.267C125.526 191.391 126.367 192.48 127.573 192.428C128.66 192.376 129.781 191.477 129.696 190.267C129.662 189.792 129.654 189.325 129.671 188.85C129.679 188.599 129.696 188.348 129.722 188.098C129.722 188.055 129.722 187.787 129.755 187.769C129.722 187.787 129.688 188.202 129.755 187.847C129.934 186.879 130.189 185.963 130.537 185.038C130.647 184.753 130.375 185.367 130.52 185.09C130.571 184.995 130.613 184.891 130.656 184.788C130.766 184.563 130.877 184.338 130.995 184.122C131.225 183.707 131.471 183.31 131.734 182.921C131.794 182.826 131.862 182.74 131.93 182.653C132.108 182.402 131.7 182.93 131.896 182.696C132.057 182.506 132.21 182.316 132.38 182.126C132.711 181.754 133.068 181.409 133.441 181.08C134.282 180.337 134.248 178.773 133.441 178.021C132.541 177.182 131.335 177.226 130.435 178.021V178.038Z" fill="black"/>
<path d="M129.603 179.317C129.569 182.973 130.409 186.542 131.981 189.817C132.465 190.837 133.976 191.192 134.885 190.595C135.913 189.921 136.167 188.729 135.649 187.64C135.547 187.432 135.454 187.233 135.361 187.017C135.327 186.948 135.072 186.43 135.31 186.905C135.14 186.559 135.021 186.153 134.894 185.79C134.647 185.064 134.443 184.321 134.274 183.569C134.197 183.206 134.121 182.843 134.061 182.48C134.044 182.368 133.917 181.616 134.01 182.212C133.985 182.048 133.968 181.875 133.951 181.702C133.866 180.907 133.84 180.112 133.84 179.317C133.849 178.185 132.855 177.104 131.717 177.156C130.579 177.208 129.603 178.107 129.594 179.317H129.603Z" fill="black"/>
    </symbol>
  </defs>

  <use
    href="#avatar__collision"
    x="0"
    y="0"
    width="320"
    height="320"
  />
  <use
    href="#avatar__sleep"
    x="320"
    y="0"
    width="320"
    height="320"
  />
</svg>
