<svg width="759" height="623" viewBox="0 0 759 623" fill="none" xmlns="http://www.w3.org/2000/svg">
<path d="M595.949 52.4501C607.829 63.6501 617.099 75.08 628.169 86.66C634.299 93.07 653.559 108.47 656.749 115.02C657.829 117.23 658.359 120.7 658.569 123.19L658.719 232.93C659.359 235.05 672.329 242.7 675.199 244.43C689.819 253.23 706.139 260.86 720.389 270.17C728.809 275.66 730.509 278.83 733.379 288.15C742.679 318.4 748.069 351.41 756.309 382.11C755.309 407.25 758.079 434 756.479 458.95C755.749 470.29 754.679 473.87 747.099 482.04C724.009 506.91 696.339 529.4 673.869 555.17C614.799 580.15 553.189 600.28 492.079 620.14L263.509 620.18C202.969 598.67 140.519 580.03 82.0588 553.87L7.71883 479.34C-1.36117 465.64 3.04883 450.9 3.21883 435.97C3.41883 418.47 1.12883 394.55 3.22883 378.04C5.34883 361.41 14.3688 336.65 18.8888 319.78C22.0488 307.99 25.6988 280.12 35.2088 273.16C52.0388 260.85 76.6288 251.26 94.4188 239.46C98.4188 236.38 100.649 234.39 101.129 229.18C104.279 194.97 98.2788 156.39 101.569 121.73C105.659 108.16 117.909 100.87 127.099 91.29C142.469 75.26 160.589 50.08 180.469 40.8C193.299 34.8 210.389 30.98 223.929 26.32C252.479 16.49 283.789 2.47005 314.339 2.12005C364.589 1.55005 414.959 3.25005 464.729 2.25005C497.779 14.05 531.989 22.8601 564.899 35.0401C579.419 40.4201 584.639 41.78 595.949 52.44V52.4501Z" stroke="black" stroke-width="4" stroke-miterlimit="10"/>
</svg>
