<svg width="320" height="320" viewBox="0 0 320 320" fill="none" xmlns="http://www.w3.org/2000/svg">
<rect width="320" height="320" fill="#D9D9D9"/>
<path d="M123.316 133.477C118.11 137.42 110.348 133.864 108.688 127.028C107.923 123.903 108.149 120.787 108.671 117.67C109.705 111.566 111.226 105.617 114.225 100.125C115.946 96.9822 118.353 94.6061 122.039 93.969C124.385 93.5643 126.445 94.2617 127.923 96.3107C130.087 92.1094 132.712 88.218 135.798 84.6366C142.899 76.389 151.626 70.2765 161.474 65.6619C167.367 62.907 173.503 60.815 179.84 59.2997C180.865 59.0587 181.813 58.9554 182.595 59.8852C182.76 60.0746 183.16 60.1434 183.447 60.1434C201.083 60.1865 214.225 68.4083 224.073 82.3294C226.585 85.8849 228.366 89.9399 230.557 93.7279C231.322 95.0537 232.243 96.3107 233.208 97.4988C233.999 98.4716 234.39 99.367 233.556 100.495C233.408 100.701 233.39 101.106 233.477 101.364C235.459 107.649 236.798 114.054 237.293 120.623C237.293 120.735 237.371 120.838 237.458 121.036C240.5 120.115 243.212 120.847 245.672 122.724C248.636 124.988 250.114 128.122 250.383 131.669C250.983 139.667 250.366 147.587 247.41 155.129C245.342 160.406 241.769 164.496 236.293 166.545C232.452 167.982 228.575 167.81 224.846 165.976C224.29 165.701 223.899 165.503 223.308 166.114C216.719 172.872 208.645 176.944 199.405 178.821C186.75 181.395 174.633 179.415 162.986 174.276C150.409 168.723 139.709 160.707 131.461 149.688C127.914 144.961 125.237 139.779 123.595 134.096C123.534 133.881 123.412 133.675 123.316 133.451V133.477ZM223.429 128.096C223.247 127.949 223.125 127.846 223.004 127.743C221.978 126.839 221.83 125.771 222.586 124.807C223.273 123.92 224.168 123.886 225.333 124.687C225.724 124.962 226.124 125.229 226.515 125.504C228.062 126.589 228.236 127.269 227.41 128.922C227.202 129.344 227.002 129.775 226.767 130.257C227.628 130.842 228.462 131.385 229.27 131.97C230.757 133.055 230.678 134.579 229.105 135.517C228.114 136.102 227.115 136.671 226.063 137.282C226.776 138.814 226.819 140.252 226.063 141.707C225.846 142.12 225.811 142.723 225.915 143.188C226.133 144.161 225.985 144.927 225.081 145.435C222.943 146.631 221.839 148.422 221.752 150.867C221.717 151.917 220.857 152.761 219.866 152.658C218.571 152.52 218.614 153.338 218.805 154.044C219.066 154.991 219.527 155.895 219.97 156.782C221.091 159.037 221.178 161.276 219.97 163.531C219.909 163.652 219.892 163.798 219.848 163.936C219.944 163.979 220.048 164.031 220.144 164.074C220.474 163.454 220.744 162.791 221.152 162.223C221.569 161.637 222.082 161.121 222.604 160.621C222.847 160.389 223.29 160.346 223.49 160.088C225.611 157.427 227.358 154.552 228.749 151.487C227.063 149.825 227.028 149.102 228.879 147.716C230.479 146.52 231.409 145.056 231.748 143.119C232.034 141.475 232.512 139.865 232.773 138.22C232.878 137.54 232.556 136.8 232.539 136.085C232.521 135.491 232.599 134.871 232.747 134.286C232.956 133.468 233.469 132.693 233.512 131.884C234.207 120.322 232.356 109.147 228.201 98.3338C227.975 97.757 227.636 97.1888 227.219 96.7239C223.421 92.4538 219.579 88.2266 215.807 83.9393C215.137 83.1817 214.486 82.8631 213.451 82.8631C197.458 82.8889 181.465 82.8545 165.472 82.8717C159.848 82.8717 154.225 82.9148 148.601 83.0956C145.229 83.1989 142.595 84.8174 140.97 87.7704C139.727 90.0346 138.666 92.4021 137.571 94.7352C136.38 97.2577 135.155 99.763 133.199 101.829C131.713 103.396 131.339 103.508 129.357 102.75C129.331 102.776 129.288 102.793 129.27 102.828C129.209 102.931 129.157 103.034 129.114 103.146C123.264 118.824 124.585 133.666 134.512 147.441C140.691 156.015 148.801 162.472 157.997 167.586C169.314 173.888 181.352 177.28 194.468 175.756C202.221 174.852 209.34 172.244 215.685 167.672C215.841 167.56 215.998 167.431 215.92 167.492C213.712 167.853 211.365 168.473 209.001 168.576C206.22 168.688 203.716 169.205 201.509 170.995C200.213 172.046 198.649 171.366 198.345 169.739C198.214 169.058 198.145 168.37 198.04 167.603C194.79 168.835 191.643 170.04 188.506 171.219C185.229 172.45 185.02 172.347 184.073 168.998C181.239 170.927 178.249 172.278 174.885 170.513C171.452 168.714 170.557 165.856 172.069 162.162C170.296 162.378 169.801 163.549 169.288 164.651C168.81 165.666 168.158 166.303 166.95 166.002C165.794 165.718 165.368 164.866 165.359 163.772C165.35 162.998 165.359 162.214 165.359 161.198C163.968 162.025 162.743 162.627 161.665 163.419C159.692 164.883 158.188 163.368 158.093 161.603C158.04 160.707 157.858 159.812 157.719 158.822C156.015 159.416 154.407 159.468 152.851 158.676C151.296 157.884 150.479 156.498 149.905 154.974C147.706 155.31 146.984 154.733 146.75 152.589C146.576 151.031 146.359 149.472 146.159 147.845C145.881 147.966 145.715 148 145.602 148.095C143.96 149.576 141.943 148.112 142.108 146.132C142.221 144.858 142.004 143.558 141.917 142.069C141.491 142.456 141.213 142.671 140.987 142.929C140.205 143.808 139.344 144.333 138.136 143.747C136.902 143.153 137.128 142.112 137.249 141.061C137.475 139.073 137.649 137.084 137.867 134.863C137.554 135.121 137.415 135.198 137.328 135.31C136.606 136.249 135.781 136.851 134.555 136.197C133.564 135.663 133.338 134.777 133.764 133.287C134.294 131.428 134.824 129.568 135.346 127.708C135.268 127.648 135.19 127.597 135.111 127.536C134.494 128.208 133.877 128.879 133.243 129.534C132.478 130.317 131.591 130.524 130.635 129.921C129.792 129.387 129.557 128.612 129.835 127.648C131.13 123.137 132.391 118.626 133.694 114.115C134.077 112.806 134.955 112.324 136.137 112.651C137.319 112.978 137.78 113.856 137.423 115.156C136.858 117.222 136.276 119.28 135.702 121.338C135.798 121.415 135.885 121.484 135.98 121.561C136.667 120.795 137.31 119.995 138.04 119.28C139.014 118.324 140.5 118.505 141.074 119.702C141.317 120.218 141.3 120.95 141.161 121.518C140.7 123.395 140.126 125.246 139.588 127.14C141.96 127.132 142.552 127.829 142.282 130.059C142.03 132.202 141.839 134.363 141.595 136.817C142.013 136.447 142.186 136.292 142.36 136.145C143.742 135.043 145.394 135.672 145.655 137.42C145.75 138.048 145.75 138.685 145.759 139.322C145.776 140.571 145.759 141.819 145.759 143.196C148.41 142.034 149.349 142.542 149.714 145.09C149.957 146.769 150.157 148.457 150.383 150.213C150.722 150.092 150.957 150.032 151.165 149.937C152.017 149.533 152.825 149.61 153.512 150.23C154.225 150.867 154.242 151.659 153.912 152.529C153.416 153.829 153.764 154.724 154.859 155.206C155.911 155.662 156.563 155.37 157.354 154.078C157.971 153.071 159.049 152.572 159.866 153.157C160.439 153.57 160.9 154.354 161.083 155.051C161.396 156.222 161.439 157.462 161.622 158.831C162.899 158.064 164.029 157.393 165.15 156.721C167.688 155.206 168.792 155.723 169.157 158.59C169.157 158.658 169.236 158.719 169.227 158.702C170.14 158.59 171.026 158.314 171.869 158.392C175.181 158.702 176.737 161.568 175.52 164.065C174.711 165.718 175.572 166.984 177.423 167.362C178.718 167.629 179.944 167.328 180.952 166.545C182.152 165.623 183.264 164.582 184.351 163.523C185.02 162.868 185.837 162.429 186.593 162.929C187.202 163.333 187.654 164.151 187.888 164.874C188.106 165.537 187.932 166.329 187.932 167.25C191.487 165.899 194.772 164.659 198.058 163.411C200.613 162.438 201.361 162.86 201.752 165.529C201.769 165.675 201.848 165.813 201.969 166.148C204.864 164.47 208.071 164.926 211.139 164.47C212.53 164.263 213.955 163.764 215.163 163.058C216.989 161.982 217.31 160.449 216.459 158.521C216.024 157.539 215.511 156.584 215.146 155.576C214.207 152.951 215.129 150.454 217.51 148.973C217.736 148.835 217.988 148.655 218.093 148.439C218.849 146.89 219.57 145.331 220.326 143.713C219.509 143.231 218.979 142.413 219.388 141.302C219.77 140.261 220.605 139.933 221.708 140.054C222.004 140.088 222.334 139.71 222.656 139.52C222.473 139.253 222.36 138.9 222.108 138.72C220.309 137.437 220.344 136.051 222.247 134.949C223.012 134.501 223.786 134.062 224.594 133.597C222.809 132.145 222.401 130.308 223.369 128.087L223.429 128.096ZM239.11 149.352C241.343 149.326 243.021 146.588 245.602 148.784C245.985 144.97 246.341 141.423 246.706 137.876C246.602 137.841 246.498 137.807 246.385 137.773C245.35 138.659 244.316 139.555 243.542 140.218C244.281 140.855 245.15 141.32 245.559 142.043C246.107 143.007 245.281 143.713 244.577 144.341C242.778 145.969 240.996 147.622 239.11 149.352ZM113.677 112.771C112.773 116.585 111.739 120.356 112.13 124.299C112.312 126.159 112.825 127.949 114.329 129.379C114.633 128.759 114.894 128.234 115.163 127.691C112.851 127.123 112.591 126.589 113.399 124.342C113.442 124.213 113.451 124.015 113.382 123.92C112.643 122.887 113.26 122.138 113.877 121.363C114.294 120.838 114.677 120.287 115.085 119.736C112.921 118.72 112.651 117.55 114.094 115.699C114.607 115.044 115.111 114.399 115.607 113.77C114.963 113.434 114.372 113.124 113.686 112.763L113.677 112.771ZM171.513 65.6705C172.46 67.3493 174.025 67.4527 175.137 66.1957C175.468 65.8255 176.346 65.903 176.98 65.8255C177.267 65.7911 177.71 66.0494 177.832 65.9374C178.727 65.0162 179.692 65.2573 180.648 65.6619C181.1 65.1712 181.517 64.7149 181.908 64.2931C181.291 64.1467 180.657 63.9831 180.022 63.8454C179.553 63.7421 179.04 63.5096 178.623 63.6216C176.276 64.25 173.947 64.956 171.513 65.6619V65.6705ZM120.013 123.421C120.283 123.972 120.778 124.497 120.683 124.867C120.361 126.107 119.831 127.295 119.449 128.311C120.431 128.94 121.404 129.551 122.326 130.145C122.091 125.883 121.856 121.751 121.63 117.575C121.222 118.101 120.778 118.686 120.335 119.254C121.9 121.002 121.9 121.079 120.013 123.421ZM226.55 162.472C229.549 164.211 234.677 163.91 236.563 162.154C235.789 161.749 234.929 161.302 233.816 160.716C233.269 160.931 232.373 161.267 231.504 161.654C230.079 162.292 228.671 162.972 227.567 161.095C227.158 161.646 226.88 162.033 226.55 162.481V162.472ZM206.315 70.2937C203.621 68.9851 200.978 67.7023 198.345 66.4195L198.058 66.8758C198.31 67.0738 198.536 67.3924 198.805 67.444C200.057 67.6765 200.422 68.4599 200.318 69.605C200.283 69.9751 200.318 70.3453 200.318 70.7844C202.143 69.2864 203.386 69.5705 204.255 71.499C204.864 71.146 205.481 70.7758 206.324 70.2851L206.315 70.2937ZM182.934 64.0692C182.891 64.1898 182.856 64.3017 182.812 64.4222C184.603 65.0851 186.402 65.748 188.227 66.4282C189.218 64.3706 190.548 64.5427 192.034 65.5156C191.869 64.4739 186.984 63.7851 182.925 64.0778L182.934 64.0692ZM237.536 129.224C239.014 127.64 240.257 126.288 241.509 124.945C241.43 124.799 241.352 124.652 241.283 124.506C240.022 124.669 238.771 124.824 237.536 124.979V129.224ZM195.555 78.9804C195.624 78.1625 195.685 77.3877 195.746 76.6042C195.433 76.6903 195.337 76.8109 195.242 76.9314C194.06 78.4724 193.451 78.6016 191.687 77.7665C191.13 77.5082 190.531 77.336 189.922 77.1122C189.583 77.7493 189.279 78.3261 188.931 78.9718H195.555V78.9804ZM246.419 131.273C245.403 132.435 244.473 133.485 243.638 134.441H246.689C246.602 133.399 246.515 132.357 246.428 131.273H246.419ZM126.654 98.9107C126.106 98.8504 125.646 98.8074 125.342 98.7729C125.098 99.5219 124.881 100.202 124.646 100.917C124.942 100.994 125.307 101.089 125.689 101.192C126.02 100.4 126.324 99.6855 126.645 98.9107H126.654ZM245.02 127.571C244.342 128.07 243.69 128.552 243.151 128.948C244.073 129.112 244.977 129.284 245.985 129.465C245.611 128.724 245.246 128.01 245.029 127.571H245.02ZM244.586 151.771C244.516 151.728 244.446 151.685 244.377 151.642C243.621 152.202 242.873 152.77 242.091 153.355C242.586 153.725 243.03 154.053 243.56 154.457C243.925 153.502 244.255 152.641 244.577 151.78L244.586 151.771ZM117.693 101.605C117.797 101.7 117.91 101.795 118.014 101.889C119.144 100.693 120.274 99.4961 121.404 98.2994C121.274 98.1875 121.143 98.067 121.022 97.955C119.909 99.1689 118.805 100.391 117.693 101.605Z" fill="black"/>
<path d="M184.255 135.057C184.855 135.032 185.455 135.006 186.063 134.971C187.071 134.902 187.81 135.23 188.01 136.297C188.227 137.442 187.662 138.587 186.593 138.708C183.221 139.078 179.814 139.216 176.806 137.27C174.512 135.781 173.39 133.482 173.547 130.848C173.755 127.292 174.294 123.745 174.772 120.207C175.346 115.919 176.015 111.64 176.624 107.353C176.85 105.795 177.623 105.02 178.875 105.158C180.066 105.295 180.683 106.32 180.457 107.904C179.709 113.173 178.927 118.442 178.18 123.71C177.884 125.794 177.528 127.877 177.415 129.978C177.232 133.198 178.718 134.765 181.978 135.014C182.734 135.075 183.499 135.014 184.264 135.014V135.066L184.255 135.057Z" fill="black"/>
<path d="M176.841 48.2456C189.775 47.8324 202.76 50.0019 214.712 56.3641C231.791 65.4554 242.595 79.3506 246.298 98.3511C247.315 103.534 247.271 108.803 246.498 114.037C246.28 115.518 245.594 116.181 244.473 116.034C243.169 115.871 242.499 114.924 242.665 113.443C244.82 94.8816 238.093 79.7208 224.299 67.5044C215.598 59.7905 205.133 55.4171 193.695 53.3595C180.353 50.9575 167.21 51.7668 154.39 56.2608C145.281 59.4548 137.536 64.5858 132.017 72.6268C128.758 77.3877 126.741 82.6049 126.437 88.3989C126.419 88.7519 126.385 89.1221 126.298 89.4664C126.046 90.4565 125.02 91.1108 123.986 90.9214C122.89 90.732 122.43 90.0174 122.491 88.9585C122.717 84.7916 123.577 80.7711 125.272 76.94C130.148 65.9375 138.649 58.6799 149.601 54.0051C158.11 50.3721 167.063 48.7019 176.824 48.2456H176.841Z" fill="black"/>
<path d="M198.206 115.776C201.169 120.037 206.289 122.147 211.435 121.337C212.565 121.165 213.286 119.71 212.956 118.686C212.556 117.472 211.487 116.99 210.279 117.179C209.861 117.248 210.583 117.153 210.305 117.179C210.2 117.179 210.096 117.196 209.992 117.205C209.757 117.222 209.514 117.231 209.279 117.239C208.818 117.239 208.314 117.127 207.862 117.162C208.323 117.127 208.079 117.188 207.888 117.162C207.784 117.145 207.68 117.127 207.575 117.102C207.341 117.05 207.115 116.998 206.88 116.938C206.628 116.869 206.376 116.792 206.124 116.705C206.028 116.671 205.924 116.637 205.828 116.602C205.767 116.576 205.35 116.387 205.646 116.533C205.915 116.662 205.594 116.507 205.541 116.482C205.42 116.43 205.307 116.37 205.185 116.309C204.976 116.206 204.768 116.086 204.559 115.965C204.351 115.845 204.151 115.715 203.96 115.586C203.873 115.526 203.786 115.466 203.699 115.405C203.368 115.173 203.899 115.578 203.699 115.405C203.334 115.096 202.977 114.794 202.656 114.45C202.491 114.278 202.343 114.097 202.186 113.925C201.952 113.658 202.247 113.976 202.23 113.994C202.23 113.994 201.969 113.623 201.952 113.606C201.309 112.685 200.013 112.168 198.979 112.831C198.049 113.425 197.51 114.786 198.197 115.776H198.206Z" fill="black"/>
<path d="M152.904 121.148C158.597 121.854 164.464 119.805 168.61 115.93C169.462 115.13 169.427 113.692 168.61 112.883C167.793 112.074 166.393 112.082 165.533 112.883C165.316 113.089 165.098 113.287 164.872 113.477C164.759 113.572 164.646 113.666 164.533 113.761C164.473 113.813 164.264 113.968 164.446 113.83C163.942 114.209 163.412 114.553 162.865 114.872C162.352 115.173 161.822 115.44 161.283 115.689C161.248 115.707 160.883 115.862 161.031 115.801C161.178 115.741 160.805 115.887 160.77 115.896C160.457 116.017 160.144 116.128 159.822 116.223C159.257 116.404 158.675 116.55 158.093 116.679C157.797 116.74 157.51 116.791 157.215 116.843C157.093 116.86 156.893 116.886 157.128 116.86C156.98 116.877 156.832 116.895 156.685 116.903C155.424 117.024 154.155 116.998 152.895 116.834C151.765 116.697 150.67 117.928 150.722 118.987C150.783 120.27 151.678 120.984 152.895 121.139L152.904 121.148Z" fill="black"/>
<path d="M204.803 105.264C205.194 105.264 205.585 105.264 205.968 105.307C206.054 105.307 206.141 105.333 206.228 105.333C206.15 105.333 205.733 105.256 206.037 105.307C206.228 105.342 206.42 105.376 206.611 105.419C206.993 105.505 207.367 105.609 207.732 105.729C207.897 105.781 208.114 105.919 208.28 105.927C208.201 105.927 207.845 105.738 208.123 105.858C208.219 105.901 208.323 105.944 208.419 105.996C208.749 106.151 209.071 106.332 209.383 106.521C209.549 106.624 209.714 106.728 209.87 106.84C209.94 106.891 210.009 106.943 210.079 106.986C210.296 107.132 209.705 106.685 210.001 106.926C210.609 107.417 211.157 107.959 211.635 108.57C211.956 108.975 212.678 109.199 213.173 109.199C213.703 109.199 214.347 108.966 214.712 108.57C215.077 108.174 215.372 107.623 215.346 107.046C215.32 106.435 215.085 105.996 214.712 105.522C212.382 102.595 208.549 100.899 204.803 100.951C203.664 100.968 202.578 101.932 202.63 103.103C202.682 104.274 203.586 105.273 204.803 105.256V105.264Z" fill="black"/>
<path d="M158.327 101.313C156.58 101.054 154.807 101.123 153.13 101.726C151.452 102.328 149.974 103.241 148.81 104.55C148.062 105.393 147.906 106.771 148.81 107.597C149.635 108.346 151.078 108.501 151.887 107.597C152.217 107.227 152.582 106.926 152.947 106.599C152.486 107.02 152.73 106.771 152.869 106.667C152.964 106.607 153.051 106.538 153.147 106.478C153.356 106.349 153.564 106.228 153.781 106.116C153.877 106.065 153.981 106.013 154.086 105.97C154.259 105.893 154.659 105.798 154.033 105.987C154.251 105.927 154.459 105.824 154.668 105.763C155.137 105.617 155.615 105.514 156.093 105.454L155.52 105.531C156.233 105.445 156.945 105.445 157.649 105.531L157.076 105.454L157.189 105.471C157.788 105.557 158.319 105.574 158.866 105.256C159.318 104.997 159.744 104.481 159.866 103.973C159.996 103.422 159.961 102.802 159.648 102.311C159.362 101.872 158.892 101.399 158.353 101.321L158.327 101.313Z" fill="black"/>
<path d="M172.625 149.257C172.2 149.438 171.739 149.541 171.4 149.791C169.679 151.082 167.862 150.505 166.046 150.144C165.802 150.092 165.515 150.178 165.263 150.221C164.872 150.29 164.49 150.376 164.107 150.48C163.708 150.592 163.256 150.643 162.943 150.876C162.178 151.461 161.422 151.607 160.587 151.082C159.761 150.557 159.675 149.817 159.927 148.956C160.161 148.147 160.335 147.311 160.561 146.502C160.926 145.211 162.117 144.625 163.334 145.194C164.264 145.633 165.046 145.727 165.95 145.013C166.333 144.72 167.158 144.935 167.767 144.996C168.193 145.039 168.61 145.245 169.036 145.34C169.279 145.4 169.644 145.297 169.783 145.435C170.757 146.382 171.591 145.719 172.452 145.28C172.947 145.021 173.434 144.755 173.938 144.539C174.199 144.427 174.572 144.255 174.772 144.358C175.685 144.823 176.615 144.815 177.588 144.677C178.101 144.608 178.623 144.608 179.144 144.574C179.214 144.574 179.301 144.505 179.362 144.531C180.735 145.107 182.186 144.918 183.603 144.935C184.029 144.935 184.507 144.935 184.872 144.772C185.507 144.479 186.054 143.747 186.663 143.73C188.114 143.687 189.87 143.472 190.965 144.066C192.165 144.711 193.069 144.832 194.233 144.548C194.433 144.496 194.738 144.531 194.868 144.66C195.728 145.486 196.711 145.107 197.675 145.03C198.223 144.987 198.805 144.944 199.336 145.047C201.23 145.417 203.117 145.831 204.985 146.287C206.141 146.571 206.672 147.561 206.376 148.663C206.115 149.627 205.403 149.98 204.168 149.731C203.256 149.541 202.352 149.352 201.456 149.102C199.405 148.525 197.38 148.5 195.294 149.016C194.668 149.171 193.912 148.801 193.208 148.723C192.791 148.672 192.356 148.646 191.939 148.715C190.774 148.904 189.601 149.696 188.505 148.525C188.436 148.456 188.158 148.525 188.01 148.586C187.289 148.896 186.619 149.162 185.776 148.809C185.489 148.689 184.916 149.094 184.542 149.36C183.742 149.937 182.96 150.282 181.961 149.868C181.752 149.782 181.396 149.911 181.17 150.049C180.735 150.325 180.353 150.686 179.935 150.988C178.892 151.719 177.736 151.539 177.041 150.488C176.554 149.748 176.093 149.421 175.172 149.963C174.216 150.523 173.312 150.127 172.599 149.283L172.625 149.257Z" fill="black"/>
<path d="M184.568 159.941L197.119 155.499L194.668 154.509C194.824 154.775 194.972 155.042 195.12 155.318C195.163 155.395 195.494 156.075 195.398 155.843C195.52 156.127 195.589 156.42 195.676 156.721C195.728 156.979 195.728 157.005 195.693 156.79V157.005C195.702 157.152 195.693 157.289 195.693 157.436C195.72 157.22 195.702 157.238 195.65 157.496C195.572 157.737 195.563 157.763 195.624 157.565C195.485 157.789 195.476 157.806 195.607 157.625C195.424 157.789 195.433 157.797 195.641 157.642C195.546 157.711 195.441 157.771 195.337 157.823C195.772 157.565 195.172 157.823 195.085 157.875C194.929 157.909 194.963 157.901 195.207 157.875C195.085 157.883 194.955 157.892 194.833 157.892C194.711 157.892 194.581 157.892 194.459 157.875C194.72 157.909 194.729 157.901 194.477 157.857C194.372 157.823 193.686 157.53 194.112 157.754C193.886 157.634 193.668 157.513 193.451 157.367C193.329 157.281 193.329 157.289 193.451 157.375C193.338 157.281 193.225 157.186 193.121 157.091C192.903 156.893 192.695 156.687 192.504 156.471C192.312 156.256 192.112 156.024 191.921 155.8C191.826 155.688 191.739 155.567 191.643 155.456C191.756 155.602 191.73 155.567 191.573 155.369C190.887 154.474 189.67 153.914 188.601 154.595C187.714 155.163 187.08 156.583 187.819 157.539C188.896 158.934 189.983 160.337 191.53 161.267C193.077 162.197 194.92 162.481 196.589 161.947C198.597 161.31 199.813 159.605 200.013 157.556C200.205 155.679 199.327 153.94 198.414 152.348C197.971 151.573 196.849 151.048 195.963 151.358L183.412 155.8C182.343 156.179 181.517 157.281 181.891 158.452C182.23 159.493 183.421 160.363 184.568 159.958V159.941Z" fill="black"/>
<path d="M128.088 21.7983C131.174 31.5353 134.259 41.2637 137.336 51.0007C138.171 53.6351 142.334 52.5245 141.526 49.8557C140.804 47.4537 139.753 44.5007 140.683 42.0127C141.204 40.618 142.708 39.3094 144.116 39.473C144.62 39.5332 145.211 40.0584 145.602 40.6524C146.219 41.5822 146.602 42.6498 147.123 43.6312C148.305 45.8868 150.426 47.9186 153.147 47.8067C155.867 47.6948 155.946 43.3902 153.147 43.5021C152.113 43.5451 151.487 42.5465 151.026 41.7372C150.374 40.5836 149.94 39.318 149.183 38.216C147.541 35.8227 144.837 34.5829 141.96 35.4439C139.379 36.2101 137.31 38.3452 136.485 40.8591C135.398 44.1822 136.354 47.7722 137.328 50.9921L141.517 49.8471C138.432 40.1101 135.346 30.3817 132.269 20.6447C131.435 18.0102 127.236 19.138 128.079 21.7897L128.088 21.7983Z" fill="black"/>
<path d="M161.448 8.72933C163.421 18.4319 165.385 28.1258 167.358 37.8284L171.548 36.6834C170.705 34.1695 169.201 30.3642 171.608 28.2292C173.799 26.2835 175.19 29.2967 175.981 31.0272C177.189 33.6874 179.101 36.7953 182.465 36.7092C183.864 36.6748 185.316 36.0119 186.246 34.9702C187.445 33.6185 187.575 32.043 186.88 30.4245C186.419 29.357 184.829 29.1159 183.908 29.6497C182.795 30.2954 182.665 31.5265 183.125 32.594C183.004 32.4218 182.977 32.241 183.047 32.0603C183.143 31.9053 183.117 31.9397 182.977 32.1636C183.151 32.1205 182.708 32.3099 182.847 32.2238C182.621 32.3616 182.673 32.353 182.404 32.396C182.647 32.3616 182.03 32.3444 182.273 32.4046C181.196 32.1291 180.552 30.5795 180.127 29.6927C178.884 27.1014 177.562 24.1484 174.442 23.408C171.322 22.6676 168.28 24.6477 166.915 27.3338C165.22 30.6828 166.237 34.4622 167.367 37.8198C168.253 40.4542 172.113 39.3867 171.556 36.6748C169.583 26.9722 167.619 17.2783 165.646 7.5757C165.411 6.43928 164.047 5.77637 162.969 6.06909C161.769 6.39624 161.222 7.5757 161.448 8.72072V8.72933Z" fill="black"/>
<path d="M245.089 34.1159C244.959 34.2364 244.82 34.3569 244.681 34.4775C244.211 34.8649 245.037 34.245 244.507 34.598C244.22 34.7874 243.933 34.9682 243.638 35.1404C242.925 35.545 242.238 35.8635 241.673 36.0788C239.883 36.7675 238.014 37.2496 236.128 37.6026C232.712 38.2397 228.583 38.498 225.428 37.7748C225.063 37.6887 224.707 37.594 224.35 37.4821C224.229 37.439 224.107 37.396 223.985 37.3529C223.412 37.1463 224.359 37.5509 223.838 37.2927C223.021 36.888 222.308 36.3456 221.647 35.7344C220.031 34.245 218.736 32.3768 217.979 30.3192C216.415 26.0318 217.032 21.4776 219.692 17.7584C222.351 14.0392 226.889 11.6545 231.443 12.2055C236.493 12.8253 239.631 17.5173 241.552 21.7272C246.158 31.7828 245.724 43.7323 252.486 52.9011C255.841 57.4554 260.683 61.0024 266.437 61.6997C271.556 62.3196 277.884 59.7627 278.953 54.2442C279.17 53.1078 278.631 51.9197 277.432 51.5925C276.371 51.2998 274.981 51.9455 274.755 53.0992C273.912 57.4468 268.357 58.0408 264.794 56.9991C259.97 55.5786 256.397 51.6442 254.129 47.3482C248.749 37.1377 249.592 24.4908 242.656 14.9432C239.248 10.2512 234.242 7.22073 228.244 7.97834C222.916 8.64986 218.223 11.8611 215.407 16.3551C212.59 20.8491 211.999 26.1265 213.607 31.0079C215.059 35.3814 218.318 39.8668 222.812 41.5112C226.967 43.0264 231.895 42.6218 236.171 41.9502C240.448 41.2787 244.976 40.0734 248.123 37.1635C250.165 35.2695 247.088 32.2305 245.046 34.1159H245.089Z" fill="black"/>
<path d="M222.273 18.2236C228.949 21.5898 232.478 28.9937 230.626 36.234C229.94 38.9201 234.129 40.0651 234.816 37.3791C237.119 28.3566 232.869 18.7488 224.464 14.5044C223.421 13.9793 222.108 14.2289 221.491 15.2792C220.926 16.2435 221.222 17.6984 222.273 18.2236Z" fill="black"/>
<path d="M219.057 25.6185C220.457 25.6185 220.457 23.4662 219.057 23.4662C217.658 23.4662 217.658 25.6185 219.057 25.6185Z" fill="black"/>
<path d="M223.455 23.9399C224.855 23.9399 224.855 21.7876 223.455 21.7876C222.056 21.7876 222.056 23.9399 223.455 23.9399Z" fill="black"/>
<path d="M222.273 26.9792C223.673 26.9792 223.673 24.8269 222.273 24.8269C220.874 24.8269 220.874 26.9792 222.273 26.9792Z" fill="black"/>
<path d="M219.866 29.6136C221.265 29.6136 221.265 27.4613 219.866 27.4613C218.466 27.4613 218.466 29.6136 219.866 29.6136Z" fill="black"/>
<path d="M224.924 26.6432V26.6948C224.968 26.8326 225.037 26.9531 225.133 27.065C225.211 27.1856 225.316 27.2717 225.437 27.3405C225.559 27.418 225.698 27.4611 225.837 27.4697C225.985 27.5041 226.124 27.4955 226.272 27.4524L226.532 27.3405C226.698 27.2458 226.828 27.1167 226.924 26.9531L227.036 26.6948C227.089 26.5054 227.089 26.316 227.036 26.1266V26.075C226.993 25.9372 226.923 25.8167 226.828 25.7048C226.75 25.5843 226.645 25.4982 226.524 25.4293C226.402 25.3518 226.263 25.3088 226.124 25.3002C225.976 25.2657 225.837 25.2743 225.689 25.3174L225.428 25.4293C225.263 25.524 225.133 25.6531 225.037 25.8167L224.924 26.075C224.872 26.2644 224.872 26.4538 224.924 26.6432Z" fill="black"/>
<path d="M223.812 30.1817C225.211 30.1817 225.211 28.0294 223.812 28.0294C222.412 28.0294 222.412 30.1817 223.812 30.1817Z" fill="black"/>
<path d="M222.178 33.7114C223.577 33.7114 223.577 31.5591 222.178 31.5591C220.778 31.5591 220.778 33.7114 222.178 33.7114Z" fill="black"/>
<path d="M228.123 31.5762C229.522 31.5762 229.522 29.4239 228.123 29.4239C226.724 29.4239 226.724 31.5762 228.123 31.5762Z" fill="black"/>
<path d="M225.863 33.8919C227.263 33.8919 227.263 31.7396 225.863 31.7396C224.464 31.7396 224.464 33.8919 225.863 33.8919Z" fill="black"/>
<path d="M225.368 37.1635C226.767 37.1635 226.767 35.0112 225.368 35.0112C223.968 35.0112 223.968 37.1635 225.368 37.1635Z" fill="black"/>
<path d="M228.305 35.8208C229.705 35.8208 229.705 33.6685 228.305 33.6685C226.906 33.6685 226.906 35.8208 228.305 35.8208Z" fill="black"/>
<path d="M220.587 22.3901C221.986 22.3901 221.986 20.2378 220.587 20.2378C219.188 20.2378 219.188 22.3901 220.587 22.3901Z" fill="black"/>
<path d="M203.229 31.3093C200.883 34.3226 198.536 37.3358 196.18 40.3404C195.859 40.7536 195.833 41.5285 195.963 42.002C196.102 42.5013 196.493 43.0437 196.962 43.2847C197.467 43.5516 198.075 43.6808 198.64 43.5C199.205 43.3192 199.57 42.9834 199.935 42.5099C202.282 39.4967 204.629 36.4835 206.984 33.4789C207.306 33.0656 207.332 32.2908 207.202 31.8173C207.062 31.318 206.671 30.7756 206.202 30.5345C205.698 30.2676 205.089 30.1385 204.524 30.3193C203.959 30.5001 203.594 30.8358 203.229 31.3093Z" fill="black"/>
<path d="M211.148 41.1923C210.461 42.4234 209.766 43.6545 209.079 44.8857C208.801 45.3764 208.705 45.9962 208.862 46.5472C209.001 47.0466 209.392 47.5889 209.861 47.83C210.365 48.0969 210.974 48.226 211.539 48.0452C212.104 47.8644 212.556 47.5545 212.834 47.0552C213.521 45.8241 214.216 44.5929 214.903 43.3618C215.181 42.8711 215.276 42.2512 215.12 41.7002C214.981 41.2009 214.59 40.6585 214.12 40.4175C213.616 40.1506 213.008 40.0215 212.443 40.2022C211.878 40.383 211.426 40.693 211.148 41.1923Z" fill="black"/>
<path d="M191.165 88.3902L189.922 92.0836C189.748 92.6001 189.87 93.2889 190.14 93.7451C190.409 94.2014 190.922 94.6147 191.435 94.7352C191.991 94.8643 192.617 94.8299 193.112 94.52C193.608 94.21 193.929 93.7882 194.112 93.2372L195.355 89.5439C195.529 89.0273 195.407 88.3386 195.137 87.8823C194.868 87.426 194.355 87.0128 193.842 86.8922C193.286 86.7631 192.66 86.7975 192.165 87.1075C191.669 87.4174 191.348 87.8392 191.165 88.3902Z" fill="black"/>
<path d="M117.971 182.721C117.562 182.825 117.362 182.756 116.954 182.42C116.58 182.11 116.258 181.533 116.189 181.094C116.024 180.087 116.962 179.295 118.031 179.011C121.091 178.193 123.203 181.413 123.394 184.271L127.662 183.703C127.254 181.998 128.384 179.854 130.226 179.441C132.069 179.028 133.981 180.293 134.468 182.076C134.929 183.763 136.875 184.013 138.101 183.023C139.952 181.542 143.56 182.325 144.681 184.589C145.802 186.854 143.89 190.401 141.221 190.659C140.161 190.762 138.901 191.572 139.048 192.811C139.344 195.265 137.919 197.77 135.398 198.364C133.095 198.907 130.548 197.254 129.87 195.058L125.898 196.72C127.228 199.776 123.855 202.686 120.917 201.541C119.779 201.093 118.501 199.802 119.309 198.622C119.109 198.915 119.926 198.08 119.387 198.459C119.448 198.416 119.5 198.605 119.457 198.485C119.561 198.795 119.726 199.173 119.622 199.518C119.518 199.862 119.874 199.199 119.544 199.724C119.587 199.656 119.839 199.501 119.466 199.819C119.353 199.914 119.066 200.052 118.822 200.103C118.171 200.232 117.467 200.009 116.884 199.699C115.198 198.795 114.477 196.694 113.912 195.007C113.138 192.673 112.425 190.323 111.686 187.981C110.948 185.64 110.035 183.109 109.435 180.621C109.001 178.795 108.705 176.239 110.287 175.059C110.591 174.827 111.478 174.525 111.713 174.508C112.251 174.465 112.017 174.499 112.512 174.586C112.164 174.525 112.729 174.706 112.564 174.603C112.625 174.646 112.669 174.654 112.79 174.844C113.746 176.307 116.337 176.23 116.762 174.327C117.067 172.958 118.136 171.796 119.596 171.693C121.056 171.59 122.343 172.631 122.751 173.94C123.568 176.592 127.601 175.498 126.941 172.795C126.784 172.149 127.088 171.478 127.627 171.004C128.097 170.6 128.731 170.427 129.122 170.574C129.557 170.729 130 171.245 130.165 171.667C130.461 172.407 130.4 172.829 130.087 173.346C129.27 174.697 130.304 176.669 131.965 176.583C135.65 176.394 139.083 178.959 139.335 182.73C139.448 184.383 139.04 186.363 137.788 187.551C137.536 187.792 137.267 188.016 136.91 188.085C137.023 188.068 136.397 188.085 136.484 187.99C136.51 187.956 136.554 188.421 136.528 188.464C136.458 188.567 136.067 188.67 135.98 188.644L134.381 186.57C134.355 188.55 132.425 190.478 130.357 190.289C128.288 190.099 126.732 187.758 127.132 185.864L123.499 186.811C124.82 188.214 124.359 191.107 122.586 192.148C121.656 192.699 120.344 192.536 119.274 191.778C118.344 191.115 117.484 189.867 117.658 188.722C117.997 186.527 115.789 185.261 114.025 186.63C109.348 190.263 102.291 189.299 98.6747 184.719C97.0667 182.678 96.0063 179.872 96.3366 177.263C96.4061 176.746 96.5452 176.213 96.7972 175.748C96.945 175.481 97.1101 175.223 97.3709 175.05C97.4665 174.99 97.7446 174.887 97.5534 174.956C97.762 174.878 98.0836 174.896 98.2488 174.956C98.3878 175.025 98.5269 175.102 98.6573 175.188C98.5878 175.162 98.5356 175.119 98.5269 175.042C98.6573 175.266 98.6747 175.292 98.5878 175.119C98.5791 174.913 98.5704 174.947 98.5704 175.223L102.621 174.138C101.161 172.063 101.23 169.033 103.203 167.276C105.028 165.649 108.149 165.727 109.957 167.337C111.174 168.43 113.103 167.991 113.59 166.39C114.016 164.978 115.485 163.884 117.006 164.048C118.336 164.194 119.683 165.408 119.839 166.768C120.109 169.119 123.299 169.764 124.107 167.337C124.759 165.391 127.01 164.031 129.035 164.392C131.408 164.814 132.782 167.199 132.564 169.437C132.399 171.099 134.52 172.072 135.832 171.297C139.135 169.343 143.707 171.865 143.038 175.868C142.812 177.246 143.603 178.563 145.133 178.589C149.722 178.666 153.329 182.842 152.434 187.353C152.217 188.429 151.799 189.454 151.165 190.349C150.861 190.779 150.417 191.124 150.148 191.58C149.687 192.364 149.913 193.319 149.879 194.18C149.792 196.307 148.992 198.347 147.827 200.12C145.498 203.667 141.352 206.233 137.023 206.199C136.345 206.199 135.58 205.992 134.92 206.173C134.198 206.371 133.816 206.922 133.329 207.412C132.46 208.282 131.46 208.953 130.357 209.496C128.427 210.443 126.106 210.83 123.968 210.546C118.927 209.875 114.911 205.346 114.659 200.353L111.912 202.428C112.277 202.54 111.895 202.376 112.069 202.488C112.26 202.609 111.921 202.212 112.164 202.583C112.043 202.402 112.078 202.471 112.164 202.617C112.477 203.151 112.078 202.411 112.217 202.746C112.251 202.824 112.33 203.271 112.277 202.884C112.295 203.022 112.304 203.168 112.295 203.306C112.295 203.306 112.243 203.874 112.277 203.659C112.312 203.426 112.191 203.96 112.182 204.012C112.086 204.348 112.208 204.012 112.121 204.201C112.06 204.33 111.982 204.451 111.904 204.58C111.912 204.563 111.617 204.881 111.643 204.864C111.582 204.916 111.182 205.079 111.478 204.967C111.304 205.028 111.087 205.097 110.895 205.114C110.617 205.14 110.313 205.071 110.035 205.002C105.619 203.762 106.619 197.77 107.219 194.499L105.698 196.005C105.489 196.074 105.281 196.04 105.072 195.902C105.289 196.022 105.315 196.04 105.141 195.945C105.037 195.799 105.055 195.833 105.194 196.057C105.124 195.893 105.133 195.936 105.22 196.186C105.176 196.091 105.081 196.358 105.298 196.091C104.95 196.53 105.22 196.229 105.202 196.229C104.724 196.238 104.377 196.384 103.829 196.143C103.177 195.859 102.734 195.256 102.386 194.671C101.952 193.956 101.63 193.19 101.326 192.424C101.048 191.709 100.422 190.547 100.648 189.755C100.57 190.03 100.926 188.903 100.978 189.273C101.03 189.643 100.231 189.032 100.265 189.066C100.013 188.532 99.9437 188.446 100.057 188.799C100.005 188.687 99.9958 188.567 100.039 188.455C100.083 188.343 100.152 188.248 100.248 188.162C101.23 187.938 101.473 187.809 100.952 187.783L102.49 188.412C100.57 186.32 100.213 183.384 101.221 180.801C101.647 179.717 100.752 178.442 99.7003 178.15C98.4748 177.814 97.4491 178.563 97.0232 179.656C95.5456 183.453 96.4061 187.87 98.9963 190.977C100.457 192.734 102.951 192.243 103.951 190.297C104.855 188.524 104.203 186.165 102.308 185.356C100.231 184.469 97.8576 185.648 96.8668 187.568C95.7455 189.729 96.5278 192.105 97.3883 194.206C98.2488 196.307 99.1875 198.209 101.03 199.492C102.612 200.594 104.785 200.99 106.61 200.293C108.766 199.475 110 197.314 109.418 195.058C108.835 192.803 106.862 191.451 104.55 191.873C103.872 191.993 103.151 192.708 103.029 193.379C102.369 197.047 101.734 200.981 103.412 204.485C104.733 207.249 107.706 209.522 110.887 209.436C113.729 209.358 116.024 207.335 116.502 204.563C116.98 201.791 115.841 199.148 113.06 198.321C111.756 197.934 110.235 199.01 110.313 200.396C110.626 206.543 114.685 212.07 120.543 214.162C126.402 216.254 133.095 214.291 137.041 209.806L135.502 210.434C145.35 211.588 154.876 202.454 154.198 192.699L153.564 194.223C156.858 190.771 157.849 185.597 155.911 181.232C153.972 176.867 149.679 174.396 145.141 174.319L147.236 177.039C147.819 173.535 146.567 170.031 143.62 167.905C140.674 165.778 136.667 165.813 133.651 167.604L136.919 169.463C137.327 165.279 134.138 160.94 129.913 160.217C125.689 159.494 121.308 162.102 119.926 166.217L124.194 166.786C123.786 163.153 121.082 160.165 117.319 159.795C113.746 159.442 110.426 161.956 109.418 165.27L113.051 164.323C109.531 161.172 104.011 160.983 100.378 164.065C96.7451 167.147 96.2931 172.657 98.892 176.342C100.1 178.046 102.89 177.495 102.942 175.257C103.029 171.77 98.9615 169.79 95.9367 171.013C92.5295 172.382 91.6864 176.497 92.0949 179.742C92.9902 186.802 98.6834 192.364 105.819 193.104C109.905 193.526 113.92 192.183 117.119 189.695L113.486 187.603C113.051 190.409 114.051 193.121 116.311 194.929C118.57 196.737 121.665 197.417 124.377 196.117C128.931 193.922 129.974 187.387 126.593 183.789C125.515 182.644 123.299 183.169 122.96 184.736C122.038 189.066 124.95 193.819 129.505 194.49C134.059 195.162 138.675 191.279 138.744 186.578C138.762 185.605 138.058 184.787 137.145 184.503C135.155 183.866 133.051 185.166 132.425 187.086C131.843 188.885 132.703 190.779 134.32 191.718C138.101 193.922 141.665 190.556 142.986 187.224C144.307 183.892 143.786 179.682 141.56 176.755C139.335 173.828 135.693 172.089 131.973 172.278L133.851 175.515C135.859 172.209 133.998 167.431 130.2 166.407C125.759 165.21 121.734 169.721 122.76 173.94L126.949 172.795C125.985 169.661 122.986 167.285 119.605 167.388C116.224 167.492 113.294 169.98 112.582 173.191L116.554 172.674C114.859 170.066 111.669 169.687 108.957 170.901C105.924 172.27 104.603 175.446 104.776 178.623C104.976 182.351 106.523 186.01 107.636 189.531C108.749 193.052 109.505 196.711 111.278 199.845C112.938 202.781 116.058 204.89 119.561 204.33C122.699 203.831 124.585 200.869 123.855 197.839C123.125 194.809 119.613 193.156 116.893 195.075C113.625 197.383 114.346 201.971 117.206 204.287C120.065 206.603 124.55 206.689 127.506 204.339C130.461 201.989 131.113 197.899 129.653 194.55C128.67 192.303 124.968 193.905 125.68 196.212C127.045 200.637 131.669 203.435 136.267 202.583C140.865 201.73 143.925 197.15 143.403 192.82L141.23 194.972C147.01 194.421 151.182 188.033 148.557 182.661C146.132 177.693 139.179 176.669 135.033 179.992L138.666 180.939C137.571 176.936 133.181 174.258 129.079 175.292C124.976 176.325 122.517 180.844 123.481 184.848C124.038 187.172 127.923 186.725 127.749 184.28C127.532 181.12 126.263 178.055 123.638 176.118C121.247 174.353 117.997 174.129 115.337 175.464C112.677 176.798 111.165 179.863 112.156 182.747C113.147 185.631 116.041 187.654 119.135 186.888C121.847 186.217 120.7 182.067 117.979 182.738L117.971 182.721Z" fill="black"/>
<path d="M154.268 27.3505C152.651 29.124 151.443 31.2246 150.826 33.5405C150.209 35.8563 150 38.4649 150.826 40.6344C151.852 43.3291 154.85 45.1198 157.606 43.5357C160.065 42.1152 160.431 39.1709 160.665 36.6398C160.943 33.6266 160.752 30.622 160.248 27.6432L156.276 29.3047C156.684 29.9763 156.893 30.5875 157.102 31.4915C157.31 32.3954 157.432 33.265 157.606 34.1517C157.953 35.8994 158.614 37.5696 159.77 38.947C162.334 42.0033 167.549 41.6331 169.366 37.9656C169.879 36.9239 169.653 35.6411 168.584 35.0213C167.627 34.4703 166.132 34.7458 165.611 35.7961C165.533 35.951 165.454 36.0888 165.368 36.2352C165.194 36.502 165.559 36.0457 165.333 36.2696C165.281 36.3212 164.942 36.5967 165.237 36.3901C165.124 36.4676 165.011 36.5279 164.889 36.6053C164.75 36.6914 164.637 36.7087 164.855 36.6398C164.69 36.6914 164.533 36.7345 164.368 36.7775C164.046 36.855 164.672 36.7775 164.342 36.7775C164.168 36.7775 163.899 36.7603 164.211 36.812C164.081 36.7947 163.951 36.7517 163.82 36.7173C163.455 36.6226 163.873 36.7689 163.69 36.6656C163.577 36.5967 163.464 36.5365 163.351 36.459C163.168 36.3385 163.507 36.6398 163.255 36.3643C163.168 36.2696 163.073 36.1749 162.977 36.0802C162.716 35.8047 163.003 36.1491 162.89 35.9597C162.725 35.6928 162.569 35.4345 162.43 35.159C162.369 35.0385 162.308 34.8921 162.395 35.0987C162.343 34.9696 162.291 34.8405 162.247 34.7027C162.143 34.41 162.056 34.1087 161.978 33.8074C161.804 33.11 161.691 32.4041 161.56 31.6981C161.274 30.114 160.883 28.5557 160.039 27.1611C159.483 26.2485 158.31 25.8525 157.328 26.2829C156.276 26.7392 155.885 27.7293 156.067 28.8226C156.467 31.1816 156.563 33.6868 156.38 36.1146C156.293 37.2338 156.232 38.0947 155.902 39.1623C155.824 39.4206 155.859 39.3345 155.676 39.6186C155.598 39.7391 155.598 39.7477 155.676 39.6272C155.485 39.7994 155.459 39.8338 155.615 39.7391C155.528 39.808 155.433 39.8596 155.328 39.9113C155.198 39.9888 155.198 39.9802 155.337 39.8941C155.72 39.8424 154.998 40.006 155.45 39.9027C155.572 39.9629 155.52 39.9371 155.311 39.8252C155.441 39.9543 155.415 39.9285 155.224 39.7477L155.068 39.5841C155.189 39.7219 155.172 39.6788 155.015 39.455C154.868 39.1192 154.946 39.4119 154.876 39.0762C154.833 38.9212 154.798 38.7663 154.763 38.6027C154.72 38.3358 154.703 38.2841 154.737 38.4563C154.685 37.9742 154.677 37.4921 154.685 37.01C154.703 36.3729 154.72 36.1491 154.807 35.6669C155.181 33.6524 156.041 31.8617 157.345 30.4412C158.136 29.5802 158.205 28.2458 157.345 27.3935C156.545 26.6015 155.059 26.5326 154.268 27.3935V27.3505Z" fill="black"/>
</svg>
