<?xml version="1.0" encoding="UTF-8"?>
<svg id="Layer_1" xmlns="http://www.w3.org/2000/svg" version="1.1" viewBox="0 0 320 320">
  <!-- Generator: Adobe Illustrator 29.4.0, SVG Export Plug-In . SVG Version: 2.1.0 Build 152)  -->
  <path d="M122,134.4c-5.3,4.1-13.3.4-15-6.7-.8-3.2-.6-6.5,0-9.7,1.1-6.3,2.6-12.5,5.7-18.1,1.8-3.3,4.2-5.7,8-6.4,2.4-.4,4.5.3,6,2.4,2.2-4.3,4.9-8.4,8.1-12.1,7.3-8.5,16.2-14.9,26.3-19.6,6-2.8,12.3-5,18.8-6.6,1.1-.2,2-.4,2.8.6.2.2.6.3.9.3,18.1,0,31.5,8.5,41.6,22.9,2.6,3.7,4.4,7.9,6.6,11.8.8,1.4,1.7,2.7,2.7,3.9.8,1,1.2,1.9.4,3.1-.2.2-.2.6,0,.9,2,6.5,3.4,13.1,3.9,19.9,0,.1,0,.2.2.4,3.1-1,5.9-.2,8.4,1.7,3,2.3,4.5,5.6,4.8,9.3.6,8.3,0,16.5-3,24.3-2.1,5.5-5.8,9.7-11.4,11.8-3.9,1.5-7.9,1.3-11.7-.6-.6-.3-1-.5-1.6.1-6.7,7-15,11.2-24.5,13.1-13,2.7-25.4.6-37.3-4.7-12.9-5.7-23.8-14-32.3-25.4-3.6-4.9-6.4-10.2-8.1-16.1,0-.2-.2-.4-.3-.7h0ZM224.5,128.8c-.2-.2-.3-.3-.4-.4-1.1-.9-1.2-2-.4-3,.7-.9,1.6-1,2.8-.1.4.3.8.6,1.2.8,1.6,1.1,1.8,1.8.9,3.5-.2.4-.4.9-.7,1.4.9.6,1.7,1.2,2.6,1.8,1.5,1.1,1.4,2.7-.2,3.7-1,.6-2,1.2-3.1,1.8.7,1.6.8,3.1,0,4.6-.2.4-.3,1.1-.2,1.5.2,1,0,1.8-.9,2.3-2.2,1.2-3.3,3.1-3.4,5.6,0,1.1-.9,2-1.9,1.9-1.3-.1-1.3.7-1.1,1.4.3,1,.7,1.9,1.2,2.8,1.1,2.3,1.2,4.6,0,7,0,.1,0,.3-.1.4,0,0,.2,0,.3.1.3-.6.6-1.3,1-1.9.4-.6,1-1.1,1.5-1.7.2-.2.7-.3.9-.6,2.2-2.8,4-5.7,5.4-8.9-1.7-1.7-1.8-2.5.1-3.9,1.6-1.2,2.6-2.8,2.9-4.8.3-1.7.8-3.4,1.1-5.1.1-.7-.2-1.5-.2-2.2,0-.6,0-1.3.2-1.9.2-.8.7-1.6.8-2.5.7-12-1.2-23.5-5.4-34.7-.2-.6-.6-1.2-1-1.7-3.9-4.4-7.8-8.8-11.7-13.2-.7-.8-1.4-1.1-2.4-1.1-16.4,0-32.8,0-49.1,0-5.8,0-11.5,0-17.3.2-3.5.1-6.2,1.8-7.8,4.8-1.3,2.3-2.4,4.8-3.5,7.2-1.2,2.6-2.5,5.2-4.5,7.3-1.5,1.6-1.9,1.7-3.9,1,0,0,0,0,0,0,0,.1-.1.2-.2.3-6,16.2-4.6,31.6,5.5,45.8,6.3,8.9,14.6,15.5,24,20.8,11.6,6.5,23.9,10,37.3,8.5,7.9-.9,15.2-3.6,21.7-8.4.2-.1.3-.2.2-.2-2.3.4-4.7,1-7.1,1.1-2.8.1-5.4.7-7.7,2.5-1.3,1.1-2.9.4-3.2-1.3-.1-.7-.2-1.4-.3-2.2-3.3,1.3-6.6,2.5-9.8,3.7-3.4,1.3-3.6,1.2-4.5-2.3-2.9,2-6,3.4-9.4,1.6-3.5-1.9-4.4-4.8-2.9-8.6-1.8.2-2.3,1.4-2.8,2.6-.5,1.1-1.2,1.7-2.4,1.4-1.2-.3-1.6-1.2-1.6-2.3,0-.8,0-1.6,0-2.7-1.4.9-2.7,1.5-3.8,2.3-2,1.5-3.6,0-3.7-1.9,0-.9-.2-1.9-.4-2.9-1.7.6-3.4.7-5-.2-1.6-.8-2.4-2.3-3-3.8-2.3.3-3-.2-3.2-2.5-.2-1.6-.4-3.2-.6-4.9-.3.1-.5.2-.6.3-1.7,1.5-3.7,0-3.6-2,.1-1.3-.1-2.7-.2-4.2-.4.4-.7.6-1,.9-.8.9-1.7,1.5-2.9.8-1.3-.6-1-1.7-.9-2.8.2-2.1.4-4.1.6-6.4-.3.3-.5.3-.6.5-.7,1-1.6,1.6-2.8.9-1-.6-1.2-1.5-.8-3,.5-1.9,1.1-3.8,1.6-5.8,0,0-.2-.1-.2-.2-.6.7-1.3,1.4-1.9,2.1-.8.8-1.7,1-2.7.4-.9-.6-1.1-1.4-.8-2.4,1.3-4.7,2.6-9.3,4-14,.4-1.4,1.3-1.9,2.5-1.5,1.2.3,1.7,1.2,1.3,2.6-.6,2.1-1.2,4.3-1.8,6.4,0,0,.2.2.3.2.7-.8,1.4-1.6,2.1-2.4,1-1,2.5-.8,3.1.4.2.5.2,1.3,0,1.9-.5,1.9-1.1,3.9-1.6,5.8,2.4,0,3,.7,2.8,3-.3,2.2-.5,4.5-.7,7,.4-.4.6-.5.8-.7,1.4-1.1,3.1-.5,3.4,1.3,0,.7,0,1.3.1,2,0,1.3,0,2.6,0,4,2.7-1.2,3.7-.7,4,2,.2,1.7.5,3.5.7,5.3.3-.1.6-.2.8-.3.9-.4,1.7-.3,2.4.3.7.7.7,1.5.4,2.4-.5,1.3-.2,2.3,1,2.8,1.1.5,1.7.2,2.6-1.2.6-1,1.7-1.6,2.6-1,.6.4,1.1,1.2,1.2,2,.3,1.2.4,2.5.6,3.9,1.3-.8,2.5-1.5,3.6-2.2,2.6-1.6,3.7-1,4.1,1.9,0,0,0,.1,0,.1.9-.1,1.8-.4,2.7-.3,3.4.3,5,3.3,3.7,5.9-.8,1.7,0,3,1.9,3.4,1.3.3,2.6,0,3.6-.8,1.2-1,2.4-2,3.5-3.1.7-.7,1.5-1.1,2.3-.6.6.4,1.1,1.3,1.3,2,.2.7,0,1.5,0,2.5,3.6-1.4,7-2.7,10.4-4,2.6-1,3.4-.6,3.8,2.2,0,.2,0,.3.2.6,3-1.7,6.2-1.3,9.4-1.7,1.4-.2,2.9-.7,4.1-1.5,1.9-1.1,2.2-2.7,1.3-4.7-.4-1-1-2-1.3-3-1-2.7,0-5.3,2.4-6.8.2-.1.5-.3.6-.6.8-1.6,1.5-3.2,2.3-4.9-.8-.5-1.4-1.3-1-2.5.4-1.1,1.2-1.4,2.4-1.3.3,0,.6-.4,1-.6-.2-.3-.3-.6-.6-.8-1.8-1.3-1.8-2.8.1-3.9.8-.5,1.6-.9,2.4-1.4-1.8-1.5-2.2-3.4-1.3-5.7h0ZM240.6,150.8c2.3,0,4-2.9,6.6-.6.4-3.9.8-7.6,1.1-11.3-.1,0-.2,0-.3-.1-1.1.9-2.1,1.8-2.9,2.5.8.7,1.6,1.1,2.1,1.9.6,1-.3,1.7-1,2.4-1.8,1.7-3.7,3.4-5.6,5.2ZM112.1,113c-.9,3.9-2,7.8-1.6,11.9.2,1.9.7,3.8,2.3,5.3.3-.6.6-1.2.9-1.7-2.4-.6-2.6-1.1-1.8-3.5,0-.1,0-.3,0-.4-.8-1.1-.1-1.8.5-2.6.4-.5.8-1.1,1.2-1.7-2.2-1-2.5-2.3-1-4.2.5-.7,1-1.3,1.5-2-.7-.3-1.3-.7-2-1h0ZM171.4,64.2c1,1.7,2.6,1.8,3.7.5.3-.4,1.2-.3,1.9-.4.3,0,.7.2.9.1.9-1,1.9-.7,2.9-.3.5-.5.9-1,1.3-1.4-.6-.2-1.3-.3-1.9-.5-.5-.1-1-.3-1.4-.2-2.4.7-4.8,1.4-7.3,2.1h0ZM118.6,124c.3.6.8,1.1.7,1.5-.3,1.3-.9,2.5-1.3,3.6,1,.6,2,1.3,2.9,1.9-.2-4.4-.5-8.7-.7-13-.4.5-.9,1.1-1.3,1.7,1.6,1.8,1.6,1.9-.3,4.3ZM227.7,164.4c3.1,1.8,8.3,1.5,10.3-.3-.8-.4-1.7-.9-2.8-1.5-.6.2-1.5.6-2.4,1-1.5.7-2.9,1.4-4-.6-.4.6-.7,1-1,1.4h0ZM207,69c-2.8-1.4-5.5-2.7-8.2-4l-.3.5c.3.2.5.5.8.6,1.3.2,1.7,1.1,1.5,2.2,0,.4,0,.8,0,1.2,1.9-1.5,3.1-1.3,4,.7.6-.4,1.3-.7,2.1-1.3h0ZM183.1,62.6c0,.1,0,.2-.1.4,1.8.7,3.7,1.4,5.5,2.1,1-2.1,2.4-2,3.9-.9-.2-1.1-5.2-1.8-9.3-1.5h0ZM239,130c1.5-1.6,2.8-3,4.1-4.4,0-.2-.2-.3-.2-.5-1.3.2-2.6.3-3.8.5v4.4ZM196,78c0-.8.1-1.6.2-2.5-.3,0-.4.2-.5.3-1.2,1.6-1.8,1.7-3.6.9-.6-.3-1.2-.4-1.8-.7-.3.7-.7,1.3-1,1.9h6.8ZM248.1,132.1c-1,1.2-2,2.3-2.8,3.3h3.1c0-1.1-.2-2.2-.3-3.3h0ZM125.4,98.6c-.6,0-1-.1-1.3-.1-.2.8-.5,1.5-.7,2.2.3,0,.7.2,1.1.3.3-.8.6-1.6,1-2.4h0ZM246.6,128.3c-.7.5-1.4,1-1.9,1.4.9.2,1.9.3,2.9.5-.4-.8-.8-1.5-1-2h0ZM246.2,153.3c0,0-.1,0-.2-.1-.8.6-1.5,1.2-2.3,1.8.5.4,1,.7,1.5,1.1.4-1,.7-1.9,1-2.8h0ZM116.3,101.4c.1,0,.2.2.3.3,1.2-1.2,2.3-2.5,3.5-3.7-.1-.1-.3-.2-.4-.4-1.1,1.3-2.3,2.5-3.4,3.8ZM150,262.8c-.6-.5-1-.4-1.5.2-.9,1.1-1.9,2.1-2.9,3.2-1.1,1.1-2.1,1.2-3,.2-.9-.9-.9-2,.2-3,.7-.7,1.6-1.3,2.4-2,0-.2-.2-.3-.2-.4-1.1-.4-2.1-.8-3.2-1.2-19-6.8-37.5-14.7-55.7-23.6-4-1.9-8-3.9-11.5-6.6-3.8-3-6.5-6.6-7.3-11.5-.7-4.2.2-8.2,1.7-12.1,2.5-6,5.2-11.9,7.8-17.8,3.4-7.7,6.8-15.3,10.1-23,.7-1.5,2.1-1.8,3.3-2.5.5-.3,1.7.4,2.4.8,7,4.5,14,9,20.9,13.5.7.5,1.1.4,1.8,0,4.4-3,9-2.8,13.4-.4,3.6,1.9,6.9,4.4,10.3,6.8,14.3,10.4,28.6,20.9,42.9,31.3,1.9,1.4,2.1,2,.8,4.1-9.7,15.3-19.4,30.6-29,45.9-.6,1-1.3,1.8-2.7,1.5-1.4-.4-1.8-1.6-1-3.3h0ZM90.5,166.9c-.2.5-.4.8-.6,1.2-4.6,10.5-9.3,20.9-13.9,31.5-1.7,3.9-3.4,7.8-4.5,11.8-1.5,5.1-.3,9.8,3.9,13.4,1.9,1.6,3.9,3.3,6.1,4.4,7,3.6,14.1,7.1,21.3,10.4,14.5,6.7,29.3,12.5,44.3,17.8.7.2,1.1.2,1.6-.4,1.8-2.3,3.8-4.4,5.6-6.8,4.9-6.5,8.4-13.5,8.9-21.8.4-6.4-1.1-12.4-5.7-17-2.6-2.6-5.5-5-8.6-7-17-11.1-34.1-22-51.2-33-2.3-1.5-4.7-3-7.1-4.6ZM118.1,179.8c.2.2.3.3.4.3,7.5,4.9,15.1,9.7,22.6,14.6,5.1,3.3,10.2,6.6,15.1,10.3,9,6.9,12.3,16.2,10.5,27.3-.3,2.1-1,4.2-1.5,6.3,0,0,0,0,.1,0,4.5-7.1,9-14.2,13.5-21.3-.5-.3-.8-.7-1.2-.9-3.7-2.7-7.4-5.4-11.2-8.1-11.7-8.5-23.4-17.1-35.1-25.6-2.3-1.7-4.8-3.1-7.6-3.7-1.9-.4-3.8-.4-5.7.8h0ZM178.3,46.3c13.3.1,26.4,2.9,38.4,10,17.1,10.1,27.5,24.9,30.5,44.7.8,5.4.6,10.8-.5,16.2-.3,1.5-1,2.2-2.2,2-1.3-.2-2-1.2-1.7-2.8,3-19.1-3.2-35-16.8-48.3-8.6-8.3-19.1-13.3-30.7-15.9-13.5-3.1-27-2.8-40.3,1.3-9.5,2.9-17.6,7.9-23.6,16-3.5,4.8-5.8,10.1-6.4,16.1,0,.4,0,.7-.2,1.1-.3,1-1.4,1.6-2.4,1.4-1.1-.2-1.5-1-1.4-2.1.4-4.3,1.5-8.4,3.4-12.3,5.5-11.2,14.5-18.3,25.9-22.7,8.9-3.4,18.1-4.7,28.1-4.8h0ZM221.2,35.6c1.9-3.2,3.7-6.3,5.6-9.3.5-.8,1-1.4,2-1.3,1.5.2,2.4,1.7,1.6,3-3.4,5.8-6.9,11.5-10.3,17.2-.7,1.1-1.7,1.4-2.8.8-1-.6-1.3-1.6-.7-2.8.7-1.3,1.6-2.6,2.4-4-1.2-.4-2.4-.8-3.5-1.1-.7,1.1-1.4,2-2,3-.8,1.1-2,1.4-3,.8-.9-.7-1.1-1.8-.3-2.9.4-.7.8-1.3,1.3-2-1.3-.4-2.5-.8-3.7-1.2-1.4-.5-2.1-1.5-1.7-2.5.4-1.2,1.5-1.7,3-1.2,1.6.5,3.1,1,4.8,1.5,1.3-2,2.7-3.9,4-5.9.3-.5.6-1,1-1.4.8-.9,1.9-1,2.8-.3.8.6.9,1.8.3,2.7-1.3,2-2.7,4-4.1,6.1,1.2.4,2.2.7,3.3,1.1h0ZM241.8,49.4c6.9-.7,9.1,6.1,7,10.4-1.4,2.7-3.4,4.8-5.7,6.7-.9.7-2.3.5-3-.4-.7-.9-.5-1.7.5-2.7,1.4-1.3,2.7-2.6,4-4,.9-1,1.1-2.3.9-3.6-.3-2-1.7-2.9-3.5-2-1.3.6-2.5,1.6-3.6,2.5-.9.7-1.6,1.1-2.6.4-.9-.6-1.2-1.7-.6-2.8,3.5-7,7.1-14,10.7-21,.6-1.2,1.6-1.5,2.6-1,1.1.6,1.5,1.6.9,2.8-2.1,4.3-4.3,8.5-6.5,12.8-.3.6-.6,1.2-1,2h0ZM270,53.1c-.3,3.5-2.1,7-4.7,10-2.1,2.4-4.7,4.3-7.6,5.6-1.5.7-2.6.5-3.1-.7-.5-1.1,0-2.2,1.4-2.8,4.1-1.9,7.1-4.8,9-8.9.6-1.3,1-2.7,1-4.1,0-.8-.7-1.6-1.3-2.4-.1-.2-.7,0-1,0-.2.1-.3.5-.3.8,0,1.3-.4,2-1.5,2.3-1.1.2-2-.3-2.4-1.4-.5-1.6,0-3,1-4.2,1.3-1.4,2.9-2,4.8-1.5,2.8.7,4.5,3.3,4.5,7.3ZM230.2,52.3c-3.2,0-5.5-3.2-4.9-6.7.2-1.1.6-2.2,1-3.3.6-1.6,1.3-3.1,1.8-4.7.4-1.1,1.3-1.7,2.4-1.5,1.1.3,1.8,1.3,1.4,2.4-.6,1.8-1.4,3.5-2,5.3-.3,1-.7,2-.7,2.9,0,1.3,1,1.8,2.1,1.1.6-.4,1.2-1.2,1.4-1.9.4-1.1.4-2.3.6-3.5.2-1.5,1-2.4,2.2-2.3,1.2.1,1.9,1.1,1.7,2.6-.2,1.6-.4,3.3-.9,4.8-.9,2.8-3.7,4.6-6.3,4.5ZM252,75.8c-1.1,0-1.9-.9-1.8-2,0-1.2.8-1.9,1.9-1.9s2,.9,1.9,2.1c0,1.1-.9,1.9-2,1.9ZM171.2,147.8c-.5.1-1,.2-1.4.4-2.1,1.2-4,.3-5.9-.3-.3,0-.6,0-.9,0-.4,0-.9,0-1.3.1-.5,0-1,0-1.3.3-.9.6-1.8.6-2.6,0-.8-.7-.8-1.5-.4-2.4.4-.9.7-1.8,1-2.6.6-1.4,2-1.9,3.2-1.1,1,.6,1.8.8,2.9.2.5-.3,1.3,0,2,.2.5.1.9.4,1.3.6.3,0,.7,0,.8.2.9,1.2,1.9.6,2.9.2.6-.2,1.1-.4,1.7-.6.3,0,.7-.2.9,0,.9.6,2,.7,3,.7.6,0,1.1,0,1.7,0,0,0,.2,0,.2,0,1.4.8,3,.8,4.6,1,.5,0,1,.1,1.4,0,.7-.2,1.4-1,2.1-.9,1.6.2,3.6.1,4.7,1,1.2.9,2.2,1.1,3.5,1,.2,0,.6,0,.7.2.8,1,2,.7,3,.8.6,0,1.2,0,1.8.2,2,.7,4,1.4,6,2.1,1.2.5,1.7,1.6,1.2,2.8-.4,1-1.2,1.3-2.6.9-1-.3-1.9-.7-2.9-1.1-2.2-.9-4.4-1.2-6.8-.9-.7,0-1.5-.4-2.3-.6-.5-.1-.9-.2-1.4-.2-1.3,0-2.7.8-3.7-.7,0,0-.4,0-.6,0-.8.2-1.6.5-2.5,0-.3-.2-1,.2-1.4.4-1,.5-1.9.8-2.9.2-.2-.1-.6,0-.9,0-.5.2-1,.6-1.5.9-1.2.7-2.5.3-3.1-.9-.4-.9-.9-1.3-2-.8-1.1.5-2.1,0-2.7-1.1h0ZM183,135.9c.6,0,1.2,0,1.9,0,1,0,1.8.3,2,1.4.2,1.2-.4,2.4-1.4,2.5-3.5.4-6.9.5-10-1.5-2.4-1.5-3.5-3.9-3.3-6.6.2-3.7.8-7.3,1.3-11,.6-4.4,1.3-8.9,1.9-13.3.2-1.6,1-2.4,2.3-2.3,1.2.1,1.9,1.2,1.6,2.8-.8,5.5-1.6,10.9-2.3,16.4-.3,2.2-.7,4.3-.8,6.5-.2,3.3,1.3,5,4.7,5.2.8,0,1.6,0,2.3,0h0c0,0,0,0,0,0ZM157.4,110.9c.8,1.8.7,3.1-.4,4.1-1,.9-2.5,1.1-3.8.5-1.4-.7-2.4-2.4-2.2-3.8,0-.3.2-.7.1-1-.1-2.4,0-2.6,2.3-3.1,2.6-.5,5.1-1,7.7-1.5,1.5-.3,2.7.3,2.9,1.5.2,1.2-.6,2.1-2.1,2.4-1.5.3-3,.6-4.7,1h0ZM203.6,114.5c0,.6.2,1.1.2,1.5,0,1.5-1.1,2.9-2.6,3-1.4.1-2.7-1-2.9-2.5-.1-1.1-.1-2-.9-2.9-.8-1.1-.1-2.6,1.3-2.7,2.9-.3,5.7-.4,8.6-.4.5,0,1.2.8,1.5,1.4.4.7,0,1.6-.7,2-.5.3-1.1.4-1.6.5-1,.1-1.9.1-3,.2h0ZM158.6,95.6c1.5,0,2.3.6,2.4,1.8,0,1.1-.7,2-2.1,2.1-3.4.3-6.9.7-10.3,1-1.3.1-2.2-.6-2.3-1.8-.1-1.1.7-1.9,2-2.1.6,0,1.1-.1,1.7-.2,2.9-.3,5.7-.5,8.6-.8h0ZM211.3,99.9c-1.1-.3-2.3-.6-3.5-.9-1.8-.5-3.7-.9-5.5-1.4-1.2-.3-1.8-1.4-1.5-2.4.3-1,1.3-1.7,2.4-1.4,3,.7,6,1.5,9,2.4,1.1.3,1.6,1.3,1.4,2.3-.2,1-1.1,1.6-2.4,1.6h0ZM182.8,157.6h-.9c-1.1,0-2-.8-2-1.9,0-1,.7-1.9,1.8-2,2.6-.2,5.3-.3,7.9-.4,1.1,0,1.9.9,2,2,0,1-.7,1.9-1.8,2-2.3.2-4.6.3-6.9.4h0s0,0,0,0ZM115.8,223.9c-3-.3-6.2-.9-9.3-2.4-2.7-1.3-4-3.4-3.8-5.9.2-2.4,2.1-4.8,4.8-5.5,1.9-.4,4-.4,6-.5.3,0,.7.1.9.3,1.6,1.4,3.3,2.8,4.7,4.4.8.8,1.4,2,1.7,3.1,1.3,3.7-.9,6.5-5.1,6.5h0ZM110.8,215.7c-.3-.2-.7-.4-1.1-.7.4-.2.9-.4,1.3-.4.8,0,1.5.1,2.4.2-1.7-1.5-4-1.7-5.7-.5-1.4,1-1.6,2.4-.2,3.2,2.7,1.6,5.7,2.2,8.8,2.4.8,0,1.2-.4.7-1.2-.7-1.2-1.6-2.3-2.4-3.5,0,0-.2.2-.3.3-.4.2-.8.3-1.2.5.6.5,1.1.8,1.6,1.3.2.2.2.5.4.8-.3,0-.7,0-1,0-.6-.4-1.2-.8-1.7-1.2-.3.4-.5.8-.7,1.1-.3-.4-.5-.8-.8-1.2-.3.3-.6.6-.9.8-.2.1-.5.1-.8.2,0-.3,0-.7.1-.8.4-.5.9-.8,1.2-1.1h0ZM120.5,207c0,1.1-.6,1.8-1.6,2-1.4.3-2.8,1.6-4.2,0-.8-1-.5-2.4.7-3,.9-.4,1.9-.8,2.9-1,1.1-.2,2.2.7,2.2,1.9Z"/>
</svg>