<?xml version="1.0" encoding="UTF-8"?>
<svg id="Layer_1" xmlns="http://www.w3.org/2000/svg" version="1.1" viewBox="0 0 320 320">
  <!-- Generator: Adobe Illustrator 29.4.0, SVG Export Plug-In . SVG Version: 2.1.0 Build 152)  -->
  <path d="M122.5,133.5c-5.4,4.1-13.4.4-15.1-6.7-.8-3.3-.6-6.5,0-9.8,1.1-6.4,2.6-12.6,5.7-18.3,1.8-3.3,4.3-5.8,8.1-6.4,2.4-.4,4.5.3,6.1,2.4,2.2-4.4,4.9-8.4,8.1-12.2,7.3-8.6,16.3-15,26.5-19.8,6.1-2.9,12.4-5.1,18.9-6.6,1.1-.3,2-.4,2.8.6.2.2.6.3.9.3,18.2,0,31.7,8.6,41.9,23.1,2.6,3.7,4.4,7.9,6.7,11.9.8,1.4,1.7,2.7,2.7,3.9.8,1,1.2,1.9.4,3.1-.2.2-.2.6,0,.9,2,6.6,3.4,13.2,3.9,20.1,0,.1,0,.2.2.4,3.1-1,5.9-.2,8.5,1.8,3.1,2.4,4.6,5.6,4.9,9.3.6,8.3,0,16.6-3.1,24.5-2.1,5.5-5.8,9.8-11.5,11.9-4,1.5-8,1.3-11.8-.6-.6-.3-1-.5-1.6.1-6.8,7.1-15.1,11.3-24.6,13.3-13,2.7-25.5.6-37.5-4.7-13-5.8-24-14.2-32.5-25.7-3.7-4.9-6.4-10.3-8.1-16.3,0-.2-.2-.4-.3-.7h0ZM225.7,127.9c-.2-.2-.3-.3-.4-.4-1.1-.9-1.2-2.1-.4-3.1.7-.9,1.6-1,2.8-.1.4.3.8.6,1.2.9,1.6,1.1,1.8,1.8.9,3.6-.2.4-.4.9-.7,1.4.9.6,1.7,1.2,2.6,1.8,1.5,1.1,1.5,2.7-.2,3.7-1,.6-2.1,1.2-3.1,1.8.7,1.6.8,3.1,0,4.6-.2.4-.3,1.1-.2,1.5.2,1,0,1.8-.9,2.3-2.2,1.2-3.3,3.1-3.4,5.7,0,1.1-.9,2-1.9,1.9-1.3-.1-1.3.7-1.1,1.4.3,1,.7,1.9,1.2,2.9,1.2,2.4,1.2,4.7,0,7,0,.1,0,.3-.1.4,0,0,.2,0,.3.1.3-.6.6-1.3,1-1.9.4-.6,1-1.1,1.5-1.7.3-.2.7-.3.9-.6,2.2-2.8,4-5.8,5.4-9-1.7-1.7-1.8-2.5.1-3.9,1.6-1.2,2.6-2.8,3-4.8.3-1.7.8-3.4,1.1-5.1.1-.7-.2-1.5-.2-2.2,0-.6,0-1.3.2-1.9.2-.9.7-1.7.8-2.5.7-12.1-1.2-23.7-5.5-35-.2-.6-.6-1.2-1-1.7-3.9-4.5-7.9-8.9-11.8-13.3-.7-.8-1.4-1.1-2.4-1.1-16.5,0-33,0-49.5,0-5.8,0-11.6,0-17.4.2-3.5.1-6.2,1.8-7.9,4.9-1.3,2.4-2.4,4.8-3.5,7.3-1.2,2.6-2.5,5.2-4.5,7.4-1.5,1.6-1.9,1.8-4,1,0,0,0,0,0,0,0,.1-.1.2-.2.3-6,16.4-4.7,31.8,5.6,46.2,6.4,8.9,14.7,15.7,24.2,21,11.7,6.6,24.1,10.1,37.6,8.5,8-.9,15.3-3.7,21.9-8.4.2-.1.3-.3.2-.2-2.3.4-4.7,1-7.1,1.1-2.9.1-5.4.7-7.7,2.5-1.3,1.1-2.9.4-3.3-1.3-.1-.7-.2-1.4-.3-2.2-3.4,1.3-6.6,2.5-9.8,3.8-3.4,1.3-3.6,1.2-4.6-2.3-2.9,2-6,3.4-9.5,1.6-3.5-1.9-4.5-4.9-2.9-8.7-1.8.2-2.3,1.4-2.9,2.6-.5,1.1-1.2,1.7-2.4,1.4-1.2-.3-1.6-1.2-1.6-2.3,0-.8,0-1.6,0-2.7-1.4.9-2.7,1.5-3.8,2.3-2,1.5-3.6,0-3.7-1.9,0-.9-.2-1.9-.4-2.9-1.8.6-3.4.7-5-.2-1.6-.8-2.4-2.3-3-3.9-2.3.3-3-.3-3.3-2.5-.2-1.6-.4-3.3-.6-4.9-.3.1-.5.2-.6.3-1.7,1.5-3.8,0-3.6-2,.1-1.3-.1-2.7-.2-4.2-.4.4-.7.6-1,.9-.8.9-1.7,1.5-2.9.9-1.3-.6-1-1.7-.9-2.8.2-2.1.4-4.2.6-6.5-.3.3-.5.4-.6.5-.7,1-1.6,1.6-2.9.9-1-.6-1.3-1.5-.8-3,.5-1.9,1.1-3.9,1.6-5.8,0,0-.2-.1-.2-.2-.6.7-1.3,1.4-1.9,2.1-.8.8-1.7,1-2.7.4-.9-.6-1.1-1.4-.8-2.4,1.3-4.7,2.6-9.4,4-14.1.4-1.4,1.3-1.9,2.5-1.5,1.2.3,1.7,1.3,1.3,2.6-.6,2.2-1.2,4.3-1.8,6.4,0,0,.2.2.3.2.7-.8,1.4-1.6,2.1-2.4,1-1,2.5-.8,3.1.4.3.5.2,1.3,0,1.9-.5,2-1.1,3.9-1.6,5.9,2.4,0,3.1.7,2.8,3-.3,2.2-.5,4.5-.7,7.1.4-.4.6-.5.8-.7,1.4-1.1,3.1-.5,3.4,1.3,0,.7,0,1.3.1,2,0,1.3,0,2.6,0,4,2.7-1.2,3.7-.7,4.1,2,.3,1.8.5,3.5.7,5.3.3-.1.6-.2.8-.3.9-.4,1.7-.3,2.4.3.7.7.8,1.5.4,2.4-.5,1.4-.2,2.3,1,2.8,1.1.5,1.8.2,2.6-1.2.6-1.1,1.7-1.6,2.6-1,.6.4,1.1,1.2,1.3,2,.3,1.2.4,2.5.6,3.9,1.3-.8,2.5-1.5,3.6-2.2,2.6-1.6,3.8-1,4.1,1.9,0,0,0,.1,0,.1.9-.1,1.9-.4,2.7-.3,3.4.3,5,3.3,3.8,5.9-.8,1.7,0,3,2,3.4,1.3.3,2.6,0,3.6-.9,1.2-1,2.4-2,3.5-3.2.7-.7,1.5-1.1,2.3-.6.6.4,1.1,1.3,1.3,2,.2.7,0,1.5,0,2.5,3.7-1.4,7.1-2.7,10.4-4,2.6-1,3.4-.6,3.8,2.2,0,.2,0,.3.2.6,3-1.8,6.3-1.3,9.5-1.8,1.4-.2,2.9-.7,4.1-1.5,1.9-1.1,2.2-2.7,1.3-4.7-.4-1-1-2-1.4-3.1-1-2.7,0-5.3,2.4-6.9.2-.1.5-.3.6-.6.8-1.6,1.5-3.2,2.3-4.9-.8-.5-1.4-1.4-1-2.5.4-1.1,1.3-1.4,2.4-1.3.3,0,.6-.4,1-.6-.2-.3-.3-.6-.6-.8-1.9-1.3-1.8-2.8.1-3.9.8-.5,1.6-.9,2.4-1.4-1.8-1.5-2.3-3.4-1.3-5.7h0ZM241.8,150c2.3,0,4-2.9,6.7-.6.4-4,.8-7.7,1.1-11.4-.1,0-.2,0-.3-.1-1.1.9-2.1,1.9-2.9,2.6.8.7,1.7,1.1,2.1,1.9.6,1-.3,1.7-1,2.4-1.9,1.7-3.7,3.4-5.6,5.2ZM112.5,111.9c-.9,4-2,7.9-1.6,12,.2,1.9.7,3.8,2.3,5.3.3-.6.6-1.2.9-1.8-2.4-.6-2.7-1.1-1.8-3.5,0-.1,0-.3,0-.4-.8-1.1-.1-1.9.5-2.7.4-.5.8-1.1,1.2-1.7-2.2-1.1-2.5-2.3-1-4.2.5-.7,1-1.4,1.6-2-.7-.3-1.3-.7-2-1.1h0ZM172.2,62.7c1,1.8,2.6,1.9,3.7.5.3-.4,1.2-.3,1.9-.4.3,0,.8.2.9.1.9-1,1.9-.7,2.9-.3.5-.5.9-1,1.3-1.4-.6-.2-1.3-.3-1.9-.5-.5-.1-1-.4-1.4-.2-2.4.7-4.8,1.4-7.3,2.1h0ZM119.1,123c.3.6.8,1.1.7,1.5-.3,1.3-.9,2.5-1.3,3.6,1,.7,2,1.3,3,1.9-.2-4.4-.5-8.8-.7-13.1-.4.5-.9,1.2-1.3,1.8,1.6,1.8,1.6,1.9-.3,4.3ZM228.9,163.7c3.1,1.8,8.4,1.5,10.3-.3-.8-.4-1.7-.9-2.8-1.5-.6.2-1.5.6-2.4,1-1.5.7-2.9,1.4-4.1-.6-.4.6-.7,1-1,1.4h0ZM208,67.5c-2.8-1.4-5.5-2.7-8.2-4l-.3.5c.3.2.5.5.8.6,1.3.2,1.7,1.1,1.6,2.3,0,.4,0,.8,0,1.2,1.9-1.6,3.2-1.3,4.1.7.6-.4,1.3-.8,2.1-1.3h0ZM183.9,61.1c0,.1,0,.2-.1.4,1.8.7,3.7,1.4,5.6,2.1,1-2.1,2.4-2,3.9-1-.2-1.1-5.2-1.8-9.4-1.5h0ZM240.2,129c1.5-1.7,2.8-3.1,4.1-4.5,0-.2-.2-.3-.2-.5-1.3.2-2.6.3-3.9.5v4.4ZM196.9,76.6c0-.9.1-1.7.2-2.5-.3,0-.4.2-.5.3-1.2,1.6-1.8,1.7-3.7.9-.6-.3-1.2-.4-1.8-.7-.3.7-.7,1.3-1,1.9h6.8ZM249.4,131.2c-1,1.2-2,2.3-2.9,3.3h3.1c0-1.1-.2-2.2-.3-3.3h0ZM125.9,97.4c-.6,0-1-.1-1.4-.1-.3.8-.5,1.5-.7,2.2.3,0,.7.2,1.1.3.3-.8.7-1.6,1-2.4h0ZM248,127.3c-.7.5-1.4,1-1.9,1.4.9.2,1.9.4,2.9.5-.4-.8-.8-1.5-1-2h0ZM247.5,152.6c0,0-.1,0-.2-.1-.8.6-1.6,1.2-2.4,1.8.5.4,1,.7,1.5,1.2.4-1,.7-1.9,1-2.8h0ZM116.7,100.2c.1,0,.2.2.3.3,1.2-1.2,2.3-2.5,3.5-3.7-.1-.1-.3-.2-.4-.4-1.1,1.3-2.3,2.5-3.4,3.8ZM176.3,47.1c13.1-.4,26.2,1.8,38.3,8.5,17.3,9.5,28.2,24,32,43.9,1,5.4,1,10.9.2,16.4-.2,1.5-.9,2.2-2,2.1-1.3-.2-2-1.2-1.8-2.7,2.2-19.4-4.6-35.3-18.6-48.1-8.8-8.1-19.4-12.6-31-14.8-13.5-2.5-26.8-1.7-39.8,3-9.2,3.3-17.1,8.7-22.6,17.1-3.3,5-5.3,10.4-5.6,16.5,0,.4,0,.8-.1,1.1-.3,1-1.3,1.7-2.3,1.5-1.1-.2-1.6-.9-1.5-2.1.2-4.4,1.1-8.6,2.8-12.6,4.9-11.5,13.5-19.1,24.6-24,8.6-3.8,17.7-5.5,27.5-6h0ZM188.2,138.1c.6,0,1.2,0,1.9,0,1,0,1.8.3,2,1.4.2,1.2-.4,2.4-1.5,2.5-3.5.4-7,.5-10.1-1.5-2.4-1.6-3.5-4-3.4-6.7.2-3.7.8-7.4,1.3-11.1.6-4.5,1.3-8.9,1.9-13.4.2-1.6,1-2.4,2.3-2.3,1.2.1,1.9,1.2,1.6,2.9-.8,5.5-1.6,11-2.3,16.5-.3,2.2-.7,4.3-.8,6.5-.2,3.4,1.3,5,4.7,5.3.8,0,1.6,0,2.4,0h0c0,0,0,0,0,0ZM267.5,91.8c1.6.6,3.1,1.3,4.7,1.9.7.3-.4-.2.1,0,0,0,.4.2.4.2l-.2-.2c.1.1.2.2,0,0,0-.1-.2-.5-.1-.1,0-.3,0-.3,0,0v-.2c0,.2,0,.4-.1.6-.1.4-.3.7-.4,1.1-.3.8-.6,1.6-.9,2.4-.2.4-.3.8-.5,1.2,0,.2-.2.4-.2.6.1-.3,0,0,0,.1,0,0,0,.2-.2.3h0c.2-.3.2-.3,0-.2-.1,0,0,0,.1,0,.7-.2,1.4.3,1.5,1,.1.8-.6,1.4-1.3,1.4.2,0,.2,0,0,0-.2,0-.3,0-.5-.1-.1,0-.5-.6-.4-.3l1.9-3.4c-.5,0-1.1,0-1.6,0l.6,4.4c.2,0,.4-.2.6-.2,1.1-.4,2-1.5,1.6-2.8-.4-1.1-1.6-2-2.8-1.6-.2,0-.4.2-.6.2-1.1.4-1.8,1.3-1.6,2.5.1,1.1,1.1,2,2.2,1.9.5,0,1.1,0,1.6,0,.8,0,1.5-.4,1.9-1.1.4-.7.3-1.5,0-2.3-1.2-2.6-5.4-2.1-6,.6-.3,1.4.2,2.9,1.4,3.6,1.2.8,2.6.6,3.7-.1,1.2-.8,1.6-2,2.1-3.3.4-1,.8-2.1,1.2-3.1.4-1,.8-2,.9-3.2.1-1.3-.5-2.6-1.5-3.4-1-.7-2.2-1.1-3.3-1.6l-3.4-1.4c-1.1-.4-2.5.5-2.8,1.6-.3,1.3.4,2.3,1.6,2.8h0ZM266,88.8c-1.5,3.2-3,6.4-4.5,9.6h3.9s-.2-.4-.2-.4c.1.3.1.3,0,.2,0-.2,0,0,0,.2,0,1-1.1,1.7-2.1,1.3-.7-.3-1.2-1.3-.8-2.1.3-.5,1.1-1,1.7-.8.7.2,1,.7,1.1,1.5-.1-1-.6-1.9-1.6-2.2-.4,0-.8,0-1.2,0-.5.1-1.1.6-1.3,1-.2.5.1.2,1-.7.2,0,.4,0,.6,0,.9,0,1.4.8,1.5,2.2-.4,1-1,1.3-2.1,1.2,1.1.3,2.5-.4,2.8-1.6.3-1.2-.3-2.5-1.6-2.8-1-.3-2,0-2.8.8-.8.8-1,2.3-.4,3.3.5.8,1.4,1.4,2.4,1.3,1,0,2-.5,2.4-1.5l-4.2-1.1c.1,1,.4,1.7,1.2,2.4.7.6,1.7.7,2.6.5,1.8-.4,2.7-2.8,1.8-4.4-.9-1.6-3.2-1.9-4.6-.7-1.4,1.2-1.1,3.1-.2,4.5.4.7,1.1,1.1,1.9,1.1s1.6-.4,1.9-1.1c1.5-3.2,3-6.4,4.5-9.6.5-1.1.3-2.5-.8-3.1-1-.5-2.5-.3-3.1.8h0ZM267.5,49.5c-.7.2-1.3.4-2,.5-.1,0-.3,0-.4,0,.4,0,0,0-.1,0-.4,0-.7,0-1,0-.7,0-1.3,0-2,0,0,0-.6,0-.3,0,.3,0-.3,0-.3,0-.3,0-.7-.1-1-.2-.9-.2-1.8,0-2.4.8-.5.6-.7,1.8-.2,2.5.6.9,1.3,1.7,1.8,2.6.2.4.5.8.6,1.2-.2-.4,0,.2.1.4,0,.3.2.5.2.8,0,0,0,.5,0,.2,0-.3,0,0,0,0,0,.3,0,.5,0,.7,0,.1,0,.3,0,.4,0,0,.1-.5,0,0,0,.2-.1.5-.2.7.2-.5-.1.1-.2.3-.2.3,0,0,0,0,0,0-.1.2-.2.2,0,0-.2.1-.2.2-.2.2.3-.2,0,0-.1,0-.5.2-.6.4,0,0,.4-.1.2,0,0,0-.2,0-.3,0-.5.1.3,0,0,0,0,0-.3,0-.3,0,0,0,.5.1.1,0,0,0-.3,0-.3,0,0,0,.4.2,0,0-.4-.3.3.3,0,0-.3-.3,0,0,0,.2,0,0-.1-.2-.1-.2,0,0-.1-.2-.1-.2,0,0,.2.5,0,.2,0,0,0-.1,0-.2-.1-.4,0,0,0,.1,0,0,0-.5,0-.5,0,0-.1.5,0,.2,0,0,0-.1,0-.2,0-.3-.2.4,0,.2,0,0,.2-.4,0,0-.1.2,0,.1,0,0-.3.2-.3.2-.2.1,0,0,.1,0,.2-.1,0,0-.4.2-.2,0,0,0,.4-.2,0,0-.3.1,0,0,0,0,.2,0-.2,0-.2,0,0,0,.3,0,.3,0,0,0-.4-.3-.1,0,.3.2,0-.1,0-.1h.1q.1.2,0,0s-.2-.2,0,0c-.1-.3-.2-.4-.1-.2,0,.2,0,0,0-.3,0,0,0,.2,0,.2,0,.3.2-.5,0-.1,0,0,0,.3,0,.3,0,0,.2-.4,0,0-.2.2.3-.3,0-.1-.2.2.4-.2,0,0,0,0,.5-.1.1,0h.3c0,0-.1,0-.2,0-.2,0,.2,0,.2,0-.2,0-.2,0,0,0q.2,0,0,0h0c0,0,0,0,0,0,.1.1.1.1,0,0h0c0-.2.3.3.1,0v.3c0-.2,0-.2.1.2-.1-1.2-.9-2.3-2.2-2.2-1.1,0-2.4,1-2.2,2.2.2,2,1.6,3.6,3.6,3.9,2.1.3,3.7-.9,4.4-2.8.7-1.9,0-3.8-1.6-4.9-1.4-1-3.4-1-4.8,0-2.8,1.9-2.4,6.5.5,8.1,1.6.9,3.5.8,5.1,0,1.6-.8,2.6-2.1,3.2-3.7,1.3-3.8-.9-7.4-3.1-10.4l-2.5,3.3c3.2.8,6.5.7,9.6-.3,1.1-.4,1.9-1.6,1.6-2.8-.4-1.1-1.6-1.9-2.8-1.6h0ZM221.7,33.6c-1.4-2-3.7-2.6-5.9-1.6-.8.4-1.3,1.7-1,2.5.9,2.3,3.1,3.6,5.5,3.1,1.2-.3,1.8-1.6,1.6-2.8-.5-2.2-2.9-3.5-5-2.9-1,.3-1.6,1.2-1.6,2.2-.1,1.7,1.3,3.2,2.9,3.5,1.9.4,3.6-.6,4.6-2.2.8-1.4,1.1-3.1,1.5-4.7.5-1.8,1-3.5,1.4-5.3l-3.3,1.3c2.9,1.9,5.8,3.7,8.7,5.6l-.8-3.1c-.9,1.9-1.9,3.8-2.8,5.7-.2.4-.4.9-.6,1.3,0,.2-.2.3-.3.5,0,0-.3.4,0,.2,0,0-.1.2-.2.2-.1.1-.1,0,0,0,.2,0,.3-.1.5,0,.2,0,.4.3.2,0l.4.5c0,.7.2.9.2.5l-.3,1.1-.9.7c-.2,0-.3,0-.5,0-1-.1-2.1-1.6-.8-2.7.9-.6,1.9-.5,2.3.7-.4-1.1-1.5-1.9-2.8-1.6-1.1.3-1.9,1.6-1.6,2.8.5,1.6,2.1,2.5,3.7,2.1,1.5-.4,2.6-1.9,2.2-3.5-.4-1.6-2.2-2.6-3.7-2.2-1.6.4-2.6,2-2.1,3.6.5,1.5,1.9,2.4,3.4,2.4,1.6,0,2.9-1.1,3.7-2.4.7-1.1,1.2-2.4,1.8-3.5.7-1.4,1.3-2.7,2-4.1.5-1.1.3-2.4-.8-3.1-2.9-1.9-5.8-3.7-8.7-5.6-1.2-.8-2.9,0-3.3,1.3-.7,2.4-1.3,4.8-2,7.2-.1.5-.3.9-.4,1.4q0,.1,0,0c0,0,0,.2-.2.3s-.1.2-.2.3c.1-.1.1-.2,0,0-.1.1,0,0,0,0,.3,0,.3-.1.1,0-.2,0-.1,0,.2,0,.3,0,.3,0,.2,0-.2,0-.1,0,.1,0-.2-.1-.2-.1,0,0,.1,0,.2.2.3.3.1.7.2.9.2.5l-1.6,2.2c-.2,0-.2,0,0,0,0,0-.5-.2-.3,0,.2.1,0,0-.1-.1,0,0-.2-.5,0,0l1.6-2.8c.2,0,.3,0,0,0-.2,0-.1,0,0,0h-.2c.2,0,.2,0,0,0-.2,0,.1.3-.1,0,.3.3-.1-.3,0,.1l-1,2.5h-.2c.2,0,.3,0,0,0-.1,0-.1,0,0,0s.1,0,0,0c.2,0,.2.1,0,0-.3-.2.1.2,0-.1.7,1,2,1.5,3.1.8,1-.6,1.5-2.1.8-3.1h0ZM223.1,30.4l6.7,4.7c.4.3,1.2.4,1.7.2.5-.1,1.1-.5,1.3-1,.3-.5.4-1.1.2-1.7s-.5-1-1-1.3l-6.7-4.7c-.4-.3-1.2-.4-1.7-.2-.5.1-1.1.5-1.3,1-.3.5-.4,1.1-.2,1.7.2.6.5,1,1,1.3ZM257.3,10l-6.2.7c-1,.1-1.9.6-2.2,1.7-.2,1,.1,2,1,2.5.3.1.5.3.8.5.1,0,.2.2.4.3,0,0,.3.2,0,0-.3-.2,0,0,.1,0,.2.2.4.4.6.6,0,.1.2.2.3.3,0,0,.2.3,0,0-.2-.3,0,0,0,0,.2.2.3.5.4.8,0,0,0,.1,0,.2,0,0-.2-.4,0-.2,0,.1,0,.3.1.4,0,0,.1.6,0,.2,0-.4,0,0,0,.2v.4c0,0,0,.1,0,.2,0,.3,0-.1,0-.2,0,.2-.1.5-.2.7-.1.4.2-.4,0,0,0,.1-.1.3-.2.4-.3.4.3-.3,0,0,0,0-.2.2-.3.3,0,0,.4-.3.2-.2,0,0-.1,0-.2,0,0,0-.1,0-.2,0-.2.1.4-.1.2,0-.1,0-.2,0-.4.1,0,0-.1,0-.2,0,0,0,.5,0,.3,0h-.4c-.2,0,.3,0,.3,0,0,0-.2,0-.2,0,0,0-.1,0-.2,0-.3,0,.4.2.2,0,0,0-.4-.3-.1,0,.4.3-.2-.3,0,0,.2.3,0,0,0,0-.2-.3,0,.1,0,.2,0,0,0-.1,0-.2,0-.3,0,.5,0,.2v-.2c0-.3,0,.2,0,.3,0,0,0-.3,0,0-.2.4.2-.2-.1.2-.2.3,0,0,0,0-.2.2-.4.3-.6.3.2,0,.1,0-.3,0,0,0-.6-.1-.3,0,0,0,.3,0,0,0-.4-.2.1.2-.2-.1-.3-.2-.1,0,0,0,0,0-.3-.5-.2-.2-.3-.5-.3-1,0-1.5-.4.7-.4,1.6,0,2.3.2.3.4.6.6.9.6,1,2,1.5,3.1.8,1-.6,1.5-2,.8-3.1-.2-.3-.4-.6-.6-.9v2.3c.8-1.6.3-3.2-1.1-4.2-1.2-.8-2.7-.8-3.9,0-2.3,1.8-1.5,5.3.8,6.6,2.1,1.2,4.9.6,6.4-1.2,1.4-1.7,1.9-4.1,1.2-6.2-.7-2.4-2.6-4.2-4.8-5.4l-1.1,4.2,6.2-.7c.6,0,1.1-.2,1.6-.7.4-.4.7-1,.7-1.6,0-1.1-1-2.4-2.2-2.2h0ZM207.8,117.1s0,0,0,0c0,0-.4-.3-.5-.4-.2-.1-.4-.2-.6-.3-.2,0-.4,0-.7,0h-.6c0,0,0,0,0,0-.1,0-.2,0-.3.1-.1,0-.2,0-.3.2-.4.3-.6.5-.9.9-.1.2-.3.5-.3.7,0,0,0,0,0,0,0,.1,0,.5,0,.6h0c0,1,.5,1.8,1.3,2.2.1,0,.4.2.6.2,0,0,0,0,0,0,.1,0,.3,0,.3,0,0,0,.2,0,.3,0,.4,0,.7,0,1.1-.2.1,0,.2,0,.4-.2,0,0,.2-.2.3-.2,0,0,.2-.1.3-.2,0,0,0,0,0,0,.1-.2.3-.3.4-.5.3-.5.3-.8.4-1.3h0c0-.3,0-.6,0-.7,0,0,0,0,0,0-.2-.7-.7-1.3-1.3-1.6-.2-.1-.4-.2-.6-.3,0,0,0,0-.1,0-.3,0-.6-.1-.8,0-.3,0-.6,0-.8.1-.2,0-.4.2-.6.3,0,0,0,0-.1,0-.2.1-.4.3-.6.5-.1.2-.3.3-.4.5,0,0,0,0,0,.1-.2.5-.4.9-.4,1.5,0,.3,0,.5,0,.8,0,0,0,.2,0,.2,0,.2.2.5.3.7.1.2.3.4.5.6.2.3.5.5.8.6.2,0,.4.2.6.3,0,0,0,0,0,0,.2,0,.4,0,.7,0h.1c.2,0,.5,0,.7,0,0,0,0,0,.1,0,.1,0,.2,0,.4-.1.1,0,.3,0,.4-.2.5-.3.8-.6,1.1-1.1.2-.3.3-.6.4-.9,0-.3.2-.7.1-1,0-.3,0-.5-.1-.8,0-.3-.2-.5-.3-.7-.1-.3-.4-.6-.6-.8-.2-.1-.4-.4-.6-.5-.2,0-.4-.2-.6-.3,0,0,0,0-.1,0,0,0,0,0-.1,0-.2,0-.5,0-.7,0,0,0-.2,0-.3,0-.2,0-.5,0-.8.1-.3,0-.5.2-.8.3,0,0-.2,0-.2.1-.2.2-.4.3-.6.5-.2.2-.3.4-.5.6-.2.2-.2.5-.3.7,0,0,0,.2,0,.2,0,.3-.1.6,0,.9,0,.3,0,.6.1.8,0,.1.1.3.2.4,0,.1.1.3.2.4.1.2.3.5.5.7,0,0,.1.2.2.2.2.2.4.4.7.5,0,0,0,0,.1,0,.2,0,.4.2.7.3,0,0,0,0,.1,0,.2,0,.5,0,.7,0h.1c.2,0,.5,0,.7,0,0,0,.2,0,.3,0,.3,0,.5-.2.8-.4.5-.3.8-.7,1.2-1.2,0,0,.1-.2.1-.2.1-.3.3-.5.3-.8,0,0,0,0,0-.1,0-.2,0-.5,0-.7h0c0-.4,0-.6,0-.9,0,0,0-.2,0-.3,0-.2-.2-.5-.3-.8-.4-.5-.6-.8-1.1-1.1,0,0-.2,0-.2-.1-.2-.1-.5-.2-.8-.3-.3,0-.7-.2-1.1-.1-.3,0-.6,0-.8.1-.1,0-.3.1-.4.2s-.3,0-.4.2c-.3.1-.5.3-.6.6-.2.2-.3.5-.4.8,0,.3-.1.6,0,.9,0,.3,0,.6.3.8.3.5.8.9,1.3,1,.6.1,1.2,0,1.7-.2,0,0,0,0,.1,0l-.5.2c.1,0,.2,0,.3,0h-.6c.1,0,.2,0,.3,0h-.6c.1,0,.3,0,.4,0l-.5-.2c.1,0,.2.1.3.2l-.5-.3c0,0,.2.2.2.2l-.3-.5c0,0,.1.2.2.3l-.2-.5c0,0,0,.2,0,.3v-.6c0,.1,0,.2,0,.3v-.6c0,.1,0,.2,0,.3l.2-.5c0,.1-.1.2-.2.4l.3-.5c0,0-.2.2-.3.3l.5-.3c0,0-.2.1-.3.2l.5-.2c-.1,0-.2,0-.3,0h.6c0,0-.2,0-.3,0h.6c-.1,0-.2,0-.3,0l.5.2c-.1,0-.2-.1-.3-.2l.5.3c0,0-.2-.2-.3-.3l.3.5c0-.1-.1-.2-.2-.3l.2.5c0-.1,0-.2,0-.3v.6c0-.1,0-.2,0-.3v.6c0,0,0-.2,0-.3l-.2.5c0,0,0-.2.2-.3l-.3.5c0,0,.1-.2.2-.2l-.5.3c0,0,.2-.1.3-.2l-.5.2c.1,0,.2,0,.4-.1h-.6c.1,0,.2,0,.3,0h-.6c0,0,.2,0,.3,0l-.5-.2c0,0,.2,0,.2.1l-.5-.3c0,0,.1,0,.2.2l-.3-.5c0,0,0,.1.1.2l-.2-.5c0,0,0,.2,0,.3v-.6c0,.1,0,.2,0,.3v-.6c0,.1,0,.2,0,.4l.2-.5c0,0,0,.2-.2.3l.3-.5c0,0-.1.1-.2.2l.5-.4c0,0-.1,0-.2.1l.5-.2c0,0-.1,0-.2,0h.6c0,0-.1,0-.2,0h.6c0,0-.1,0-.2,0l.5.2c0,0-.1,0-.2-.1l.5.4c0,0-.1-.1-.2-.2l.3.5c0,0-.1-.2-.2-.3l.2.5c0-.1,0-.2,0-.3v.6c0,0,0-.2,0-.3v.6c0,0,0-.1,0-.2l-.2.5c0,0,0-.1,0-.2l-.4.5s0,0,.1-.1l-.5.3s0,0,.2,0l-.5.2c0,0,.1,0,.2,0h-.6c0,0,.2,0,.3,0h-.6c0,0,.1,0,.2,0l-.5-.2c0,0,.1,0,.2,0l-.5-.3s0,0,.1.1l-.3-.5s0,0,0,.1l-.2-.5s0,0,0,0v-.6c0,0,0,0,0,.1v-.6c0,0,0,0,0,.1l.2-.5s0,0,0,.1l.4-.5s0,0-.1.1l.5-.3s0,0-.1,0l.5-.2s0,0-.1,0h.6c0,0,0,0-.1,0h.6c0,0,0,0-.1,0l.5.2s0,0,0,0l.5.4s0,0,0,0l.3.5s0,0,0,0l.2.5s0,0,0,0v.6c0,0,0,0,0,0v.6c0,0,0,0,0-.1l-.2.5c0,0,0,0,0-.1l-.3.5s0,0,0,0l-.5.3s0,0,0,0l-.5.2s0,0,0,0h-.6c0,0,0,0,0,0h-.6c0,0,0,0,0,0l-.5-.2s0,0,0,0l-.5-.4s0,0,0,0c.2.2.4.4.7.5.3.1.6.2.9.2.3,0,.6,0,.9-.2.3,0,.5-.2.7-.5.4-.4.7-1,.7-1.6v-.6c-.2-.4-.4-.7-.7-1h0ZM162.3,115.1c-.4-.3-.6-.5-1.2-.7-.3,0-.5-.1-.8,0-.5,0-.8.1-1.3.4-.2.1-.5.3-.6.5-.4.4-.6.8-.8,1.3-.2.5-.2,1.1,0,1.6.1.5.3.8.7,1.2,0,0,0,0,0,0,.1.1.3.3.5.4,0,0,0,0,0,0,.2.1.5.2.7.3.2,0,.5,0,.7,0h.1c.2,0,.6,0,.8-.1.2,0,.4-.2.6-.3,0,0,0,0,.1,0,.2-.1.4-.3.5-.4,0,0,0,0,0,0,0,0,.2-.2.2-.3,0-.1.2-.2.2-.3.1-.2.3-.5.3-.7.1-.6.1-.8,0-1.4,0-.5-.4-1-.8-1.4-.4-.4-.9-.7-1.4-.9,0,0-.2,0-.3,0-.3,0-.6-.1-.9,0-.3,0-.6,0-.8.1-.2,0-.4.2-.6.3,0,0,0,0-.1,0-.2.2-.5.3-.6.5-.2.2-.4.4-.5.7-.1.2-.2.5-.3.8,0,.2,0,.5,0,.7,0,0,0,.1,0,.2,0,.3,0,.6.1.9,0,.3.2.6.3.8,0,0,0,.2.1.3.2.2.3.5.5.7.2.2.4.4.7.5.3.1.5.3.8.3.3,0,.6.1.9.1.1,0,.2,0,.3,0,.3,0,.6,0,.9-.1s.5-.2.8-.3c.2-.1.5-.3.7-.5.2-.2.4-.4.6-.7,0,0,.1-.2.2-.3.1-.3.3-.5.3-.8,0-.3.1-.6.1-.9,0-.2,0-.4,0-.6,0-.2,0-.4-.1-.6,0-.3-.2-.5-.3-.8-.3-.5-.7-.9-1.2-1.2-.2-.2-.5-.3-.8-.3,0,0-.2,0-.3,0-.3,0-.6-.1-.9-.1s-.6,0-.9.1c0,0-.2,0-.3,0-.2,0-.6.2-.8.4-.5.3-.9.7-1.2,1.2-.1.2-.2.5-.3.8,0,.3-.1.6-.1.9,0,.1,0,.2,0,.3,0,.3,0,.6.1.9,0,.3.2.5.3.8.1.3.3.5.5.7,0,0,.1.1.2.2.2.2.4.4.7.5.5.3,1,.4,1.7.4.3,0,.6,0,.9,0,0,0,.2,0,.3,0,.3,0,.5-.2.8-.3.2-.1.5-.3.7-.5.4-.4.7-.9.9-1.4.2-.6.1-1.2,0-1.7,0,0,0-.2,0-.3,0-.3-.2-.5-.4-.8-.3-.5-.7-.8-1.2-1.2-.2-.2-.5-.3-.8-.3-.3,0-.6-.1-.9-.1-.3,0-.6,0-.9.2-.3,0-.5.2-.7.5-.2.2-.4.4-.5.7-.1.3-.2.6-.2.9v.6c.2.4.4.7.7,1l.5.4c.4.2.7.3,1.1.3h0c-.2,0-.4,0-.6,0,0,0,.2,0,.3,0l-.5-.2c0,0,.2,0,.3.2l-.5-.4c0,0,.2.2.2.2l-.3-.5c0,0,.1.2.2.3l-.2-.5c0,.1,0,.2,0,.3v-.6c0,.1,0,.2,0,.3v-.6c0,0,0,.2,0,.3l.2-.5c0,0,0,.2-.1.2l.3-.5c0,0-.1.2-.2.2l.5-.4c0,0-.2.1-.3.2l.5-.2c-.1,0-.2,0-.4.1h.6c-.1,0-.3,0-.4,0h.6c-.1,0-.2,0-.3,0l.5.2c0,0-.2,0-.2-.1l.5.4c0,0-.2-.1-.2-.2l.4.5c0,0-.1-.2-.2-.3l.2.5c0-.1,0-.3-.1-.4v.6c0-.1,0-.3,0-.4v.6c0-.1,0-.2,0-.4l-.2.5c0,0,0-.2.2-.3l-.4.5c0,0,.1-.2.2-.2l-.5.3c0,0,.2-.1.3-.2l-.5.2c.1,0,.2,0,.4,0h-.6c.1,0,.3,0,.4,0h-.6c.1,0,.3,0,.4,0l-.5-.2c.1,0,.2.1.3.2l-.5-.3c0,0,.1.1.2.2l-.3-.5c0,0,.1.2.2.3l-.2-.5c0,.1,0,.3.1.4v-.6c0,.1,0,.3,0,.4v-.6c0,.1,0,.3,0,.4l.2-.5c0,.1-.1.2-.2.3l.3-.5c0,0-.1.1-.2.2l.5-.4c0,0-.2.1-.3.2l.5-.2c-.1,0-.2,0-.4,0h.6c-.1,0-.3,0-.4,0h.6c-.1,0-.3,0-.4,0l.5.2c-.1,0-.2-.1-.3-.2l.5.4c0,0-.2-.1-.2-.2l.3.5c0,0-.1-.2-.2-.3l.2.5c0-.1,0-.2,0-.4v.6c0-.1,0-.3,0-.4v.6c0-.1,0-.2,0-.3l-.2.5c0,0,0-.2.2-.3l-.4.5c0,0,.1-.1.2-.2l-.5.4c0,0,.1,0,.2-.1l-.5.2c0,0,.1,0,.2,0h-.6c0,0,.2,0,.3,0h-.6c.1,0,.2,0,.3,0l-.5-.2c0,0,.2,0,.3.1l-.5-.4c0,0,.1.1.2.2l-.3-.5c0,0,0,.1.1.2l-.2-.5c0,0,0,.1,0,.2v-.6c0,0,0,.1,0,.2v-.6c0,0,0,.1,0,.2l.2-.5c0,0,0,.1,0,.2l.4-.5c0,0-.1.1-.2.2l.5-.3c0,0-.2,0-.2.1l.5-.2c0,0-.2,0-.3,0h.6c0,0-.1,0-.2,0h.6c0,0-.1,0-.2,0l.5.2c0,0,0,0-.1,0l.5.4s0,0,0,0l.3.5s0,0,0-.1l.2.5s0,0,0-.1v.6c0,0,0-.1,0-.2v.6c0,0,0-.1,0-.2l-.2.5c0,0,0-.1.1-.2l-.4.5c0,0,.1-.1.2-.2l-.5.3c0,0,.1,0,.2-.1l-.5.2c0,0,.1,0,.2,0h-.6c0,0,0,0,.1,0h-.6c0,0,0,0,.1,0l-.5-.2s0,0,.1,0l-.5-.4h0c.2.2.4.4.7.5.3.1.6.2.9.2.3,0,.6,0,.9-.2.3,0,.5-.2.7-.5.4-.4.7-1,.7-1.6v-.6c-.2-.4-.4-.7-.7-1h0ZM202.3,108.6c.5-.2.9-.3,1.4-.4.1,0,.2,0,.4,0,0,0,.4,0,.1,0-.3,0,.2,0,.2,0,.1,0,.2,0,.3,0,.5,0,1,0,1.5,0,.1,0,.2,0,.4,0,0,0,.4,0,.1,0-.3,0,0,0,.1,0,.1,0,.3,0,.4,0,.5,0,.9.2,1.4.4.1,0,.3,0,.4.2,0,0,.4.2.1,0-.3-.1,0,0,.1,0,.1,0,.2,0,.3.2.4.2.9.5,1.3.8,0,0,.2.1.3.2.3.2-.2-.2,0,0,.2.2.4.4.6.5.9.8,2.3.9,3.2,0,.8-.9.9-2.3,0-3.2-3.7-3.5-9.2-4.8-14-3.1-1.1.4-2,1.5-1.6,2.8.4,1.1,1.6,2,2.8,1.6h0ZM155,108.3c.2-.1.4-.2.6-.3,0,0,.2,0,.3-.1.3-.2,0,0,0,0,0-.2,1.2-.4,1.4-.4.2,0,.4,0,.7-.1,0,0,.4,0,.1,0-.3,0,0,0,.1,0,.5,0,1,0,1.4,0,0,0,.7,0,.7,0,0,0-.5,0,0,0,.1,0,.2,0,.3,0,.4,0,.9.2,1.3.3.1,0,.6.1.6.2,0-.1-.3-.2,0,0,0,0,.2,0,.3.2.4.2.8.5,1.2.8.9.7,2.5.2,3.1-.8.6-1.2.2-2.3-.8-3.1-3.9-2.8-9.4-2.9-13.4-.5-1,.6-1.5,2-.8,3.1.7,1,2,1.4,3.1.8h0ZM157.7,117.3l5.1-.2c.6,0,1.2-.2,1.6-.7.4-.4.7-1,.7-1.6,0-.6-.2-1.2-.7-1.6-.4-.4-1-.7-1.6-.7l-5.1.2c-.6,0-1.2.2-1.6.7-.4.4-.7,1-.7,1.6s.2,1.2.7,1.6c.4.4,1,.7,1.6.7ZM203.2,118.5l7.2.7c.5,0,1.2-.3,1.6-.7.4-.4.7-1,.7-1.6,0-.6-.2-1.2-.7-1.6-.4-.4-1-.6-1.6-.7l-7.2-.7c-.5,0-1.2.3-1.6.7-.4.4-.7,1-.7,1.6,0,.6.2,1.2.7,1.6.4.4,1,.6,1.6.7ZM192,159c2.9,1.9,6.6,2,9.6.4s4.7-4.5,5-7.7c.1-1.2-1.1-2.3-2.2-2.2-1.3,0-2.1,1-2.2,2.2,0,.5,0-.3,0,0,0,.1,0,.3,0,.4,0,.3-.2.5-.2.8-.1.4.1-.2,0,0,0,.1-.1.3-.2.4-.1.2-.3.5-.4.7,0,0-.1.2-.2.3.2-.2.2-.3,0-.1,0,0,0,0-.1.1-.2.2-.4.4-.6.6,0,0-.2.2-.3.3.2-.1.2-.2,0,0-.2.2-.5.3-.7.4-.1,0-.3.1-.4.2.2,0,.3-.1,0,0-.3,0-.6.2-.9.2,0,0-.6,0-.2,0,.3,0-.2,0-.2,0-.3,0-.6,0-.9,0,0,0-.6,0-.2,0,.3,0-.2,0-.2,0-.3,0-.6-.1-.9-.2-.1,0-.2,0-.3-.1.4.1,0,0,0,0-.3-.1-.6-.3-.9-.5-1-.6-2.5-.2-3.1.8-.6,1.1-.2,2.4.8,3.1h0ZM175.6,148.8c-.4.2-.9.3-1.2.6-1.7,1.4-3.6.9-5.5.6-.3,0-.5,0-.8.1-.4,0-.8.2-1.2.3-.4.1-.9.2-1.2.4-.8.6-1.5.8-2.4.3-.9-.5-1-1.3-.8-2.2.2-.9.4-1.7.6-2.6.3-1.4,1.5-2,2.8-1.5,1,.4,1.8.5,2.7-.3.4-.3,1.2-.1,1.9,0,.4,0,.9.2,1.3.3.3,0,.6,0,.8,0,1,1,1.9.2,2.7-.3.5-.3,1-.6,1.5-.8.3-.1.6-.3.9-.2,1,.4,1.9.4,2.9.2.5,0,1.1-.1,1.6-.2,0,0,.2,0,.2,0,1.4.5,2.9.3,4.4.3.4,0,.9,0,1.3-.2.6-.3,1.2-1.1,1.8-1.2,1.5,0,3.3-.4,4.4.2,1.3.6,2.2.7,3.4.4.2,0,.5,0,.7,0,.9.8,1.9.4,2.9.3.6,0,1.2-.1,1.7,0,2,.3,3.9.7,5.9,1.1,1.2.3,1.8,1.3,1.5,2.4-.2,1-.9,1.4-2.2,1.2-.9-.2-1.9-.3-2.8-.6-2.1-.5-4.2-.5-6.4.1-.6.2-1.4-.2-2.2-.2-.4,0-.9,0-1.3,0-1.2.2-2.4,1.1-3.5,0,0,0-.4,0-.5,0-.7.4-1.4.7-2.3.3-.3-.1-.9.3-1.2.6-.8.6-1.6,1-2.6.6-.2,0-.6,0-.8.2-.4.3-.8.7-1.2,1-1,.8-2.2.7-3-.4-.5-.8-1-1.1-1.9-.5-1,.6-1.9.2-2.7-.6h0ZM89.1,170.7c4.9-1.4,9.9-2.7,14.9-3.9,2.4-.6,4.8-1.2,7.3-1.9,1.4-.4,2.8-.8,4.2-1.2,1.1-.3,2.4-.8,3.6-.5,1.8.5,2.1,3.2,2.4,4.7.6,3.2,1.3,6.4,1.9,9.6,1.2,6.2,2.4,12.4,3.6,18.6,1.4,7.1,2.8,14.2,4.1,21.3l1.6-2.8c-11.6,1.6-23.1,3.3-34.6,4.9l2.8,1.6c-3.5-17.6-6.9-35.2-10.4-52.8-.2-1.2-1.6-1.9-2.8-1.6-1.2.3-1.8,1.6-1.6,2.8,3.5,17.6,6.9,35.2,10.4,52.8.3,1.3,1.6,1.7,2.8,1.6,11.6-1.6,23.1-3.3,34.6-4.9,1.3-.2,1.8-1.7,1.6-2.8-2.6-13.3-5.2-26.6-7.8-39.9-.6-3.2-1.2-6.4-1.9-9.6-.5-2.6-1.3-5.3-3.6-6.9-2.5-1.9-5.6-1.2-8.4-.4-2.8.8-5.6,1.6-8.5,2.3-5.8,1.5-11.7,2.9-17.5,4.6-2.8.8-1.6,5.1,1.2,4.3h0ZM102.8,194c-.4-2,.6-4.3,2.6-5.4,1.4-.8,3-1.2,4.6-1.8.2,0,.6,0,.8,0,1.6.8,3.2,1.5,4.7,2.4.8.5,1.5,1.2,2.1,2,1.8,2.6.8,5.4-2.6,6.3-2.4.4-5.1.7-7.9.2-2.4-.4-3.9-1.8-4.3-3.8M109.2,192.2c-.3,0-.7-.2-1-.3.3-.2.6-.5,1-.6.6-.2,1.2-.2,2-.4-1.7-.8-3.5-.4-4.6.8-.9,1.1-.7,2.2.5,2.6,2.5.7,5,.5,7.5,0,.7-.1.8-.6.3-1.1-.9-.8-1.8-1.5-2.6-2.2,0,0,0,.2-.2.3-.3.2-.5.4-.9.7.6.2,1.1.4,1.6.6.2,0,.3.4.5.5-.3,0-.5.2-.8.2-.6-.2-1.1-.4-1.6-.6-.1.4-.2.7-.3,1.1-.3-.2-.6-.5-.9-.7-.2.3-.3.6-.5.8-.1.1-.4.2-.6.3,0-.2-.2-.5,0-.7.2-.4.5-.9.7-1.2h0ZM114.8,183.2c.2.9,0,1.5-.8,2-1,.6-1.8,1.9-3.3,1-.9-.6-1-1.8-.2-2.5.6-.5,1.3-1,2.1-1.4.8-.4,1.9,0,2.2,1ZM116,48.3c1,.3,1.9.9,2.6,1.9.1.2.6,1,.8,1.4,0-.2,0,0,0,.2,0,.2,0,.3.1.5,0,0,.2.9.1.6.1,1.2.9,2.2,2.2,2.2s2.4-1,2.2-2.2c-.2-1.8-.3-3.6-.5-5.4,0-.8-.2-1.6-.2-2.5,0,0,0-.5,0-.5-.1,0-.1,0,0,0-.2.1-.2.1,0,0-.2,0-.2.1,0,0-.3,0-.3,0,0,0,.3,0,.3,0,0,0,.1,0,.3,0,.4.1.3,0,.3,0,0,0,.1,0,.3.1.4.2-.4-.3.2.3.1.2.7.9.8,2.3.9,3.4l4.4-.6c-.5-1.3-.8-2.6-.7-4.1,0-.6.2-1.2.3-1.7.1-.4.3-1,.5-1.1-.5.3.3-.2-.2,0,.3,0,.3,0,0,0,.1,0,.3,0,.4.1-.3-.2.2.2.3.2-.3-.3.4.5.1.2.6,1,.6,2.1.6,3.4,0,2.9,4.5,2.9,4.5,0,0-2.2-.3-4.5-1.7-6.3-1.3-1.6-3.6-2.5-5.5-1.8-2.3.8-3.3,3.2-3.7,5.4-.4,2.2-.2,4.7.6,6.9.4,1,1.3,1.8,2.5,1.6,1-.2,2-1.1,1.9-2.2-.2-2.3-.5-4.5-2-6.3-1.3-1.6-3.5-2.4-5.6-1.9-2.5.6-3.5,3-3.4,5.4.1,2.4.5,4.9.7,7.3h4.5c-.4-4.1-3.1-7.6-7.1-8.9-1.1-.4-2.4.4-2.8,1.6-.3,1.2.4,2.4,1.6,2.8h0ZM128.8,27.6c3.4,5.6,6.8,11.2,10.2,16.7.7,1.2,2.5,1.6,3.5.5,1.2-1.4,1.6-3,1.4-4.8,0-.7-.2-1.4-.2-2.1,0-.4,0-.7,0-1.1,0-.2,0-.3,0-.5,0,.3,0,.1,0,0,.1-.4,0,0,0,0,0,0,.2-.3,0,0,.1-.2,0-.2.3-.2-.4,0,.1,0,.2,0,.2,0,.2,0,0,0h.2c.2.1.4.1.7.4-.2-.2.1.1.2.2.3.3-.2-.4.2.3.2.3.3.7.5,1.1.3.9.4,1.7.4,2.6.1,1.2.9,2.2,2.2,2.2s2.4-1,2.2-2.2c-.3-2.5-.6-5.3-2.5-7.2-1.7-1.7-4.6-2.4-6.8-1.1-2,1.2-2.5,3.4-2.4,5.6,0,.9.2,1.7.3,2.6,0,.2,0,.4,0,.6s0,.2,0,.3c0-.2,0-.3,0,0,0,0-.2.6,0,.4.1-.3-.4.5,0,0l3.5.5c-3.4-5.6-6.8-11.2-10.2-16.7-1.5-2.5-5.4-.2-3.9,2.3h0ZM148.5,32.1c.7,2.2,1.5,4.3,2.2,6.5.3.9,1.1,1.7,2.2,1.7s1.9-.7,2.2-1.7c.4-1.7,0-3.3.1-5,0-.2,0-.3,0-.4,0,.2,0,.2,0,0,0-.1,0-.3.1-.4,0,.2,0,.2,0,0,.1-.2.1-.2,0,0,.2-.2.2-.2,0,0,.2-.1.2-.1,0,0,.2,0,.3,0,0,0-.4,0,.7.2.1,0,.1,0,.3,0,.4.1-.2,0-.2,0,0,0,.2.2.2.2,0,0,.1,0,.2.2.3.3.2.2.2.2,0,0,0,.1.2.3.2.4.2.3.3,1.1.3,1.4,0,.7,0,1.4,0,2.2l4.4-.6c-.2-1.4-.4-2.8-.1-4.2,0-.3,0-.3,0-.1,0-.1.1-.3.2-.4,0-.1.2-.3.2-.4-.1.1,0,.1,0,0,.1-.1.2-.2.3-.3-.2.1-.1,0,0,0,.2-.1.3-.1,0,0,.1,0,.3,0,.4-.1-.5.1.6,0,.2,0,.3,0,.3,0,.1,0,.1,0,.3.1.4.2-.1-.1-.1,0,0,0,.1.1.2.2.3.4-.1-.1,0,0,0,.1,0,.1.2.3.2.4,0-.2,0-.1,0,.2,0,.2.1.4.2.5,0,.3.1.5.1.8,0,.8,0,1.5,0,2.3,0,1.2,1,2.2,2.2,2.2s2.2-1,2.2-2.2c0-2.2,0-4.6-1.3-6.5-1.3-1.9-3.5-3.3-6-2.8-2,.4-3.6,2-4.4,3.8-1.1,2.4-.7,5-.2,7.6.2,1.1,1.5,1.8,2.5,1.6,1.1-.2,1.9-1.1,1.9-2.2,0-2.1,0-4.3-1.1-6.1-1-1.7-3-3-5-3s-3.9,1.6-4.6,3.7c-.3.9-.3,1.9-.3,2.8,0,1,.3,2.1,0,3h4.3c-.7-2.2-1.5-4.3-2.2-6.5-.4-1.1-1.5-1.9-2.8-1.6-1.1.3-2,1.6-1.6,2.8h0ZM167.9,27.8c.6,2.2,1.1,4.5,1.7,6.7.3,1.3,2.1,2.2,3.3,1.3,1.7-1.2,2.1-3.1,1.7-5.1-.1-.7-.5-1.4-.7-2.2-.2-.7,0,.1,0-.3q0-.2,0,0v-.2c0,.3.3-.1,0,.1,0,0-.5.3-.2.2.3-.1,0,0,0,0,0,0,.5,0,.2,0-.4,0,.1,0,.2,0-.3,0-.3,0,0,0,.1,0,.3,0,.4.1-.4-.1,0,0,0,0,.1,0,0,0,0,0-.1-.1-.1,0,0,0,0,.1.2.2,0,0,.1.2.2.3.3.5.1.2,0-.1,0,.2.1.4.2.7.3,1.1,0-.2,0,0,0,.1,0,.2,0,.4,0,.6,0,.4,0,.9,0,1.3h4.5c-.1-1-.2-1.9-.2-2.9,0-.7.2-1.4.5-1.9,0-.2.3-.3,0,0,.1-.1.3-.3.4-.4-.4.3.1,0,.2,0,.3-.3-.3,0,.2,0,.1,0,.3,0,.4-.1.2,0-.4,0,0,0s-.3-.1,0,0c.2,0,.2,0,0,0-.2,0-.1,0,0,0-.3,0,0-.2,0,0,.1.1,0,0,0-.1,0,0,0,.1.1.2.1.2,0-.4,0,0,0,.2,0,.4.1.5.1.6,0-.4,0,.1,0,.2,0,.3,0,.5,0,.4,0,.7,0,1.1,0,1.8.4,3.6,1.8,4.8.9.8,2.3.9,3.2,0,.8-.8.9-2.4,0-3.2,0,0-.2-.2-.3-.2.2.2.2.3,0,0-.2-.4,0,.4,0,0,0-.2,0-.3-.1-.5,0-.3,0-.2,0,0,0-.1,0-.2,0-.4,0-.8,0-1.6-.1-2.5-.3-2.3-1.5-4.5-3.9-4.9-2.5-.4-4.8.8-6,2.8-1.3,2.1-1.2,4.8-.9,7.2.1,1.2.9,2.2,2.2,2.2s2.2-1,2.2-2.2c0-2,0-4.3-1.3-6-1.1-1.6-3-2.7-4.9-2.5-2.3.2-4.1,1.9-4.1,4.3,0,1.2.4,2.2.8,3.3,0,.2.1.4.1.6,0-.4,0,0,0,.2,0,.4,0-.2,0,0,0,.2,0,.1,0-.1,0-.1.2-.2.3-.3l3.3,1.3c-.6-2.2-1.1-4.5-1.7-6.7-.3-1.2-1.6-1.9-2.8-1.6-1.1.3-1.9,1.6-1.6,2.8h0Z"/>
</svg>